<svg xmlns="http://www.w3.org/2000/svg" xmlns:xlink="http://www.w3.org/1999/xlink" id="body_2" preserveAspectRatio="xMinYMin meet" viewBox="0 0 793 1121"><defs><clipPath id="1"><path id="" clip-rule="evenodd" transform="matrix(1 0 0 1 0 0)" d="M0 841L0 -0.9000244L0 -0.9000244L595.3 -0.9000244L595.3 -0.9000244L595.3 841L595.3 841L0 841z" /></clipPath><clipPath id="2"><path id="" clip-rule="evenodd" transform="matrix(1 0 0 1 0 0)" d="M0 41.59998L595.3 41.59998L595.3 41.59998L595.3 60.53198L595.3 60.53198L0 60.53198z" /></clipPath><clipPath id="3"><path id="" clip-rule="evenodd" transform="matrix(1 0 0 1 0 0)" d="M0 781.051L595.3 781.051L595.3 781.051L595.3 791.4L595.3 791.4L0 791.4z" /></clipPath></defs><g transform="matrix(1.333333 0 0 1.333333 0 0)"><g clip-path="url(#1)"><g clip-path="url(#2)"><path id="13" transform="matrix(1 0 0 -1 0 841)" d="M69.45 780.718L525.85 780.718" stroke="#000000" stroke-width="0.5" fill="none" /></g><g clip-path="url(#3)"></g></g></g></svg>