<svg xmlns="http://www.w3.org/2000/svg" xmlns:xlink="http://www.w3.org/1999/xlink" id="body_15" preserveAspectRatio="xMinYMin meet" viewBox="0 0 793 1121"><defs><clipPath id="1"><path id="" clip-rule="evenodd" transform="matrix(1 0 0 1 0 0)" d="M0 841L0 -0.9000244L0 -0.9000244L595.3 -0.9000244L595.3 -0.9000244L595.3 841L595.3 841L0 841z" /></clipPath><clipPath id="2"><path id="" clip-rule="evenodd" transform="matrix(1 0 0 1 0 0)" d="M0 41.59998L595.3 41.59998L595.3 41.59998L595.3 60.53198L595.3 60.53198L0 60.53198z" /></clipPath><clipPath id="3"><path id="" clip-rule="evenodd" transform="matrix(1 0 0 1 0 0)" d="M0 781.051L595.3 781.051L595.3 781.051L595.3 791.4L595.3 791.4L0 791.4z" /></clipPath><clipPath id="4"><path id="" clip-rule="evenodd" transform="matrix(1 0 0 1 0 0)" d="M64.75 116.3L462.65 116.3L462.65 116.3L462.65 130.3L462.65 130.3L64.75 130.3z" /></clipPath><clipPath id="5"><path id="" clip-rule="evenodd" transform="matrix(1 0 0 1 0 0)" d="M461.15 116.3L530.55 116.3L530.55 116.3L530.55 130.3L530.55 130.3L461.15 130.3z" /></clipPath><clipPath id="6"><path id="" clip-rule="evenodd" transform="matrix(1 0 0 1 0 0)" d="M64.75 128.8L462.65 128.8L462.65 128.8L462.65 144.9501L462.65 144.9501L64.75 144.9501z" /></clipPath><clipPath id="7"><path id="" clip-rule="evenodd" transform="matrix(1 0 0 1 0 0)" d="M461.15 128.8L530.55 128.8L530.55 128.8L530.55 144.9501L530.55 144.9501L461.15 144.9501z" /></clipPath><clipPath id="8"><path id="" clip-rule="evenodd" transform="matrix(1 0 0 1 0 0)" d="M64.75 143.4501L462.65 143.4501L462.65 143.4501L462.65 159.6001L462.65 159.6001L64.75 159.6001z" /></clipPath><clipPath id="9"><path id="" clip-rule="evenodd" transform="matrix(1 0 0 1 0 0)" d="M461.15 143.4501L530.55 143.4501L530.55 143.4501L530.55 159.6001L530.55 159.6001L461.15 159.6001z" /></clipPath><clipPath id="10"><path id="" clip-rule="evenodd" transform="matrix(1 0 0 1 0 0)" d="M64.75 158.1001L462.65 158.1001L462.65 158.1001L462.65 172.1001L462.65 172.1001L64.75 172.1001z" /></clipPath><clipPath id="11"><path id="" clip-rule="evenodd" transform="matrix(1 0 0 1 0 0)" d="M461.15 158.1001L530.55 158.1001L530.55 158.1001L530.55 172.1001L530.55 172.1001L461.15 172.1001z" /></clipPath><clipPath id="12"><path id="" clip-rule="evenodd" transform="matrix(1 0 0 1 0 0)" d="M64.75 170.6001L462.65 170.6001L462.65 170.6001L462.65 184.6001L462.65 184.6001L64.75 184.6001z" /></clipPath><clipPath id="13"><path id="" clip-rule="evenodd" transform="matrix(1 0 0 1 0 0)" d="M461.15 170.6001L530.55 170.6001L530.55 170.6001L530.55 184.6001L530.55 184.6001L461.15 184.6001z" /></clipPath><clipPath id="14"><path id="" clip-rule="evenodd" transform="matrix(1 0 0 1 0 0)" d="M64.75 183.1001L462.65 183.1001L462.65 183.1001L462.65 197.1001L462.65 197.1001L64.75 197.1001z" /></clipPath><clipPath id="15"><path id="" clip-rule="evenodd" transform="matrix(1 0 0 1 0 0)" d="M461.15 183.1001L530.55 183.1001L530.55 183.1001L530.55 197.1001L530.55 197.1001L461.15 197.1001z" /></clipPath><clipPath id="16"><path id="" clip-rule="evenodd" transform="matrix(1 0 0 1 0 0)" d="M64.75 195.6001L462.65 195.6001L462.65 195.6001L462.65 209.6001L462.65 209.6001L64.75 209.6001z" /></clipPath><clipPath id="17"><path id="" clip-rule="evenodd" transform="matrix(1 0 0 1 0 0)" d="M461.15 195.6001L530.55 195.6001L530.55 195.6001L530.55 209.6001L530.55 209.6001L461.15 209.6001z" /></clipPath><clipPath id="18"><path id="" clip-rule="evenodd" transform="matrix(1 0 0 1 0 0)" d="M64.75 208.1001L462.65 208.1001L462.65 208.1001L462.65 222.1001L462.65 222.1001L64.75 222.1001z" /></clipPath><clipPath id="19"><path id="" clip-rule="evenodd" transform="matrix(1 0 0 1 0 0)" d="M461.15 208.1001L530.55 208.1001L530.55 208.1001L530.55 222.1001L530.55 222.1001L461.15 222.1001z" /></clipPath><clipPath id="20"><path id="" clip-rule="evenodd" transform="matrix(1 0 0 1 0 0)" d="M64.75 220.6001L462.65 220.6001L462.65 220.6001L462.65 234.6001L462.65 234.6001L64.75 234.6001z" /></clipPath><clipPath id="21"><path id="" clip-rule="evenodd" transform="matrix(1 0 0 1 0 0)" d="M461.15 220.6001L530.55 220.6001L530.55 220.6001L530.55 234.6001L530.55 234.6001L461.15 234.6001z" /></clipPath><clipPath id="22"><path id="" clip-rule="evenodd" transform="matrix(1 0 0 1 0 0)" d="M64.75 233.1001L462.65 233.1001L462.65 233.1001L462.65 247.1001L462.65 247.1001L64.75 247.1001z" /></clipPath><clipPath id="23"><path id="" clip-rule="evenodd" transform="matrix(1 0 0 1 0 0)" d="M461.15 233.1001L530.55 233.1001L530.55 233.1001L530.55 247.1001L530.55 247.1001L461.15 247.1001z" /></clipPath><clipPath id="24"><path id="" clip-rule="evenodd" transform="matrix(1 0 0 1 0 0)" d="M64.75 245.6001L462.65 245.6001L462.65 245.6001L462.65 259.6001L462.65 259.6001L64.75 259.6001z" /></clipPath><clipPath id="25"><path id="" clip-rule="evenodd" transform="matrix(1 0 0 1 0 0)" d="M461.15 245.6001L530.55 245.6001L530.55 245.6001L530.55 259.6001L530.55 259.6001L461.15 259.6001z" /></clipPath><clipPath id="26"><path id="" clip-rule="evenodd" transform="matrix(1 0 0 1 0 0)" d="M64.75 258.1001L462.65 258.1001L462.65 258.1001L462.65 272.1001L462.65 272.1001L64.75 272.1001z" /></clipPath><clipPath id="27"><path id="" clip-rule="evenodd" transform="matrix(1 0 0 1 0 0)" d="M461.15 258.1001L530.55 258.1001L530.55 258.1001L530.55 272.1001L530.55 272.1001L461.15 272.1001z" /></clipPath><clipPath id="28"><path id="" clip-rule="evenodd" transform="matrix(1 0 0 1 0 0)" d="M64.75 270.6001L462.65 270.6001L462.65 270.6001L462.65 284.6001L462.65 284.6001L64.75 284.6001z" /></clipPath><clipPath id="29"><path id="" clip-rule="evenodd" transform="matrix(1 0 0 1 0 0)" d="M461.15 270.6001L530.55 270.6001L530.55 270.6001L530.55 284.6001L530.55 284.6001L461.15 284.6001z" /></clipPath><clipPath id="30"><path id="" clip-rule="evenodd" transform="matrix(1 0 0 1 0 0)" d="M64.75 361.6L470.65 361.6L470.65 361.6L470.65 375.6L470.65 375.6L64.75 375.6z" /></clipPath><clipPath id="31"><path id="" clip-rule="evenodd" transform="matrix(1 0 0 1 0 0)" d="M469.15 361.6L530.55 361.6L530.55 361.6L530.55 375.6L530.55 375.6L469.15 375.6z" /></clipPath><clipPath id="32"><path id="" clip-rule="evenodd" transform="matrix(1 0 0 1 0 0)" d="M64.75 374.1L470.65 374.1L470.65 374.1L470.65 388.1L470.65 388.1L64.75 388.1z" /></clipPath><clipPath id="33"><path id="" clip-rule="evenodd" transform="matrix(1 0 0 1 0 0)" d="M469.15 374.1L530.55 374.1L530.55 374.1L530.55 388.1L530.55 388.1L469.15 388.1z" /></clipPath><clipPath id="34"><path id="" clip-rule="evenodd" transform="matrix(1 0 0 1 0 0)" d="M64.75 386.6L470.65 386.6L470.65 386.6L470.65 400.6L470.65 400.6L64.75 400.6z" /></clipPath><clipPath id="35"><path id="" clip-rule="evenodd" transform="matrix(1 0 0 1 0 0)" d="M469.15 386.6L530.55 386.6L530.55 386.6L530.55 400.6L530.55 400.6L469.15 400.6z" /></clipPath><clipPath id="36"><path id="" clip-rule="evenodd" transform="matrix(1 0 0 1 0 0)" d="M64.75 399.1L470.65 399.1L470.65 399.1L470.65 413.1L470.65 413.1L64.75 413.1z" /></clipPath><clipPath id="37"><path id="" clip-rule="evenodd" transform="matrix(1 0 0 1 0 0)" d="M469.15 399.1L530.55 399.1L530.55 399.1L530.55 413.1L530.55 413.1L469.15 413.1z" /></clipPath><clipPath id="38"><path id="" clip-rule="evenodd" transform="matrix(1 0 0 1 0 0)" d="M64.75 411.6L470.65 411.6L470.65 411.6L470.65 425.6L470.65 425.6L64.75 425.6z" /></clipPath><clipPath id="39"><path id="" clip-rule="evenodd" transform="matrix(1 0 0 1 0 0)" d="M469.15 411.6L530.55 411.6L530.55 411.6L530.55 425.6L530.55 425.6L469.15 425.6z" /></clipPath><clipPath id="40"><path id="" clip-rule="evenodd" transform="matrix(1 0 0 1 0 0)" d="M64.75 424.1L470.65 424.1L470.65 424.1L470.65 438.1L470.65 438.1L64.75 438.1z" /></clipPath><clipPath id="41"><path id="" clip-rule="evenodd" transform="matrix(1 0 0 1 0 0)" d="M469.15 424.1L530.55 424.1L530.55 424.1L530.55 438.1L530.55 438.1L469.15 438.1z" /></clipPath><clipPath id="42"><path id="" clip-rule="evenodd" transform="matrix(1 0 0 1 0 0)" d="M64.75 436.6L470.65 436.6L470.65 436.6L470.65 450.6L470.65 450.6L64.75 450.6z" /></clipPath><clipPath id="43"><path id="" clip-rule="evenodd" transform="matrix(1 0 0 1 0 0)" d="M469.15 436.6L530.55 436.6L530.55 436.6L530.55 450.6L530.55 450.6L469.15 450.6z" /></clipPath><clipPath id="44"><path id="" clip-rule="evenodd" transform="matrix(1 0 0 1 0 0)" d="M64.75 449.1L470.65 449.1L470.65 449.1L470.65 463.1L470.65 463.1L64.75 463.1z" /></clipPath><clipPath id="45"><path id="" clip-rule="evenodd" transform="matrix(1 0 0 1 0 0)" d="M469.15 449.1L530.55 449.1L530.55 449.1L530.55 463.1L530.55 463.1L469.15 463.1z" /></clipPath><clipPath id="46"><path id="" clip-rule="evenodd" transform="matrix(1 0 0 1 0 0)" d="M64.75 477.7L470.65 477.7L470.65 477.7L470.65 491.7L470.65 491.7L64.75 491.7z" /></clipPath><clipPath id="47"><path id="" clip-rule="evenodd" transform="matrix(1 0 0 1 0 0)" d="M469.15 477.7L530.55 477.7L530.55 477.7L530.55 491.7L530.55 491.7L469.15 491.7z" /></clipPath><clipPath id="48"><path id="" clip-rule="evenodd" transform="matrix(1 0 0 1 0 0)" d="M64.75 490.2L470.65 490.2L470.65 490.2L470.65 504.2L470.65 504.2L64.75 504.2z" /></clipPath><clipPath id="49"><path id="" clip-rule="evenodd" transform="matrix(1 0 0 1 0 0)" d="M469.15 490.2L530.55 490.2L530.55 490.2L530.55 504.2L530.55 504.2L469.15 504.2z" /></clipPath><clipPath id="50"><path id="" clip-rule="evenodd" transform="matrix(1 0 0 1 0 0)" d="M64.75 502.7L470.65 502.7L470.65 502.7L470.65 516.7L470.65 516.7L64.75 516.7z" /></clipPath><clipPath id="51"><path id="" clip-rule="evenodd" transform="matrix(1 0 0 1 0 0)" d="M469.15 502.7L530.55 502.7L530.55 502.7L530.55 516.7L530.55 516.7L469.15 516.7z" /></clipPath><clipPath id="52"><path id="" clip-rule="evenodd" transform="matrix(1 0 0 1 0 0)" d="M64.75 515.2L470.65 515.2L470.65 515.2L470.65 529.2L470.65 529.2L64.75 529.2z" /></clipPath><clipPath id="53"><path id="" clip-rule="evenodd" transform="matrix(1 0 0 1 0 0)" d="M469.15 515.2L530.55 515.2L530.55 515.2L530.55 529.2L530.55 529.2L469.15 529.2z" /></clipPath><clipPath id="54"><path id="" clip-rule="evenodd" transform="matrix(1 0 0 1 0 0)" d="M64.75 527.7L470.65 527.7L470.65 527.7L470.65 541.7L470.65 541.7L64.75 541.7z" /></clipPath><clipPath id="55"><path id="" clip-rule="evenodd" transform="matrix(1 0 0 1 0 0)" d="M469.15 527.7L530.55 527.7L530.55 527.7L530.55 541.7L530.55 541.7L469.15 541.7z" /></clipPath><clipPath id="56"><path id="" clip-rule="evenodd" transform="matrix(1 0 0 1 0 0)" d="M64.75 540.2L470.65 540.2L470.65 540.2L470.65 554.2L470.65 554.2L64.75 554.2z" /></clipPath><clipPath id="57"><path id="" clip-rule="evenodd" transform="matrix(1 0 0 1 0 0)" d="M469.15 540.2L530.55 540.2L530.55 540.2L530.55 554.2L530.55 554.2L469.15 554.2z" /></clipPath><clipPath id="58"><path id="" clip-rule="evenodd" transform="matrix(1 0 0 1 0 0)" d="M64.75 552.7L470.65 552.7L470.65 552.7L470.65 566.7L470.65 566.7L64.75 566.7z" /></clipPath><clipPath id="59"><path id="" clip-rule="evenodd" transform="matrix(1 0 0 1 0 0)" d="M469.15 552.7L530.55 552.7L530.55 552.7L530.55 566.7L530.55 566.7L469.15 566.7z" /></clipPath><clipPath id="60"><path id="" clip-rule="evenodd" transform="matrix(1 0 0 1 0 0)" d="M64.75 565.2L470.65 565.2L470.65 565.2L470.65 579.45L470.65 579.45L64.75 579.45z" /></clipPath><clipPath id="61"><path id="" clip-rule="evenodd" transform="matrix(1 0 0 1 0 0)" d="M469.15 565.2L530.55 565.2L530.55 565.2L530.55 579.45L530.55 579.45L469.15 579.45z" /></clipPath><clipPath id="62"><path id="" clip-rule="evenodd" transform="matrix(1 0 0 1 0 0)" d="M64.75 577.95L470.65 577.95L470.65 577.95L470.65 591.95L470.65 591.95L64.75 591.95z" /></clipPath><clipPath id="63"><path id="" clip-rule="evenodd" transform="matrix(1 0 0 1 0 0)" d="M469.15 577.95L530.55 577.95L530.55 577.95L530.55 591.95L530.55 591.95L469.15 591.95z" /></clipPath><clipPath id="64"><path id="" clip-rule="evenodd" transform="matrix(1 0 0 1 0 0)" d="M64.75 590.45L470.65 590.45L470.65 590.45L470.65 604.7L470.65 604.7L64.75 604.7z" /></clipPath><clipPath id="65"><path id="" clip-rule="evenodd" transform="matrix(1 0 0 1 0 0)" d="M469.15 590.45L530.55 590.45L530.55 590.45L530.55 604.7L530.55 604.7L469.15 604.7z" /></clipPath><clipPath id="66"><path id="" clip-rule="evenodd" transform="matrix(1 0 0 1 0 0)" d="M64.75 603.2L470.65 603.2L470.65 603.2L470.65 617.45L470.65 617.45L64.75 617.45z" /></clipPath><clipPath id="67"><path id="" clip-rule="evenodd" transform="matrix(1 0 0 1 0 0)" d="M469.15 603.2L530.55 603.2L530.55 603.2L530.55 617.45L530.55 617.45L469.15 617.45z" /></clipPath><clipPath id="68"><path id="" clip-rule="evenodd" transform="matrix(1 0 0 1 0 0)" d="M64.75 615.95L470.65 615.95L470.65 615.95L470.65 630.2L470.65 630.2L64.75 630.2z" /></clipPath><clipPath id="69"><path id="" clip-rule="evenodd" transform="matrix(1 0 0 1 0 0)" d="M469.15 615.95L530.55 615.95L530.55 615.95L530.55 630.2L530.55 630.2L469.15 630.2z" /></clipPath><clipPath id="70"><path id="" clip-rule="evenodd" transform="matrix(1 0 0 1 0 0)" d="M64.75 628.7L470.65 628.7L470.65 628.7L470.65 642.7L470.65 642.7L64.75 642.7z" /></clipPath><clipPath id="71"><path id="" clip-rule="evenodd" transform="matrix(1 0 0 1 0 0)" d="M469.15 628.7L530.55 628.7L530.55 628.7L530.55 642.7L530.55 642.7L469.15 642.7z" /></clipPath><clipPath id="72"><path id="" clip-rule="evenodd" transform="matrix(1 0 0 1 0 0)" d="M64.75 641.2L470.65 641.2L470.65 641.2L470.65 655.2L470.65 655.2L64.75 655.2z" /></clipPath><clipPath id="73"><path id="" clip-rule="evenodd" transform="matrix(1 0 0 1 0 0)" d="M469.15 641.2L530.55 641.2L530.55 641.2L530.55 655.2L530.55 655.2L469.15 655.2z" /></clipPath><clipPath id="74"><path id="" clip-rule="evenodd" transform="matrix(1 0 0 1 0 0)" d="M64.75 653.7L470.65 653.7L470.65 653.7L470.65 667.7L470.65 667.7L64.75 667.7z" /></clipPath><clipPath id="75"><path id="" clip-rule="evenodd" transform="matrix(1 0 0 1 0 0)" d="M469.15 653.7L530.55 653.7L530.55 653.7L530.55 667.7L530.55 667.7L469.15 667.7z" /></clipPath><clipPath id="76"><path id="" clip-rule="evenodd" transform="matrix(1 0 0 1 0 0)" d="M64.75 666.2L470.65 666.2L470.65 666.2L470.65 680.2L470.65 680.2L64.75 680.2z" /></clipPath><clipPath id="77"><path id="" clip-rule="evenodd" transform="matrix(1 0 0 1 0 0)" d="M469.15 666.2L530.55 666.2L530.55 666.2L530.55 680.2L530.55 680.2L469.15 680.2z" /></clipPath><clipPath id="78"><path id="" clip-rule="evenodd" transform="matrix(1 0 0 1 0 0)" d="M64.75 678.7L470.65 678.7L470.65 678.7L470.65 692.7L470.65 692.7L64.75 692.7z" /></clipPath><clipPath id="79"><path id="" clip-rule="evenodd" transform="matrix(1 0 0 1 0 0)" d="M469.15 678.7L530.55 678.7L530.55 678.7L530.55 692.7L530.55 692.7L469.15 692.7z" /></clipPath><clipPath id="80"><path id="" clip-rule="evenodd" transform="matrix(1 0 0 1 0 0)" d="M64.75 691.2L470.65 691.2L470.65 691.2L470.65 705.2L470.65 705.2L64.75 705.2z" /></clipPath><clipPath id="81"><path id="" clip-rule="evenodd" transform="matrix(1 0 0 1 0 0)" d="M469.15 691.2L530.55 691.2L530.55 691.2L530.55 705.2L530.55 705.2L469.15 705.2z" /></clipPath></defs><g transform="matrix(1.333333 0 0 1.333333 0 0)"><g clip-path="url(#1)"><g clip-path="url(#2)"><path id="13" transform="matrix(1 0 0 -1 0 841)" d="M69.45 780.718L525.85 780.718" stroke="#000000" stroke-width="0.5" fill="none" /></g><g clip-path="url(#3)"></g><g clip-path="url(#4)"></g><g clip-path="url(#5)"></g><g clip-path="url(#6)"></g><g clip-path="url(#7)"></g><g clip-path="url(#8)"></g><g clip-path="url(#9)"></g><g clip-path="url(#10)"></g><g clip-path="url(#11)"></g><g clip-path="url(#12)"></g><g clip-path="url(#13)"></g><g clip-path="url(#14)"></g><g clip-path="url(#15)"></g><g clip-path="url(#16)"></g><g clip-path="url(#17)"></g><g clip-path="url(#18)"></g><g clip-path="url(#19)"></g><g clip-path="url(#20)"></g><g clip-path="url(#21)"></g><g clip-path="url(#22)"></g><g clip-path="url(#23)"></g><g clip-path="url(#24)"></g><g clip-path="url(#25)"></g><g clip-path="url(#26)"></g><g clip-path="url(#27)"></g><g clip-path="url(#28)"></g><g clip-path="url(#29)"></g><path id="364" transform="matrix(1 0 0 -1 0 841)" d="M65.5 723.7L65.5 557.4" stroke="#000000" stroke-width="0.5" fill="none" /><path id="365" transform="matrix(1 0 0 -1 0 841)" d="M461.9 723.7L461.9 711.7" stroke="#000000" stroke-width="0.5" fill="none" /><path id="366" transform="matrix(1 0 0 -1 0 841)" d="M461.9 711.2L461.9 697.0499" stroke="#000000" stroke-width="0.5" fill="none" /><path id="367" transform="matrix(1 0 0 -1 0 841)" d="M461.9 696.5499L461.9 682.4" stroke="#000000" stroke-width="0.5" fill="none" /><path id="368" transform="matrix(1 0 0 -1 0 841)" d="M461.9 681.9L461.9 669.9" stroke="#000000" stroke-width="0.5" fill="none" /><path id="369" transform="matrix(1 0 0 -1 0 841)" d="M461.9 669.4L461.9 657.4" stroke="#000000" stroke-width="0.5" fill="none" /><path id="370" transform="matrix(1 0 0 -1 0 841)" d="M461.9 656.9L461.9 644.9" stroke="#000000" stroke-width="0.5" fill="none" /><path id="371" transform="matrix(1 0 0 -1 0 841)" d="M461.9 644.4L461.9 632.4" stroke="#000000" stroke-width="0.5" fill="none" /><path id="372" transform="matrix(1 0 0 -1 0 841)" d="M461.9 631.9L461.9 619.9" stroke="#000000" stroke-width="0.5" fill="none" /><path id="373" transform="matrix(1 0 0 -1 0 841)" d="M461.9 619.4L461.9 607.4" stroke="#000000" stroke-width="0.5" fill="none" /><path id="374" transform="matrix(1 0 0 -1 0 841)" d="M461.9 606.9L461.9 594.9" stroke="#000000" stroke-width="0.5" fill="none" /><path id="375" transform="matrix(1 0 0 -1 0 841)" d="M461.9 594.4L461.9 582.4" stroke="#000000" stroke-width="0.5" fill="none" /><path id="376" transform="matrix(1 0 0 -1 0 841)" d="M461.9 581.9L461.9 569.9" stroke="#000000" stroke-width="0.5" fill="none" /><path id="377" transform="matrix(1 0 0 -1 0 841)" d="M461.9 569.4L461.9 557.4" stroke="#000000" stroke-width="0.5" fill="none" /><path id="378" transform="matrix(1 0 0 -1 0 841)" d="M529.8 723.7L529.8 557.4" stroke="#000000" stroke-width="0.5" fill="none" /><path id="379" transform="matrix(1 0 0 -1 0 841)" d="M65.25 723.95L530.05 723.95" stroke="#000000" stroke-width="0.5" fill="none" /><path id="380" transform="matrix(1 0 0 -1 0 841)" d="M65.75 711.45L529.55 711.45" stroke="#000000" stroke-width="0.5" fill="none" /><path id="381" transform="matrix(1 0 0 -1 0 841)" d="M65.75 696.7999L529.55 696.7999" stroke="#000000" stroke-width="0.5" fill="none" /><path id="382" transform="matrix(1 0 0 -1 0 841)" d="M65.75 682.15L529.55 682.15" stroke="#000000" stroke-width="0.5" fill="none" /><path id="383" transform="matrix(1 0 0 -1 0 841)" d="M65.75 669.65L529.55 669.65" stroke="#000000" stroke-width="0.5" fill="none" /><path id="384" transform="matrix(1 0 0 -1 0 841)" d="M65.75 657.15L529.55 657.15" stroke="#000000" stroke-width="0.5" fill="none" /><path id="385" transform="matrix(1 0 0 -1 0 841)" d="M65.75 644.65L529.55 644.65" stroke="#000000" stroke-width="0.5" fill="none" /><path id="386" transform="matrix(1 0 0 -1 0 841)" d="M65.75 632.15L529.55 632.15" stroke="#000000" stroke-width="0.5" fill="none" /><path id="387" transform="matrix(1 0 0 -1 0 841)" d="M65.75 619.65L529.55 619.65" stroke="#000000" stroke-width="0.5" fill="none" /><path id="388" transform="matrix(1 0 0 -1 0 841)" d="M65.75 607.15L529.55 607.15" stroke="#000000" stroke-width="0.5" fill="none" /><path id="389" transform="matrix(1 0 0 -1 0 841)" d="M65.75 594.65L529.55 594.65" stroke="#000000" stroke-width="0.5" fill="none" /><path id="390" transform="matrix(1 0 0 -1 0 841)" d="M65.75 582.15L529.55 582.15" stroke="#000000" stroke-width="0.5" fill="none" /><path id="391" transform="matrix(1 0 0 -1 0 841)" d="M65.75 569.65L529.55 569.65" stroke="#000000" stroke-width="0.5" fill="none" /><path id="392" transform="matrix(1 0 0 -1 0 841)" d="M65.25 557.15L530.05 557.15" stroke="#000000" stroke-width="0.5" fill="none" /><g clip-path="url(#30)"></g><g clip-path="url(#31)"></g><g clip-path="url(#32)"></g><g clip-path="url(#33)"></g><g clip-path="url(#34)"></g><g clip-path="url(#35)"></g><g clip-path="url(#36)"></g><g clip-path="url(#37)"></g><g clip-path="url(#38)"></g><g clip-path="url(#39)"></g><g clip-path="url(#40)"></g><g clip-path="url(#41)"></g><g clip-path="url(#42)"></g><g clip-path="url(#43)"></g><g clip-path="url(#44)"></g><g clip-path="url(#45)"></g><path id="807" transform="matrix(1 0 0 -1 0 841)" d="M65.5 478.4L65.5 378.9" stroke="#000000" stroke-width="0.5" fill="none" /><path id="808" transform="matrix(1 0 0 -1 0 841)" d="M469.9 478.4L469.9 466.4" stroke="#000000" stroke-width="0.5" fill="none" /><path id="809" transform="matrix(1 0 0 -1 0 841)" d="M469.9 465.9L469.9 453.9" stroke="#000000" stroke-width="0.5" fill="none" /><path id="810" transform="matrix(1 0 0 -1 0 841)" d="M469.9 453.4L469.9 441.4" stroke="#000000" stroke-width="0.5" fill="none" /><path id="811" transform="matrix(1 0 0 -1 0 841)" d="M469.9 440.9L469.9 428.9" stroke="#000000" stroke-width="0.5" fill="none" /><path id="812" transform="matrix(1 0 0 -1 0 841)" d="M469.9 428.4L469.9 416.4" stroke="#000000" stroke-width="0.5" fill="none" /><path id="813" transform="matrix(1 0 0 -1 0 841)" d="M469.9 415.9L469.9 403.9" stroke="#000000" stroke-width="0.5" fill="none" /><path id="814" transform="matrix(1 0 0 -1 0 841)" d="M469.9 403.4L469.9 391.4" stroke="#000000" stroke-width="0.5" fill="none" /><path id="815" transform="matrix(1 0 0 -1 0 841)" d="M469.9 390.9L469.9 378.9" stroke="#000000" stroke-width="0.5" fill="none" /><path id="816" transform="matrix(1 0 0 -1 0 841)" d="M529.8 478.4L529.8 378.9" stroke="#000000" stroke-width="0.5" fill="none" /><path id="817" transform="matrix(1 0 0 -1 0 841)" d="M65.25 478.65L530.05 478.65" stroke="#000000" stroke-width="0.5" fill="none" /><path id="818" transform="matrix(1 0 0 -1 0 841)" d="M65.75 466.15L529.55 466.15" stroke="#000000" stroke-width="0.5" fill="none" /><path id="819" transform="matrix(1 0 0 -1 0 841)" d="M65.75 453.65L529.55 453.65" stroke="#000000" stroke-width="0.5" fill="none" /><path id="820" transform="matrix(1 0 0 -1 0 841)" d="M65.75 441.15L529.55 441.15" stroke="#000000" stroke-width="0.5" fill="none" /><path id="821" transform="matrix(1 0 0 -1 0 841)" d="M65.75 428.65L529.55 428.65" stroke="#000000" stroke-width="0.5" fill="none" /><path id="822" transform="matrix(1 0 0 -1 0 841)" d="M65.75 416.15L529.55 416.15" stroke="#000000" stroke-width="0.5" fill="none" /><path id="823" transform="matrix(1 0 0 -1 0 841)" d="M65.75 403.65L529.55 403.65" stroke="#000000" stroke-width="0.5" fill="none" /><path id="824" transform="matrix(1 0 0 -1 0 841)" d="M65.75 391.15L529.55 391.15" stroke="#000000" stroke-width="0.5" fill="none" /><path id="825" transform="matrix(1 0 0 -1 0 841)" d="M65.25 378.65L530.05 378.65" stroke="#000000" stroke-width="0.5" fill="none" /><g clip-path="url(#46)"></g><g clip-path="url(#47)"></g><g clip-path="url(#48)"></g><g clip-path="url(#49)"></g><g clip-path="url(#50)"></g><g clip-path="url(#51)"></g><g clip-path="url(#52)"></g><g clip-path="url(#53)"></g><g clip-path="url(#54)"></g><g clip-path="url(#55)"></g><g clip-path="url(#56)"></g><g clip-path="url(#57)"></g><g clip-path="url(#58)"></g><g clip-path="url(#59)"></g><g clip-path="url(#60)"></g><g clip-path="url(#61)"></g><g clip-path="url(#62)"></g><g clip-path="url(#63)"></g><g clip-path="url(#64)"></g><g clip-path="url(#65)"></g><g clip-path="url(#66)"></g><g clip-path="url(#67)"></g><g clip-path="url(#68)"></g><g clip-path="url(#69)"></g><g clip-path="url(#70)"></g><g clip-path="url(#71)"></g><g clip-path="url(#72)"></g><g clip-path="url(#73)"></g><g clip-path="url(#74)"></g><g clip-path="url(#75)"></g><g clip-path="url(#76)"></g><g clip-path="url(#77)"></g><g clip-path="url(#78)"></g><g clip-path="url(#79)"></g><g clip-path="url(#80)"></g><g clip-path="url(#81)"></g><path id="1150" transform="matrix(1 0 0 -1 0 841)" d="M65.5 362.3L65.5 136.8" stroke="#000000" stroke-width="0.5" fill="none" /><path id="1151" transform="matrix(1 0 0 -1 0 841)" d="M469.9 362.3L469.9 350.3" stroke="#000000" stroke-width="0.5" fill="none" /><path id="1152" transform="matrix(1 0 0 -1 0 841)" d="M469.9 349.8L469.9 337.8" stroke="#000000" stroke-width="0.5" fill="none" /><path id="1153" transform="matrix(1 0 0 -1 0 841)" d="M469.9 337.3L469.9 325.3" stroke="#000000" stroke-width="0.5" fill="none" /><path id="1154" transform="matrix(1 0 0 -1 0 841)" d="M469.9 324.8L469.9 312.8" stroke="#000000" stroke-width="0.5" fill="none" /><path id="1155" transform="matrix(1 0 0 -1 0 841)" d="M469.9 312.3L469.9 300.3" stroke="#000000" stroke-width="0.5" fill="none" /><path id="1156" transform="matrix(1 0 0 -1 0 841)" d="M469.9 299.8L469.9 287.8" stroke="#000000" stroke-width="0.5" fill="none" /><path id="1157" transform="matrix(1 0 0 -1 0 841)" d="M469.9 287.3L469.9 275.3" stroke="#000000" stroke-width="0.5" fill="none" /><path id="1158" transform="matrix(1 0 0 -1 0 841)" d="M469.9 274.8L469.9 262.55" stroke="#000000" stroke-width="0.5" fill="none" /><path id="1159" transform="matrix(1 0 0 -1 0 841)" d="M469.9 262.05L469.9 250.05" stroke="#000000" stroke-width="0.5" fill="none" /><path id="1160" transform="matrix(1 0 0 -1 0 841)" d="M469.9 249.55L469.9 237.3" stroke="#000000" stroke-width="0.5" fill="none" /><path id="1161" transform="matrix(1 0 0 -1 0 841)" d="M469.9 236.8L469.9 224.55" stroke="#000000" stroke-width="0.5" fill="none" /><path id="1162" transform="matrix(1 0 0 -1 0 841)" d="M469.9 224.05L469.9 211.8" stroke="#000000" stroke-width="0.5" fill="none" /><path id="1163" transform="matrix(1 0 0 -1 0 841)" d="M469.9 211.3L469.9 199.3" stroke="#000000" stroke-width="0.5" fill="none" /><path id="1164" transform="matrix(1 0 0 -1 0 841)" d="M469.9 198.8L469.9 186.8" stroke="#000000" stroke-width="0.5" fill="none" /><path id="1165" transform="matrix(1 0 0 -1 0 841)" d="M469.9 186.3L469.9 174.3" stroke="#000000" stroke-width="0.5" fill="none" /><path id="1166" transform="matrix(1 0 0 -1 0 841)" d="M469.9 173.8L469.9 161.8" stroke="#000000" stroke-width="0.5" fill="none" /><path id="1167" transform="matrix(1 0 0 -1 0 841)" d="M469.9 161.3L469.9 149.3" stroke="#000000" stroke-width="0.5" fill="none" /><path id="1168" transform="matrix(1 0 0 -1 0 841)" d="M469.9 148.8L469.9 136.8" stroke="#000000" stroke-width="0.5" fill="none" /><path id="1169" transform="matrix(1 0 0 -1 0 841)" d="M529.8 362.3L529.8 136.8" stroke="#000000" stroke-width="0.5" fill="none" /><path id="1170" transform="matrix(1 0 0 -1 0 841)" d="M65.25 362.55L530.05 362.55" stroke="#000000" stroke-width="0.5" fill="none" /><path id="1171" transform="matrix(1 0 0 -1 0 841)" d="M65.75 350.05L529.55 350.05" stroke="#000000" stroke-width="0.5" fill="none" /><path id="1172" transform="matrix(1 0 0 -1 0 841)" d="M65.75 337.55L529.55 337.55" stroke="#000000" stroke-width="0.5" fill="none" /><path id="1173" transform="matrix(1 0 0 -1 0 841)" d="M65.75 325.05L529.55 325.05" stroke="#000000" stroke-width="0.5" fill="none" /><path id="1174" transform="matrix(1 0 0 -1 0 841)" d="M65.75 312.55L529.55 312.55" stroke="#000000" stroke-width="0.5" fill="none" /><path id="1175" transform="matrix(1 0 0 -1 0 841)" d="M65.75 300.05L529.55 300.05" stroke="#000000" stroke-width="0.5" fill="none" /><path id="1176" transform="matrix(1 0 0 -1 0 841)" d="M65.75 287.55L529.55 287.55" stroke="#000000" stroke-width="0.5" fill="none" /><path id="1177" transform="matrix(1 0 0 -1 0 841)" d="M65.75 275.05L529.55 275.05" stroke="#000000" stroke-width="0.5" fill="none" /><path id="1178" transform="matrix(1 0 0 -1 0 841)" d="M65.75 262.3L529.55 262.3" stroke="#000000" stroke-width="0.5" fill="none" /><path id="1179" transform="matrix(1 0 0 -1 0 841)" d="M65.75 249.8L529.55 249.8" stroke="#000000" stroke-width="0.5" fill="none" /><path id="1180" transform="matrix(1 0 0 -1 0 841)" d="M65.75 237.05L529.55 237.05" stroke="#000000" stroke-width="0.5" fill="none" /><path id="1181" transform="matrix(1 0 0 -1 0 841)" d="M65.75 224.3L529.55 224.3" stroke="#000000" stroke-width="0.5" fill="none" /><path id="1182" transform="matrix(1 0 0 -1 0 841)" d="M65.75 211.55L529.55 211.55" stroke="#000000" stroke-width="0.5" fill="none" /><path id="1183" transform="matrix(1 0 0 -1 0 841)" d="M65.75 199.05L529.55 199.05" stroke="#000000" stroke-width="0.5" fill="none" /><path id="1184" transform="matrix(1 0 0 -1 0 841)" d="M65.75 186.55L529.55 186.55" stroke="#000000" stroke-width="0.5" fill="none" /><path id="1185" transform="matrix(1 0 0 -1 0 841)" d="M65.75 174.05L529.55 174.05" stroke="#000000" stroke-width="0.5" fill="none" /><path id="1186" transform="matrix(1 0 0 -1 0 841)" d="M65.75 161.55L529.55 161.55" stroke="#000000" stroke-width="0.5" fill="none" /><path id="1187" transform="matrix(1 0 0 -1 0 841)" d="M65.75 149.05L529.55 149.05" stroke="#000000" stroke-width="0.5" fill="none" /><path id="1188" transform="matrix(1 0 0 -1 0 841)" d="M65.25 136.55L530.05 136.55" stroke="#000000" stroke-width="0.5" fill="none" /></g></g></svg>