<svg xmlns="http://www.w3.org/2000/svg" xmlns:xlink="http://www.w3.org/1999/xlink" id="body_13" preserveAspectRatio="xMinYMin meet" viewBox="0 0 793 1121"><defs><clipPath id="1"><path id="" clip-rule="evenodd" transform="matrix(1 0 0 1 0 0)" d="M0 841L0 -0.9000244L0 -0.9000244L595.3 -0.9000244L595.3 -0.9000244L595.3 841L595.3 841L0 841z" /></clipPath><clipPath id="2"><path id="" clip-rule="evenodd" transform="matrix(1 0 0 1 0 0)" d="M0 41.59998L595.3 41.59998L595.3 41.59998L595.3 60.53198L595.3 60.53198L0 60.53198z" /></clipPath><clipPath id="3"><path id="" clip-rule="evenodd" transform="matrix(1 0 0 1 0 0)" d="M0 781.051L595.3 781.051L595.3 781.051L595.3 791.4L595.3 791.4L0 791.4z" /></clipPath><clipPath id="4"><path id="" clip-rule="evenodd" transform="matrix(1 0 0 1 0 0)" d="M64.75 131.9L472.15 131.9L472.15 131.9L472.15 145.9L472.15 145.9L64.75 145.9z" /></clipPath><clipPath id="5"><path id="" clip-rule="evenodd" transform="matrix(1 0 0 1 0 0)" d="M470.65 131.9L530.55 131.9L530.55 131.9L530.55 145.9L530.55 145.9L470.65 145.9z" /></clipPath><clipPath id="6"><path id="" clip-rule="evenodd" transform="matrix(1 0 0 1 0 0)" d="M64.75 191.7L470 191.7L470 191.7L470 205.7L470 205.7L64.75 205.7z" /></clipPath><clipPath id="7"><path id="" clip-rule="evenodd" transform="matrix(1 0 0 1 0 0)" d="M468.25 191.7L530.55 191.7L530.55 191.7L530.55 205.7L530.55 205.7L468.25 205.7z" /></clipPath><clipPath id="8"><path id="" clip-rule="evenodd" transform="matrix(1 0 0 1 0 0)" d="M64.75 204.2L470 204.2L470 204.2L470 218.2L470 218.2L64.75 218.2z" /></clipPath><clipPath id="9"><path id="" clip-rule="evenodd" transform="matrix(1 0 0 1 0 0)" d="M468.25 204.2L530.55 204.2L530.55 204.2L530.55 218.2L530.55 218.2L468.25 218.2z" /></clipPath><clipPath id="10"><path id="" clip-rule="evenodd" transform="matrix(1 0 0 1 0 0)" d="M64.75 216.7L470 216.7L470 216.7L470 230.7L470 230.7L64.75 230.7z" /></clipPath><clipPath id="11"><path id="" clip-rule="evenodd" transform="matrix(1 0 0 1 0 0)" d="M468.25 216.7L530.55 216.7L530.55 216.7L530.55 230.7L530.55 230.7L468.25 230.7z" /></clipPath><clipPath id="12"><path id="" clip-rule="evenodd" transform="matrix(1 0 0 1 0 0)" d="M64.75 229.2L470 229.2L470 229.2L470 243.2L470 243.2L64.75 243.2z" /></clipPath><clipPath id="13"><path id="" clip-rule="evenodd" transform="matrix(1 0 0 1 0 0)" d="M468.25 229.2L530.55 229.2L530.55 229.2L530.55 243.2L530.55 243.2L468.25 243.2z" /></clipPath><clipPath id="14"><path id="" clip-rule="evenodd" transform="matrix(1 0 0 1 0 0)" d="M64.75 241.2L470 241.2L470 241.2L470 255.7L470 255.7L64.75 255.7z" /></clipPath><clipPath id="15"><path id="" clip-rule="evenodd" transform="matrix(1 0 0 1 0 0)" d="M468.25 241.2L530.55 241.2L530.55 241.2L530.55 255.7L530.55 255.7L468.25 255.7z" /></clipPath><clipPath id="16"><path id="" clip-rule="evenodd" transform="matrix(1 0 0 1 0 0)" d="M64.75 253.7L470 253.7L470 253.7L470 268.2L470 268.2L64.75 268.2z" /></clipPath><clipPath id="17"><path id="" clip-rule="evenodd" transform="matrix(1 0 0 1 0 0)" d="M468.25 253.7L530.55 253.7L530.55 253.7L530.55 268.2L530.55 268.2L468.25 268.2z" /></clipPath><clipPath id="18"><path id="" clip-rule="evenodd" transform="matrix(1 0 0 1 0 0)" d="M64.75 266.2L470 266.2L470 266.2L470 280.7L470 280.7L64.75 280.7z" /></clipPath><clipPath id="19"><path id="" clip-rule="evenodd" transform="matrix(1 0 0 1 0 0)" d="M468.25 266.2L530.55 266.2L530.55 266.2L530.55 280.7L530.55 280.7L468.25 280.7z" /></clipPath><clipPath id="20"><path id="" clip-rule="evenodd" transform="matrix(1 0 0 1 0 0)" d="M64.75 278.7L470 278.7L470 278.7L470 293.2L470 293.2L64.75 293.2z" /></clipPath><clipPath id="21"><path id="" clip-rule="evenodd" transform="matrix(1 0 0 1 0 0)" d="M468.25 278.7L530.55 278.7L530.55 278.7L530.55 293.2L530.55 293.2L468.25 293.2z" /></clipPath><clipPath id="22"><path id="" clip-rule="evenodd" transform="matrix(1 0 0 1 0 0)" d="M64.75 291.2L470 291.2L470 291.2L470 305.7L470 305.7L64.75 305.7z" /></clipPath><clipPath id="23"><path id="" clip-rule="evenodd" transform="matrix(1 0 0 1 0 0)" d="M468.25 291.2L530.55 291.2L530.55 291.2L530.55 305.7L530.55 305.7L468.25 305.7z" /></clipPath><clipPath id="24"><path id="" clip-rule="evenodd" transform="matrix(1 0 0 1 0 0)" d="M64.75 303.7L470 303.7L470 303.7L470 318.2L470 318.2L64.75 318.2z" /></clipPath><clipPath id="25"><path id="" clip-rule="evenodd" transform="matrix(1 0 0 1 0 0)" d="M468.25 303.7L530.55 303.7L530.55 303.7L530.55 318.2L530.55 318.2L468.25 318.2z" /></clipPath><clipPath id="26"><path id="" clip-rule="evenodd" transform="matrix(1 0 0 1 0 0)" d="M64.75 316.2L470 316.2L470 316.2L470 330.7L470 330.7L64.75 330.7z" /></clipPath><clipPath id="27"><path id="" clip-rule="evenodd" transform="matrix(1 0 0 1 0 0)" d="M468.25 316.2L530.55 316.2L530.55 316.2L530.55 330.7L530.55 330.7L468.25 330.7z" /></clipPath><clipPath id="28"><path id="" clip-rule="evenodd" transform="matrix(1 0 0 1 0 0)" d="M64.75 345.3L472.25 345.3L472.25 345.3L472.25 359.3L472.25 359.3L64.75 359.3z" /></clipPath><clipPath id="29"><path id="" clip-rule="evenodd" transform="matrix(1 0 0 1 0 0)" d="M470.75 345.3L530.55 345.3L530.55 345.3L530.55 359.3L530.55 359.3L470.75 359.3z" /></clipPath><clipPath id="30"><path id="" clip-rule="evenodd" transform="matrix(1 0 0 1 0 0)" d="M64.75 357.8L472.25 357.8L472.25 357.8L472.25 371.8L472.25 371.8L64.75 371.8z" /></clipPath><clipPath id="31"><path id="" clip-rule="evenodd" transform="matrix(1 0 0 1 0 0)" d="M470.75 357.8L530.55 357.8L530.55 357.8L530.55 371.8L530.55 371.8L470.75 371.8z" /></clipPath><clipPath id="32"><path id="" clip-rule="evenodd" transform="matrix(1 0 0 1 0 0)" d="M64.75 402L472.25 402L472.25 402L472.25 416L472.25 416L64.75 416z" /></clipPath><clipPath id="33"><path id="" clip-rule="evenodd" transform="matrix(1 0 0 1 0 0)" d="M470.75 402L530.55 402L530.55 402L530.55 416L530.55 416L470.75 416z" /></clipPath><clipPath id="34"><path id="" clip-rule="evenodd" transform="matrix(1 0 0 1 0 0)" d="M64.75 414.5L472.25 414.5L472.25 414.5L472.25 428.5L472.25 428.5L64.75 428.5z" /></clipPath><clipPath id="35"><path id="" clip-rule="evenodd" transform="matrix(1 0 0 1 0 0)" d="M470.75 414.5L530.55 414.5L530.55 414.5L530.55 428.5L530.55 428.5L470.75 428.5z" /></clipPath><clipPath id="36"><path id="" clip-rule="evenodd" transform="matrix(1 0 0 1 0 0)" d="M64.75 427L472.25 427L472.25 427L472.25 441L472.25 441L64.75 441z" /></clipPath><clipPath id="37"><path id="" clip-rule="evenodd" transform="matrix(1 0 0 1 0 0)" d="M470.75 427L530.55 427L530.55 427L530.55 441L530.55 441L470.75 441z" /></clipPath><clipPath id="38"><path id="" clip-rule="evenodd" transform="matrix(1 0 0 1 0 0)" d="M64.75 439.5L472.25 439.5L472.25 439.5L472.25 453.5L472.25 453.5L64.75 453.5z" /></clipPath><clipPath id="39"><path id="" clip-rule="evenodd" transform="matrix(1 0 0 1 0 0)" d="M470.75 439.5L530.55 439.5L530.55 439.5L530.55 453.5L530.55 453.5L470.75 453.5z" /></clipPath><clipPath id="40"><path id="" clip-rule="evenodd" transform="matrix(1 0 0 1 0 0)" d="M64.75 452L472.25 452L472.25 452L472.25 466L472.25 466L64.75 466z" /></clipPath><clipPath id="41"><path id="" clip-rule="evenodd" transform="matrix(1 0 0 1 0 0)" d="M470.75 452L530.55 452L530.55 452L530.55 466L530.55 466L470.75 466z" /></clipPath><clipPath id="42"><path id="" clip-rule="evenodd" transform="matrix(1 0 0 1 0 0)" d="M64.75 480.6L472.25 480.6L472.25 480.6L472.25 494.6L472.25 494.6L64.75 494.6z" /></clipPath><clipPath id="43"><path id="" clip-rule="evenodd" transform="matrix(1 0 0 1 0 0)" d="M470.75 480.6L530.55 480.6L530.55 480.6L530.55 494.6L530.55 494.6L470.75 494.6z" /></clipPath><clipPath id="44"><path id="" clip-rule="evenodd" transform="matrix(1 0 0 1 0 0)" d="M64.75 493.1L472.25 493.1L472.25 493.1L472.25 507.1L472.25 507.1L64.75 507.1z" /></clipPath><clipPath id="45"><path id="" clip-rule="evenodd" transform="matrix(1 0 0 1 0 0)" d="M470.75 493.1L530.55 493.1L530.55 493.1L530.55 507.1L530.55 507.1L470.75 507.1z" /></clipPath><clipPath id="46"><path id="" clip-rule="evenodd" transform="matrix(1 0 0 1 0 0)" d="M64.75 505.6L472.25 505.6L472.25 505.6L472.25 519.6L472.25 519.6L64.75 519.6z" /></clipPath><clipPath id="47"><path id="" clip-rule="evenodd" transform="matrix(1 0 0 1 0 0)" d="M470.75 505.6L530.55 505.6L530.55 505.6L530.55 519.6L530.55 519.6L470.75 519.6z" /></clipPath><clipPath id="48"><path id="" clip-rule="evenodd" transform="matrix(1 0 0 1 0 0)" d="M64.75 549.8L472.25 549.8L472.25 549.8L472.25 565.45L472.25 565.45L64.75 565.45z" /></clipPath><clipPath id="49"><path id="" clip-rule="evenodd" transform="matrix(1 0 0 1 0 0)" d="M470.75 549.8L530.55 549.8L530.55 549.8L530.55 565.45L530.55 565.45L470.75 565.45z" /></clipPath><clipPath id="50"><path id="" clip-rule="evenodd" transform="matrix(1 0 0 1 0 0)" d="M64.75 563.95L472.25 563.95L472.25 563.95L472.25 577.95L472.25 577.95L64.75 577.95z" /></clipPath><clipPath id="51"><path id="" clip-rule="evenodd" transform="matrix(1 0 0 1 0 0)" d="M470.75 563.95L530.55 563.95L530.55 563.95L530.55 577.95L530.55 577.95L470.75 577.95z" /></clipPath><clipPath id="52"><path id="" clip-rule="evenodd" transform="matrix(1 0 0 1 0 0)" d="M64.75 576.45L472.25 576.45L472.25 576.45L472.25 590.45L472.25 590.45L64.75 590.45z" /></clipPath><clipPath id="53"><path id="" clip-rule="evenodd" transform="matrix(1 0 0 1 0 0)" d="M470.75 576.45L530.55 576.45L530.55 576.45L530.55 590.45L530.55 590.45L470.75 590.45z" /></clipPath><clipPath id="54"><path id="" clip-rule="evenodd" transform="matrix(1 0 0 1 0 0)" d="M64.75 588.95L472.25 588.95L472.25 588.95L472.25 602.95L472.25 602.95L64.75 602.95z" /></clipPath><clipPath id="55"><path id="" clip-rule="evenodd" transform="matrix(1 0 0 1 0 0)" d="M470.75 588.95L530.55 588.95L530.55 588.95L530.55 602.95L530.55 602.95L470.75 602.95z" /></clipPath><clipPath id="56"><path id="" clip-rule="evenodd" transform="matrix(1 0 0 1 0 0)" d="M64.75 601.45L472.25 601.45L472.25 601.45L472.25 615.45L472.25 615.45L64.75 615.45z" /></clipPath><clipPath id="57"><path id="" clip-rule="evenodd" transform="matrix(1 0 0 1 0 0)" d="M470.75 601.45L530.55 601.45L530.55 601.45L530.55 615.45L530.55 615.45L470.75 615.45z" /></clipPath><clipPath id="58"><path id="" clip-rule="evenodd" transform="matrix(1 0 0 1 0 0)" d="M64.75 613.95L472.25 613.95L472.25 613.95L472.25 627.95L472.25 627.95L64.75 627.95z" /></clipPath><clipPath id="59"><path id="" clip-rule="evenodd" transform="matrix(1 0 0 1 0 0)" d="M470.75 613.95L530.55 613.95L530.55 613.95L530.55 627.95L530.55 627.95L470.75 627.95z" /></clipPath><clipPath id="60"><path id="" clip-rule="evenodd" transform="matrix(1 0 0 1 0 0)" d="M64.75 626.45L472.25 626.45L472.25 626.45L472.25 640.45L472.25 640.45L64.75 640.45z" /></clipPath><clipPath id="61"><path id="" clip-rule="evenodd" transform="matrix(1 0 0 1 0 0)" d="M470.75 626.45L530.55 626.45L530.55 626.45L530.55 640.45L530.55 640.45L470.75 640.45z" /></clipPath><clipPath id="62"><path id="" clip-rule="evenodd" transform="matrix(1 0 0 1 0 0)" d="M64.75 638.95L472.25 638.95L472.25 638.95L472.25 652.95L472.25 652.95L64.75 652.95z" /></clipPath><clipPath id="63"><path id="" clip-rule="evenodd" transform="matrix(1 0 0 1 0 0)" d="M470.75 638.95L530.55 638.95L530.55 638.95L530.55 652.95L530.55 652.95L470.75 652.95z" /></clipPath><clipPath id="64"><path id="" clip-rule="evenodd" transform="matrix(1 0 0 1 0 0)" d="M64.75 651.45L472.25 651.45L472.25 651.45L472.25 665.45L472.25 665.45L64.75 665.45z" /></clipPath><clipPath id="65"><path id="" clip-rule="evenodd" transform="matrix(1 0 0 1 0 0)" d="M470.75 651.45L530.55 651.45L530.55 651.45L530.55 665.45L530.55 665.45L470.75 665.45z" /></clipPath><clipPath id="66"><path id="" clip-rule="evenodd" transform="matrix(1 0 0 1 0 0)" d="M64.75 663.95L472.25 663.95L472.25 663.95L472.25 677.95L472.25 677.95L64.75 677.95z" /></clipPath><clipPath id="67"><path id="" clip-rule="evenodd" transform="matrix(1 0 0 1 0 0)" d="M470.75 663.95L530.55 663.95L530.55 663.95L530.55 677.95L530.55 677.95L470.75 677.95z" /></clipPath><clipPath id="68"><path id="" clip-rule="evenodd" transform="matrix(1 0 0 1 0 0)" d="M64.75 676.45L472.25 676.45L472.25 676.45L472.25 690.45L472.25 690.45L64.75 690.45z" /></clipPath><clipPath id="69"><path id="" clip-rule="evenodd" transform="matrix(1 0 0 1 0 0)" d="M470.75 676.45L530.55 676.45L530.55 676.45L530.55 690.45L530.55 690.45L470.75 690.45z" /></clipPath><clipPath id="70"><path id="" clip-rule="evenodd" transform="matrix(1 0 0 1 0 0)" d="M64.75 688.95L472.25 688.95L472.25 688.95L472.25 702.95L472.25 702.95L64.75 702.95z" /></clipPath><clipPath id="71"><path id="" clip-rule="evenodd" transform="matrix(1 0 0 1 0 0)" d="M470.75 688.95L530.55 688.95L530.55 688.95L530.55 702.95L530.55 702.95L470.75 702.95z" /></clipPath><clipPath id="72"><path id="" clip-rule="evenodd" transform="matrix(1 0 0 1 0 0)" d="M64.75 701.45L472.25 701.45L472.25 701.45L472.25 715.45L472.25 715.45L64.75 715.45z" /></clipPath><clipPath id="73"><path id="" clip-rule="evenodd" transform="matrix(1 0 0 1 0 0)" d="M470.75 701.45L530.55 701.45L530.55 701.45L530.55 715.45L530.55 715.45L470.75 715.45z" /></clipPath><clipPath id="74"><path id="" clip-rule="evenodd" transform="matrix(1 0 0 1 0 0)" d="M64.75 713.95L472.25 713.95L472.25 713.95L472.25 727.95L472.25 727.95L64.75 727.95z" /></clipPath><clipPath id="75"><path id="" clip-rule="evenodd" transform="matrix(1 0 0 1 0 0)" d="M470.75 713.95L530.55 713.95L530.55 713.95L530.55 727.95L530.55 727.95L470.75 727.95z" /></clipPath><clipPath id="76"><path id="" clip-rule="evenodd" transform="matrix(1 0 0 1 0 0)" d="M64.75 726.45L472.25 726.45L472.25 726.45L472.25 740.45L472.25 740.45L64.75 740.45z" /></clipPath><clipPath id="77"><path id="" clip-rule="evenodd" transform="matrix(1 0 0 1 0 0)" d="M470.75 726.45L530.55 726.45L530.55 726.45L530.55 740.45L530.55 740.45L470.75 740.45z" /></clipPath><clipPath id="78"><path id="" clip-rule="evenodd" transform="matrix(1 0 0 1 0 0)" d="M64.75 738.95L472.25 738.95L472.25 738.95L472.25 752.95L472.25 752.95L64.75 752.95z" /></clipPath><clipPath id="79"><path id="" clip-rule="evenodd" transform="matrix(1 0 0 1 0 0)" d="M470.75 738.95L530.55 738.95L530.55 738.95L530.55 752.95L530.55 752.95L470.75 752.95z" /></clipPath><clipPath id="80"><path id="" clip-rule="evenodd" transform="matrix(1 0 0 1 0 0)" d="M64.75 751.45L472.25 751.45L472.25 751.45L472.25 765.45L472.25 765.45L64.75 765.45z" /></clipPath><clipPath id="81"><path id="" clip-rule="evenodd" transform="matrix(1 0 0 1 0 0)" d="M470.75 751.45L530.55 751.45L530.55 751.45L530.55 765.45L530.55 765.45L470.75 765.45z" /></clipPath></defs><g transform="matrix(1.333333 0 0 1.333333 0 0)"><g clip-path="url(#1)"><g clip-path="url(#2)"><path id="13" transform="matrix(1 0 0 -1 0 841)" d="M69.45 780.718L525.85 780.718" stroke="#000000" stroke-width="0.5" fill="none" /></g><g clip-path="url(#3)"></g><g clip-path="url(#4)"></g><g clip-path="url(#5)"></g><path id="121" transform="matrix(1 0 0 -1 0 841)" d="M65.5 708.1L65.5 696.1" stroke="#000000" stroke-width="0.5" fill="none" /><path id="122" transform="matrix(1 0 0 -1 0 841)" d="M471.4 708.1L471.4 696.1" stroke="#000000" stroke-width="0.5" fill="none" /><path id="123" transform="matrix(1 0 0 -1 0 841)" d="M529.8 708.1L529.8 696.1" stroke="#000000" stroke-width="0.5" fill="none" /><path id="124" transform="matrix(1 0 0 -1 0 841)" d="M65.25 708.35L530.05 708.35" stroke="#000000" stroke-width="0.5" fill="none" /><path id="125" transform="matrix(1 0 0 -1 0 841)" d="M65.25 695.85L530.05 695.85" stroke="#000000" stroke-width="0.5" fill="none" /><g clip-path="url(#6)"></g><g clip-path="url(#7)"></g><g clip-path="url(#8)"></g><g clip-path="url(#9)"></g><g clip-path="url(#10)"></g><g clip-path="url(#11)"></g><g clip-path="url(#12)"></g><g clip-path="url(#13)"></g><g clip-path="url(#14)"></g><g clip-path="url(#15)"></g><g clip-path="url(#16)"></g><g clip-path="url(#17)"></g><g clip-path="url(#18)"></g><g clip-path="url(#19)"></g><g clip-path="url(#20)"></g><g clip-path="url(#21)"></g><g clip-path="url(#22)"></g><g clip-path="url(#23)"></g><g clip-path="url(#24)"></g><g clip-path="url(#25)"></g><g clip-path="url(#26)"></g><g clip-path="url(#27)"></g><path id="457" transform="matrix(1 0 0 -1 0 841)" d="M65.5 648.3L65.5 511.3" stroke="#000000" stroke-width="0.5" fill="none" /><path id="458" transform="matrix(1 0 0 -1 0 841)" d="M469.25 648.3L469.25 636.3" stroke="#000000" stroke-width="0.5" fill="none" /><path id="459" transform="matrix(1 0 0 -1 0 841)" d="M469.25 635.8L469.25 623.8" stroke="#000000" stroke-width="0.5" fill="none" /><path id="460" transform="matrix(1 0 0 -1 0 841)" d="M469.25 623.3L469.25 611.3" stroke="#000000" stroke-width="0.5" fill="none" /><path id="461" transform="matrix(1 0 0 -1 0 841)" d="M469.25 610.8L469.25 598.8" stroke="#000000" stroke-width="0.5" fill="none" /><path id="462" transform="matrix(1 0 0 -1 0 841)" d="M469.25 598.3L469.25 586.3" stroke="#000000" stroke-width="0.5" fill="none" /><path id="463" transform="matrix(1 0 0 -1 0 841)" d="M469.25 585.8L469.25 573.8" stroke="#000000" stroke-width="0.5" fill="none" /><path id="464" transform="matrix(1 0 0 -1 0 841)" d="M469.25 573.3L469.25 561.3" stroke="#000000" stroke-width="0.5" fill="none" /><path id="465" transform="matrix(1 0 0 -1 0 841)" d="M469.25 560.8L469.25 548.8" stroke="#000000" stroke-width="0.5" fill="none" /><path id="466" transform="matrix(1 0 0 -1 0 841)" d="M469.25 548.3L469.25 536.3" stroke="#000000" stroke-width="0.5" fill="none" /><path id="467" transform="matrix(1 0 0 -1 0 841)" d="M469.25 535.8L469.25 523.8" stroke="#000000" stroke-width="0.5" fill="none" /><path id="468" transform="matrix(1 0 0 -1 0 841)" d="M469.25 523.3L469.25 511.3" stroke="#000000" stroke-width="0.5" fill="none" /><path id="469" transform="matrix(1 0 0 -1 0 841)" d="M529.8 648.3L529.8 511.3" stroke="#000000" stroke-width="0.5" fill="none" /><path id="470" transform="matrix(1 0 0 -1 0 841)" d="M65.25 648.55L530.05 648.55" stroke="#000000" stroke-width="0.5" fill="none" /><path id="471" transform="matrix(1 0 0 -1 0 841)" d="M65.75 636.05L529.55 636.05" stroke="#000000" stroke-width="0.5" fill="none" /><path id="472" transform="matrix(1 0 0 -1 0 841)" d="M65.75 623.55L529.55 623.55" stroke="#000000" stroke-width="0.5" fill="none" /><path id="473" transform="matrix(1 0 0 -1 0 841)" d="M65.75 611.05L529.55 611.05" stroke="#000000" stroke-width="0.5" fill="none" /><path id="474" transform="matrix(1 0 0 -1 0 841)" d="M65.75 598.55L529.55 598.55" stroke="#000000" stroke-width="0.5" fill="none" /><path id="475" transform="matrix(1 0 0 -1 0 841)" d="M65.75 586.05L529.55 586.05" stroke="#000000" stroke-width="0.5" fill="none" /><path id="476" transform="matrix(1 0 0 -1 0 841)" d="M65.75 573.55L529.55 573.55" stroke="#000000" stroke-width="0.5" fill="none" /><path id="477" transform="matrix(1 0 0 -1 0 841)" d="M65.75 561.05L529.55 561.05" stroke="#000000" stroke-width="0.5" fill="none" /><path id="478" transform="matrix(1 0 0 -1 0 841)" d="M65.75 548.55L529.55 548.55" stroke="#000000" stroke-width="0.5" fill="none" /><path id="479" transform="matrix(1 0 0 -1 0 841)" d="M65.75 536.05L529.55 536.05" stroke="#000000" stroke-width="0.5" fill="none" /><path id="480" transform="matrix(1 0 0 -1 0 841)" d="M65.75 523.55L529.55 523.55" stroke="#000000" stroke-width="0.5" fill="none" /><path id="481" transform="matrix(1 0 0 -1 0 841)" d="M65.25 511.05L530.05 511.05" stroke="#000000" stroke-width="0.5" fill="none" /><g clip-path="url(#28)"></g><g clip-path="url(#29)"></g><g clip-path="url(#30)"></g><g clip-path="url(#31)"></g><path id="520" transform="matrix(1 0 0 -1 0 841)" d="M65.5 494.7L65.5 470.2" stroke="#000000" stroke-width="0.5" fill="none" /><path id="521" transform="matrix(1 0 0 -1 0 841)" d="M471.5 494.7L471.5 482.7" stroke="#000000" stroke-width="0.5" fill="none" /><path id="522" transform="matrix(1 0 0 -1 0 841)" d="M471.5 482.2L471.5 470.2" stroke="#000000" stroke-width="0.5" fill="none" /><path id="523" transform="matrix(1 0 0 -1 0 841)" d="M529.8 494.7L529.8 470.2" stroke="#000000" stroke-width="0.5" fill="none" /><path id="524" transform="matrix(1 0 0 -1 0 841)" d="M65.25 494.95L530.05 494.95" stroke="#000000" stroke-width="0.5" fill="none" /><path id="525" transform="matrix(1 0 0 -1 0 841)" d="M65.75 482.45L529.55 482.45" stroke="#000000" stroke-width="0.5" fill="none" /><path id="526" transform="matrix(1 0 0 -1 0 841)" d="M65.25 469.95L530.05 469.95" stroke="#000000" stroke-width="0.5" fill="none" /><g clip-path="url(#32)"></g><g clip-path="url(#33)"></g><g clip-path="url(#34)"></g><g clip-path="url(#35)"></g><g clip-path="url(#36)"></g><g clip-path="url(#37)"></g><g clip-path="url(#38)"></g><g clip-path="url(#39)"></g><g clip-path="url(#40)"></g><g clip-path="url(#41)"></g><path id="649" transform="matrix(1 0 0 -1 0 841)" d="M65.5 438L65.5 376" stroke="#000000" stroke-width="0.5" fill="none" /><path id="650" transform="matrix(1 0 0 -1 0 841)" d="M471.5 438L471.5 426" stroke="#000000" stroke-width="0.5" fill="none" /><path id="651" transform="matrix(1 0 0 -1 0 841)" d="M471.5 425.5L471.5 413.5" stroke="#000000" stroke-width="0.5" fill="none" /><path id="652" transform="matrix(1 0 0 -1 0 841)" d="M471.5 413L471.5 401" stroke="#000000" stroke-width="0.5" fill="none" /><path id="653" transform="matrix(1 0 0 -1 0 841)" d="M471.5 400.5L471.5 388.5" stroke="#000000" stroke-width="0.5" fill="none" /><path id="654" transform="matrix(1 0 0 -1 0 841)" d="M471.5 388L471.5 376" stroke="#000000" stroke-width="0.5" fill="none" /><path id="655" transform="matrix(1 0 0 -1 0 841)" d="M529.8 438L529.8 376" stroke="#000000" stroke-width="0.5" fill="none" /><path id="656" transform="matrix(1 0 0 -1 0 841)" d="M65.25 438.25L530.05 438.25" stroke="#000000" stroke-width="0.5" fill="none" /><path id="657" transform="matrix(1 0 0 -1 0 841)" d="M65.75 425.75L529.55 425.75" stroke="#000000" stroke-width="0.5" fill="none" /><path id="658" transform="matrix(1 0 0 -1 0 841)" d="M65.75 413.25L529.55 413.25" stroke="#000000" stroke-width="0.5" fill="none" /><path id="659" transform="matrix(1 0 0 -1 0 841)" d="M65.75 400.75L529.55 400.75" stroke="#000000" stroke-width="0.5" fill="none" /><path id="660" transform="matrix(1 0 0 -1 0 841)" d="M65.75 388.25L529.55 388.25" stroke="#000000" stroke-width="0.5" fill="none" /><path id="661" transform="matrix(1 0 0 -1 0 841)" d="M65.25 375.75L530.05 375.75" stroke="#000000" stroke-width="0.5" fill="none" /><g clip-path="url(#42)"></g><g clip-path="url(#43)"></g><g clip-path="url(#44)"></g><g clip-path="url(#45)"></g><g clip-path="url(#46)"></g><g clip-path="url(#47)"></g><path id="719" transform="matrix(1 0 0 -1 0 841)" d="M65.5 359.4L65.5 322.4" stroke="#000000" stroke-width="0.5" fill="none" /><path id="720" transform="matrix(1 0 0 -1 0 841)" d="M471.5 359.4L471.5 347.4" stroke="#000000" stroke-width="0.5" fill="none" /><path id="721" transform="matrix(1 0 0 -1 0 841)" d="M471.5 346.9L471.5 334.9" stroke="#000000" stroke-width="0.5" fill="none" /><path id="722" transform="matrix(1 0 0 -1 0 841)" d="M471.5 334.4L471.5 322.4" stroke="#000000" stroke-width="0.5" fill="none" /><path id="723" transform="matrix(1 0 0 -1 0 841)" d="M529.8 359.4L529.8 322.4" stroke="#000000" stroke-width="0.5" fill="none" /><path id="724" transform="matrix(1 0 0 -1 0 841)" d="M65.25 359.65L530.05 359.65" stroke="#000000" stroke-width="0.5" fill="none" /><path id="725" transform="matrix(1 0 0 -1 0 841)" d="M65.75 347.15L529.55 347.15" stroke="#000000" stroke-width="0.5" fill="none" /><path id="726" transform="matrix(1 0 0 -1 0 841)" d="M65.75 334.65L529.55 334.65" stroke="#000000" stroke-width="0.5" fill="none" /><path id="727" transform="matrix(1 0 0 -1 0 841)" d="M65.25 322.15L530.05 322.15" stroke="#000000" stroke-width="0.5" fill="none" /><g clip-path="url(#48)"></g><g clip-path="url(#49)"></g><g clip-path="url(#50)"></g><g clip-path="url(#51)"></g><g clip-path="url(#52)"></g><g clip-path="url(#53)"></g><g clip-path="url(#54)"></g><g clip-path="url(#55)"></g><g clip-path="url(#56)"></g><g clip-path="url(#57)"></g><g clip-path="url(#58)"></g><g clip-path="url(#59)"></g><g clip-path="url(#60)"></g><g clip-path="url(#61)"></g><g clip-path="url(#62)"></g><g clip-path="url(#63)"></g><g clip-path="url(#64)"></g><g clip-path="url(#65)"></g><g clip-path="url(#66)"></g><g clip-path="url(#67)"></g><g clip-path="url(#68)"></g><g clip-path="url(#69)"></g><g clip-path="url(#70)"></g><g clip-path="url(#71)"></g><g clip-path="url(#72)"></g><g clip-path="url(#73)"></g><g clip-path="url(#74)"></g><g clip-path="url(#75)"></g><g clip-path="url(#76)"></g><g clip-path="url(#77)"></g><g clip-path="url(#78)"></g><g clip-path="url(#79)"></g><g clip-path="url(#80)"></g><g clip-path="url(#81)"></g><path id="1059" transform="matrix(1 0 0 -1 0 841)" d="M65.5 290.2L65.5 76.55002" stroke="#000000" stroke-width="0.5" fill="none" /><path id="1060" transform="matrix(1 0 0 -1 0 841)" d="M471.5 290.2L471.5 276.55" stroke="#000000" stroke-width="0.5" fill="none" /><path id="1061" transform="matrix(1 0 0 -1 0 841)" d="M471.5 276.05L471.5 264.05" stroke="#000000" stroke-width="0.5" fill="none" /><path id="1062" transform="matrix(1 0 0 -1 0 841)" d="M471.5 263.55L471.5 251.55" stroke="#000000" stroke-width="0.5" fill="none" /><path id="1063" transform="matrix(1 0 0 -1 0 841)" d="M471.5 251.05L471.5 239.05" stroke="#000000" stroke-width="0.5" fill="none" /><path id="1064" transform="matrix(1 0 0 -1 0 841)" d="M471.5 238.55L471.5 226.55" stroke="#000000" stroke-width="0.5" fill="none" /><path id="1065" transform="matrix(1 0 0 -1 0 841)" d="M471.5 226.05L471.5 214.05" stroke="#000000" stroke-width="0.5" fill="none" /><path id="1066" transform="matrix(1 0 0 -1 0 841)" d="M471.5 213.55L471.5 201.55" stroke="#000000" stroke-width="0.5" fill="none" /><path id="1067" transform="matrix(1 0 0 -1 0 841)" d="M471.5 201.05L471.5 189.05" stroke="#000000" stroke-width="0.5" fill="none" /><path id="1068" transform="matrix(1 0 0 -1 0 841)" d="M471.5 188.55L471.5 176.55" stroke="#000000" stroke-width="0.5" fill="none" /><path id="1069" transform="matrix(1 0 0 -1 0 841)" d="M471.5 176.05L471.5 164.05" stroke="#000000" stroke-width="0.5" fill="none" /><path id="1070" transform="matrix(1 0 0 -1 0 841)" d="M471.5 163.55L471.5 151.55" stroke="#000000" stroke-width="0.5" fill="none" /><path id="1071" transform="matrix(1 0 0 -1 0 841)" d="M471.5 151.05L471.5 139.05" stroke="#000000" stroke-width="0.5" fill="none" /><path id="1072" transform="matrix(1 0 0 -1 0 841)" d="M471.5 138.55L471.5 126.55" stroke="#000000" stroke-width="0.5" fill="none" /><path id="1073" transform="matrix(1 0 0 -1 0 841)" d="M471.5 126.05L471.5 114.05" stroke="#000000" stroke-width="0.5" fill="none" /><path id="1074" transform="matrix(1 0 0 -1 0 841)" d="M471.5 113.55L471.5 101.55" stroke="#000000" stroke-width="0.5" fill="none" /><path id="1075" transform="matrix(1 0 0 -1 0 841)" d="M471.5 101.05L471.5 89.05002" stroke="#000000" stroke-width="0.5" fill="none" /><path id="1076" transform="matrix(1 0 0 -1 0 841)" d="M471.5 88.55002L471.5 76.55002" stroke="#000000" stroke-width="0.5" fill="none" /><path id="1077" transform="matrix(1 0 0 -1 0 841)" d="M529.8 290.2L529.8 76.55002" stroke="#000000" stroke-width="0.5" fill="none" /><path id="1078" transform="matrix(1 0 0 -1 0 841)" d="M65.25 290.45L530.05 290.45" stroke="#000000" stroke-width="0.5" fill="none" /><path id="1079" transform="matrix(1 0 0 -1 0 841)" d="M65.75 276.3L529.55 276.3" stroke="#000000" stroke-width="0.5" fill="none" /><path id="1080" transform="matrix(1 0 0 -1 0 841)" d="M65.75 263.8L529.55 263.8" stroke="#000000" stroke-width="0.5" fill="none" /><path id="1081" transform="matrix(1 0 0 -1 0 841)" d="M65.75 251.3L529.55 251.3" stroke="#000000" stroke-width="0.5" fill="none" /><path id="1082" transform="matrix(1 0 0 -1 0 841)" d="M65.75 238.8L529.55 238.8" stroke="#000000" stroke-width="0.5" fill="none" /><path id="1083" transform="matrix(1 0 0 -1 0 841)" d="M65.75 226.3L529.55 226.3" stroke="#000000" stroke-width="0.5" fill="none" /><path id="1084" transform="matrix(1 0 0 -1 0 841)" d="M65.75 213.8L529.55 213.8" stroke="#000000" stroke-width="0.5" fill="none" /><path id="1085" transform="matrix(1 0 0 -1 0 841)" d="M65.75 201.3L529.55 201.3" stroke="#000000" stroke-width="0.5" fill="none" /><path id="1086" transform="matrix(1 0 0 -1 0 841)" d="M65.75 188.8L529.55 188.8" stroke="#000000" stroke-width="0.5" fill="none" /><path id="1087" transform="matrix(1 0 0 -1 0 841)" d="M65.75 176.3L529.55 176.3" stroke="#000000" stroke-width="0.5" fill="none" /><path id="1088" transform="matrix(1 0 0 -1 0 841)" d="M65.75 163.8L529.55 163.8" stroke="#000000" stroke-width="0.5" fill="none" /><path id="1089" transform="matrix(1 0 0 -1 0 841)" d="M65.75 151.3L529.55 151.3" stroke="#000000" stroke-width="0.5" fill="none" /><path id="1090" transform="matrix(1 0 0 -1 0 841)" d="M65.75 138.8L529.55 138.8" stroke="#000000" stroke-width="0.5" fill="none" /><path id="1091" transform="matrix(1 0 0 -1 0 841)" d="M65.75 126.3L529.55 126.3" stroke="#000000" stroke-width="0.5" fill="none" /><path id="1092" transform="matrix(1 0 0 -1 0 841)" d="M65.75 113.8L529.55 113.8" stroke="#000000" stroke-width="0.5" fill="none" /><path id="1093" transform="matrix(1 0 0 -1 0 841)" d="M65.75 101.3L529.55 101.3" stroke="#000000" stroke-width="0.5" fill="none" /><path id="1094" transform="matrix(1 0 0 -1 0 841)" d="M65.75 88.80002L529.55 88.80002" stroke="#000000" stroke-width="0.5" fill="none" /><path id="1095" transform="matrix(1 0 0 -1 0 841)" d="M65.25 76.30002L530.05 76.30002" stroke="#000000" stroke-width="0.5" fill="none" /></g></g></svg>