<svg xmlns="http://www.w3.org/2000/svg" xmlns:xlink="http://www.w3.org/1999/xlink" id="body_1" preserveAspectRatio="xMinYMin meet" viewBox="0 0 793 1121"><defs><clipPath id="1"><path id="" clip-rule="evenodd" transform="matrix(1 0 0 1 0 0)" d="M0 841L0 -0.9000244L0 -0.9000244L595.3 -0.9000244L595.3 -0.9000244L595.3 841L595.3 841L0 841z" /></clipPath><clipPath id="2"><path id="" clip-rule="evenodd" transform="matrix(1 0 0 1 0 0)" d="M0 781.051L595.3 781.051L595.3 781.051L595.3 791.4L595.3 791.4L0 791.4z" /></clipPath><clipPath id="3"><path id="" clip-rule="evenodd" transform="matrix(1 0 0 1 0 0)" d="M77 260L518.4 260L518.4 260L518.4 285.2L518.4 285.2L77 285.2z" /></clipPath><clipPath id="4"><path id="" clip-rule="evenodd" transform="matrix(1 0 0 1 0 0)" d="M77 283.2L440.45 283.2L440.45 283.2L440.45 308.84L440.45 308.84L77 308.84z" /></clipPath><clipPath id="5"><path id="" clip-rule="evenodd" transform="matrix(1 0 0 1 0 0)" d="M438.45 283.2L518.4 283.2L518.4 283.2L518.4 308.84L518.4 308.84L438.45 308.84z" /></clipPath><clipPath id="6"><path id="" clip-rule="evenodd" transform="matrix(1 0 0 1 0 0)" d="M77 306.84L518.4 306.84L518.4 306.84L518.4 332.04L518.4 332.04L77 332.04z" /></clipPath><clipPath id="7"><path id="" clip-rule="evenodd" transform="matrix(1 0 0 1 0 0)" d="M77 330.04L440.45 330.04L440.45 330.04L440.45 355.68L440.45 355.68L77 355.68z" /></clipPath><clipPath id="8"><path id="" clip-rule="evenodd" transform="matrix(1 0 0 1 0 0)" d="M438.45 330.04L518.4 330.04L518.4 330.04L518.4 355.68L518.4 355.68L438.45 355.68z" /></clipPath><clipPath id="9"><path id="" clip-rule="evenodd" transform="matrix(1 0 0 1 0 0)" d="M77 353.68L440.45 353.68L440.45 353.68L440.45 379.32L440.45 379.32L77 379.32z" /></clipPath><clipPath id="10"><path id="" clip-rule="evenodd" transform="matrix(1 0 0 1 0 0)" d="M438.45 353.68L518.4 353.68L518.4 353.68L518.4 379.32L518.4 379.32L438.45 379.32z" /></clipPath><clipPath id="11"><path id="" clip-rule="evenodd" transform="matrix(1 0 0 1 0 0)" d="M77 377.32L440.45 377.32L440.45 377.32L440.45 402.96L440.45 402.96L77 402.96z" /></clipPath><clipPath id="12"><path id="" clip-rule="evenodd" transform="matrix(1 0 0 1 0 0)" d="M438.45 377.32L518.4 377.32L518.4 377.32L518.4 402.96L518.4 402.96L438.45 402.96z" /></clipPath><clipPath id="13"><path id="" clip-rule="evenodd" transform="matrix(1 0 0 1 0 0)" d="M77 400.96L440.45 400.96L440.45 400.96L440.45 426.6L440.45 426.6L77 426.6z" /></clipPath><clipPath id="14"><path id="" clip-rule="evenodd" transform="matrix(1 0 0 1 0 0)" d="M438.45 400.96L518.4 400.96L518.4 400.96L518.4 426.6L518.4 426.6L438.45 426.6z" /></clipPath><clipPath id="15"><path id="" clip-rule="evenodd" transform="matrix(1 0 0 1 0 0)" d="M77 424.6L440.45 424.6L440.45 424.6L440.45 468.18L440.45 468.18L77 468.18z" /></clipPath><clipPath id="16"><path id="" clip-rule="evenodd" transform="matrix(1 0 0 1 0 0)" d="M438.45 424.6L518.4 424.6L518.4 424.6L518.4 468.18L518.4 468.18L438.45 468.18z" /></clipPath><clipPath id="17"><path id="" clip-rule="evenodd" transform="matrix(1 0 0 1 0 0)" d="M391.375 8.325012L587.875 8.325012L587.875 8.325012L587.875 91.97498L587.875 91.97498L391.375 91.97498z" /></clipPath></defs><g transform="matrix(1.333333 0 0 1.333333 0 0)"><g clip-path="url(#1)"><g clip-path="url(#2)"></g><g clip-path="url(#3)"></g><g clip-path="url(#4)"></g><g clip-path="url(#5)"></g><g clip-path="url(#6)"></g><g clip-path="url(#7)"></g><g clip-path="url(#8)"></g><g clip-path="url(#9)"></g><g clip-path="url(#10)"></g><g clip-path="url(#11)"></g><g clip-path="url(#12)"></g><g clip-path="url(#13)"></g><g clip-path="url(#14)"></g><g clip-path="url(#15)"></g><g clip-path="url(#16)"></g><path id="279" transform="matrix(1 0 0 -1 0 841)" d="M397.5 835.9L397.5 745.8L397.5 745.8L581.75 745.8L581.75 745.8L581.75 835.9z" stroke="none" fill="#FFFFFF" fill-rule="evenodd" /><g clip-path="url(#17)"><g transform="matrix(0.74925 0 0 0.74925 461.153 20.37213)"><g transform="matrix(1 0 0 1 0 0)"><image x="0" y="0" xlink:href="img_01.png" width="76" height="76" /></g></g></g></g></g></svg>