<svg xmlns="http://www.w3.org/2000/svg" xmlns:xlink="http://www.w3.org/1999/xlink" id="body_16" preserveAspectRatio="xMinYMin meet" viewBox="0 0 793 1121"><defs><clipPath id="1"><path id="" clip-rule="evenodd" transform="matrix(1 0 0 1 0 0)" d="M0 841L0 -0.9000244L0 -0.9000244L595.3 -0.9000244L595.3 -0.9000244L595.3 841L595.3 841L0 841z" /></clipPath><clipPath id="2"><path id="" clip-rule="evenodd" transform="matrix(1 0 0 1 0 0)" d="M0 41.59998L595.3 41.59998L595.3 41.59998L595.3 60.53198L595.3 60.53198L0 60.53198z" /></clipPath><clipPath id="3"><path id="" clip-rule="evenodd" transform="matrix(1 0 0 1 0 0)" d="M0 781.051L595.3 781.051L595.3 781.051L595.3 791.4L595.3 791.4L0 791.4z" /></clipPath><clipPath id="4"><path id="" clip-rule="evenodd" transform="matrix(1 0 0 1 0 0)" d="M64.75 85.10004L470.75 85.10004L470.75 85.10004L470.75 99.10004L470.75 99.10004L64.75 99.10004z" /></clipPath><clipPath id="5"><path id="" clip-rule="evenodd" transform="matrix(1 0 0 1 0 0)" d="M469.25 85.10004L530.55 85.10004L530.55 85.10004L530.55 99.10004L530.55 99.10004L469.25 99.10004z" /></clipPath><clipPath id="6"><path id="" clip-rule="evenodd" transform="matrix(1 0 0 1 0 0)" d="M64.75 97.60004L470.75 97.60004L470.75 97.60004L470.75 111.6L470.75 111.6L64.75 111.6z" /></clipPath><clipPath id="7"><path id="" clip-rule="evenodd" transform="matrix(1 0 0 1 0 0)" d="M469.25 97.60004L530.55 97.60004L530.55 97.60004L530.55 111.6L530.55 111.6L469.25 111.6z" /></clipPath><clipPath id="8"><path id="" clip-rule="evenodd" transform="matrix(1 0 0 1 0 0)" d="M64.75 110.1L470.75 110.1L470.75 110.1L470.75 124.1L470.75 124.1L64.75 124.1z" /></clipPath><clipPath id="9"><path id="" clip-rule="evenodd" transform="matrix(1 0 0 1 0 0)" d="M469.25 110.1L530.55 110.1L530.55 110.1L530.55 124.1L530.55 124.1L469.25 124.1z" /></clipPath><clipPath id="10"><path id="" clip-rule="evenodd" transform="matrix(1 0 0 1 0 0)" d="M64.75 122.6L470.75 122.6L470.75 122.6L470.75 136.6L470.75 136.6L64.75 136.6z" /></clipPath><clipPath id="11"><path id="" clip-rule="evenodd" transform="matrix(1 0 0 1 0 0)" d="M469.25 122.6L530.55 122.6L530.55 122.6L530.55 136.6L530.55 136.6L469.25 136.6z" /></clipPath><clipPath id="12"><path id="" clip-rule="evenodd" transform="matrix(1 0 0 1 0 0)" d="M64.75 135.1L470.75 135.1L470.75 135.1L470.75 149.1L470.75 149.1L64.75 149.1z" /></clipPath><clipPath id="13"><path id="" clip-rule="evenodd" transform="matrix(1 0 0 1 0 0)" d="M469.25 135.1L530.55 135.1L530.55 135.1L530.55 149.1L530.55 149.1L469.25 149.1z" /></clipPath><clipPath id="14"><path id="" clip-rule="evenodd" transform="matrix(1 0 0 1 0 0)" d="M64.75 147.6L470.75 147.6L470.75 147.6L470.75 161.6L470.75 161.6L64.75 161.6z" /></clipPath><clipPath id="15"><path id="" clip-rule="evenodd" transform="matrix(1 0 0 1 0 0)" d="M469.25 147.6L530.55 147.6L530.55 147.6L530.55 161.6L530.55 161.6L469.25 161.6z" /></clipPath><clipPath id="16"><path id="" clip-rule="evenodd" transform="matrix(1 0 0 1 0 0)" d="M64.75 160.1L470.75 160.1L470.75 160.1L470.75 174.1L470.75 174.1L64.75 174.1z" /></clipPath><clipPath id="17"><path id="" clip-rule="evenodd" transform="matrix(1 0 0 1 0 0)" d="M469.25 160.1L530.55 160.1L530.55 160.1L530.55 174.1L530.55 174.1L469.25 174.1z" /></clipPath><clipPath id="18"><path id="" clip-rule="evenodd" transform="matrix(1 0 0 1 0 0)" d="M64.75 172.6L470.75 172.6L470.75 172.6L470.75 186.6L470.75 186.6L64.75 186.6z" /></clipPath><clipPath id="19"><path id="" clip-rule="evenodd" transform="matrix(1 0 0 1 0 0)" d="M469.25 172.6L530.55 172.6L530.55 172.6L530.55 186.6L530.55 186.6L469.25 186.6z" /></clipPath><clipPath id="20"><path id="" clip-rule="evenodd" transform="matrix(1 0 0 1 0 0)" d="M64.75 185.1L470.75 185.1L470.75 185.1L470.75 199.1L470.75 199.1L64.75 199.1z" /></clipPath><clipPath id="21"><path id="" clip-rule="evenodd" transform="matrix(1 0 0 1 0 0)" d="M469.25 185.1L530.55 185.1L530.55 185.1L530.55 199.1L530.55 199.1L469.25 199.1z" /></clipPath><clipPath id="22"><path id="" clip-rule="evenodd" transform="matrix(1 0 0 1 0 0)" d="M64.75 197.6L470.75 197.6L470.75 197.6L470.75 220.95L470.75 220.95L64.75 220.95z" /></clipPath><clipPath id="23"><path id="" clip-rule="evenodd" transform="matrix(1 0 0 1 0 0)" d="M469.25 197.6L530.55 197.6L530.55 197.6L530.55 220.95L530.55 220.95L469.25 220.95z" /></clipPath><clipPath id="24"><path id="" clip-rule="evenodd" transform="matrix(1 0 0 1 0 0)" d="M64.75 219.4501L470.75 219.4501L470.75 219.4501L470.75 233.4501L470.75 233.4501L64.75 233.4501z" /></clipPath><clipPath id="25"><path id="" clip-rule="evenodd" transform="matrix(1 0 0 1 0 0)" d="M469.25 219.4501L530.55 219.4501L530.55 219.4501L530.55 233.4501L530.55 233.4501L469.25 233.4501z" /></clipPath><clipPath id="26"><path id="" clip-rule="evenodd" transform="matrix(1 0 0 1 0 0)" d="M64.75 231.9501L470.75 231.9501L470.75 231.9501L470.75 245.9501L470.75 245.9501L64.75 245.9501z" /></clipPath><clipPath id="27"><path id="" clip-rule="evenodd" transform="matrix(1 0 0 1 0 0)" d="M469.25 231.9501L530.55 231.9501L530.55 231.9501L530.55 245.9501L530.55 245.9501L469.25 245.9501z" /></clipPath><clipPath id="28"><path id="" clip-rule="evenodd" transform="matrix(1 0 0 1 0 0)" d="M64.75 244.4501L470.75 244.4501L470.75 244.4501L470.75 258.4501L470.75 258.4501L64.75 258.4501z" /></clipPath><clipPath id="29"><path id="" clip-rule="evenodd" transform="matrix(1 0 0 1 0 0)" d="M469.25 244.4501L530.55 244.4501L530.55 244.4501L530.55 258.4501L530.55 258.4501L469.25 258.4501z" /></clipPath><clipPath id="30"><path id="" clip-rule="evenodd" transform="matrix(1 0 0 1 0 0)" d="M64.75 256.9501L470.75 256.9501L470.75 256.9501L470.75 270.9501L470.75 270.9501L64.75 270.9501z" /></clipPath><clipPath id="31"><path id="" clip-rule="evenodd" transform="matrix(1 0 0 1 0 0)" d="M469.25 256.9501L530.55 256.9501L530.55 256.9501L530.55 270.9501L530.55 270.9501L469.25 270.9501z" /></clipPath><clipPath id="32"><path id="" clip-rule="evenodd" transform="matrix(1 0 0 1 0 0)" d="M64.75 394.75L472.15 394.75L472.15 394.75L472.15 408.75L472.15 408.75L64.75 408.75z" /></clipPath><clipPath id="33"><path id="" clip-rule="evenodd" transform="matrix(1 0 0 1 0 0)" d="M470.4 394.75L530.55 394.75L530.55 394.75L530.55 408.75L530.55 408.75L470.4 408.75z" /></clipPath><clipPath id="34"><path id="" clip-rule="evenodd" transform="matrix(1 0 0 1 0 0)" d="M64.75 406.75L472.15 406.75L472.15 406.75L472.15 421.25L472.15 421.25L64.75 421.25z" /></clipPath><clipPath id="35"><path id="" clip-rule="evenodd" transform="matrix(1 0 0 1 0 0)" d="M470.4 406.75L530.55 406.75L530.55 406.75L530.55 421.25L530.55 421.25L470.4 421.25z" /></clipPath><clipPath id="36"><path id="" clip-rule="evenodd" transform="matrix(1 0 0 1 0 0)" d="M64.75 419.25L472.15 419.25L472.15 419.25L472.15 433.75L472.15 433.75L64.75 433.75z" /></clipPath><clipPath id="37"><path id="" clip-rule="evenodd" transform="matrix(1 0 0 1 0 0)" d="M470.4 419.25L530.55 419.25L530.55 419.25L530.55 433.75L530.55 433.75L470.4 433.75z" /></clipPath><clipPath id="38"><path id="" clip-rule="evenodd" transform="matrix(1 0 0 1 0 0)" d="M64.75 479.55L470.65 479.55L470.65 479.55L470.65 493.55L470.65 493.55L64.75 493.55z" /></clipPath><clipPath id="39"><path id="" clip-rule="evenodd" transform="matrix(1 0 0 1 0 0)" d="M469.15 479.55L530.55 479.55L530.55 479.55L530.55 493.55L530.55 493.55L469.15 493.55z" /></clipPath><clipPath id="40"><path id="" clip-rule="evenodd" transform="matrix(1 0 0 1 0 0)" d="M64.75 492.05L470.65 492.05L470.65 492.05L470.65 506.05L470.65 506.05L64.75 506.05z" /></clipPath><clipPath id="41"><path id="" clip-rule="evenodd" transform="matrix(1 0 0 1 0 0)" d="M469.15 492.05L530.55 492.05L530.55 492.05L530.55 506.05L530.55 506.05L469.15 506.05z" /></clipPath><clipPath id="42"><path id="" clip-rule="evenodd" transform="matrix(1 0 0 1 0 0)" d="M64.75 504.55L470.65 504.55L470.65 504.55L470.65 518.55L470.65 518.55L64.75 518.55z" /></clipPath><clipPath id="43"><path id="" clip-rule="evenodd" transform="matrix(1 0 0 1 0 0)" d="M469.15 504.55L530.55 504.55L530.55 504.55L530.55 518.55L530.55 518.55L469.15 518.55z" /></clipPath><clipPath id="44"><path id="" clip-rule="evenodd" transform="matrix(1 0 0 1 0 0)" d="M64.75 517.05L470.65 517.05L470.65 517.05L470.65 531.05L470.65 531.05L64.75 531.05z" /></clipPath><clipPath id="45"><path id="" clip-rule="evenodd" transform="matrix(1 0 0 1 0 0)" d="M469.15 517.05L530.55 517.05L530.55 517.05L530.55 531.05L530.55 531.05L469.15 531.05z" /></clipPath><clipPath id="46"><path id="" clip-rule="evenodd" transform="matrix(1 0 0 1 0 0)" d="M64.75 529.55L470.65 529.55L470.65 529.55L470.65 543.55L470.65 543.55L64.75 543.55z" /></clipPath><clipPath id="47"><path id="" clip-rule="evenodd" transform="matrix(1 0 0 1 0 0)" d="M469.15 529.55L530.55 529.55L530.55 529.55L530.55 543.55L530.55 543.55L469.15 543.55z" /></clipPath><clipPath id="48"><path id="" clip-rule="evenodd" transform="matrix(1 0 0 1 0 0)" d="M64.75 542.05L470.65 542.05L470.65 542.05L470.65 556.05L470.65 556.05L64.75 556.05z" /></clipPath><clipPath id="49"><path id="" clip-rule="evenodd" transform="matrix(1 0 0 1 0 0)" d="M469.15 542.05L530.55 542.05L530.55 542.05L530.55 556.05L530.55 556.05L469.15 556.05z" /></clipPath><clipPath id="50"><path id="" clip-rule="evenodd" transform="matrix(1 0 0 1 0 0)" d="M64.75 554.55L470.65 554.55L470.65 554.55L470.65 568.55L470.65 568.55L64.75 568.55z" /></clipPath><clipPath id="51"><path id="" clip-rule="evenodd" transform="matrix(1 0 0 1 0 0)" d="M469.15 554.55L530.55 554.55L530.55 554.55L530.55 568.55L530.55 568.55L469.15 568.55z" /></clipPath><clipPath id="52"><path id="" clip-rule="evenodd" transform="matrix(1 0 0 1 0 0)" d="M64.75 567.05L470.65 567.05L470.65 567.05L470.65 581.05L470.65 581.05L64.75 581.05z" /></clipPath><clipPath id="53"><path id="" clip-rule="evenodd" transform="matrix(1 0 0 1 0 0)" d="M469.15 567.05L530.55 567.05L530.55 567.05L530.55 581.05L530.55 581.05L469.15 581.05z" /></clipPath><clipPath id="54"><path id="" clip-rule="evenodd" transform="matrix(1 0 0 1 0 0)" d="M64.75 579.55L470.65 579.55L470.65 579.55L470.65 593.55L470.65 593.55L64.75 593.55z" /></clipPath><clipPath id="55"><path id="" clip-rule="evenodd" transform="matrix(1 0 0 1 0 0)" d="M469.15 579.55L530.55 579.55L530.55 579.55L530.55 593.55L530.55 593.55L469.15 593.55z" /></clipPath><clipPath id="56"><path id="" clip-rule="evenodd" transform="matrix(1 0 0 1 0 0)" d="M64.75 592.05L470.65 592.05L470.65 592.05L470.65 606.05L470.65 606.05L64.75 606.05z" /></clipPath><clipPath id="57"><path id="" clip-rule="evenodd" transform="matrix(1 0 0 1 0 0)" d="M469.15 592.05L530.55 592.05L530.55 592.05L530.55 606.05L530.55 606.05L469.15 606.05z" /></clipPath><clipPath id="58"><path id="" clip-rule="evenodd" transform="matrix(1 0 0 1 0 0)" d="M64.75 604.55L470.65 604.55L470.65 604.55L470.65 618.55L470.65 618.55L64.75 618.55z" /></clipPath><clipPath id="59"><path id="" clip-rule="evenodd" transform="matrix(1 0 0 1 0 0)" d="M469.15 604.55L530.55 604.55L530.55 604.55L530.55 618.55L530.55 618.55L469.15 618.55z" /></clipPath><clipPath id="60"><path id="" clip-rule="evenodd" transform="matrix(1 0 0 1 0 0)" d="M64.75 617.05L470.65 617.05L470.65 617.05L470.65 631.05L470.65 631.05L64.75 631.05z" /></clipPath><clipPath id="61"><path id="" clip-rule="evenodd" transform="matrix(1 0 0 1 0 0)" d="M469.15 617.05L530.55 617.05L530.55 617.05L530.55 631.05L530.55 631.05L469.15 631.05z" /></clipPath><clipPath id="62"><path id="" clip-rule="evenodd" transform="matrix(1 0 0 1 0 0)" d="M64.75 629.55L470.65 629.55L470.65 629.55L470.65 643.55L470.65 643.55L64.75 643.55z" /></clipPath><clipPath id="63"><path id="" clip-rule="evenodd" transform="matrix(1 0 0 1 0 0)" d="M469.15 629.55L530.55 629.55L530.55 629.55L530.55 643.55L530.55 643.55L469.15 643.55z" /></clipPath><clipPath id="64"><path id="" clip-rule="evenodd" transform="matrix(1 0 0 1 0 0)" d="M64.75 642.05L470.65 642.05L470.65 642.05L470.65 656.05L470.65 656.05L64.75 656.05z" /></clipPath><clipPath id="65"><path id="" clip-rule="evenodd" transform="matrix(1 0 0 1 0 0)" d="M469.15 642.05L530.55 642.05L530.55 642.05L530.55 656.05L530.55 656.05L469.15 656.05z" /></clipPath><clipPath id="66"><path id="" clip-rule="evenodd" transform="matrix(1 0 0 1 0 0)" d="M64.75 654.55L470.65 654.55L470.65 654.55L470.65 668.55L470.65 668.55L64.75 668.55z" /></clipPath><clipPath id="67"><path id="" clip-rule="evenodd" transform="matrix(1 0 0 1 0 0)" d="M469.15 654.55L530.55 654.55L530.55 654.55L530.55 668.55L530.55 668.55L469.15 668.55z" /></clipPath><clipPath id="68"><path id="" clip-rule="evenodd" transform="matrix(1 0 0 1 0 0)" d="M64.75 667.05L470.65 667.05L470.65 667.05L470.65 681.05L470.65 681.05L64.75 681.05z" /></clipPath><clipPath id="69"><path id="" clip-rule="evenodd" transform="matrix(1 0 0 1 0 0)" d="M469.15 667.05L530.55 667.05L530.55 667.05L530.55 681.05L530.55 681.05L469.15 681.05z" /></clipPath><clipPath id="70"><path id="" clip-rule="evenodd" transform="matrix(1 0 0 1 0 0)" d="M64.75 679.55L470.65 679.55L470.65 679.55L470.65 693.55L470.65 693.55L64.75 693.55z" /></clipPath><clipPath id="71"><path id="" clip-rule="evenodd" transform="matrix(1 0 0 1 0 0)" d="M469.15 679.55L530.55 679.55L530.55 679.55L530.55 693.55L530.55 693.55L469.15 693.55z" /></clipPath><clipPath id="72"><path id="" clip-rule="evenodd" transform="matrix(1 0 0 1 0 0)" d="M64.75 692.05L470.65 692.05L470.65 692.05L470.65 708.1L470.65 708.1L64.75 708.1z" /></clipPath><clipPath id="73"><path id="" clip-rule="evenodd" transform="matrix(1 0 0 1 0 0)" d="M469.15 692.05L530.55 692.05L530.55 692.05L530.55 708.1L530.55 708.1L469.15 708.1z" /></clipPath></defs><g transform="matrix(1.333333 0 0 1.333333 0 0)"><g clip-path="url(#1)"><g clip-path="url(#2)"><path id="13" transform="matrix(1 0 0 -1 0 841)" d="M69.45 780.718L525.85 780.718" stroke="#000000" stroke-width="0.5" fill="none" /></g><g clip-path="url(#3)"></g><g clip-path="url(#4)"></g><g clip-path="url(#5)"></g><g clip-path="url(#6)"></g><g clip-path="url(#7)"></g><g clip-path="url(#8)"></g><g clip-path="url(#9)"></g><g clip-path="url(#10)"></g><g clip-path="url(#11)"></g><g clip-path="url(#12)"></g><g clip-path="url(#13)"></g><g clip-path="url(#14)"></g><g clip-path="url(#15)"></g><g clip-path="url(#16)"></g><g clip-path="url(#17)"></g><g clip-path="url(#18)"></g><g clip-path="url(#19)"></g><g clip-path="url(#20)"></g><g clip-path="url(#21)"></g><g clip-path="url(#22)"></g><g clip-path="url(#23)"></g><g clip-path="url(#24)"></g><g clip-path="url(#25)"></g><g clip-path="url(#26)"></g><g clip-path="url(#27)"></g><g clip-path="url(#28)"></g><g clip-path="url(#29)"></g><g clip-path="url(#30)"></g><g clip-path="url(#31)"></g><path id="395" transform="matrix(1 0 0 -1 0 841)" d="M65.5 754.9L65.5 571.0499" stroke="#000000" stroke-width="0.5" fill="none" /><path id="396" transform="matrix(1 0 0 -1 0 841)" d="M470 754.9L470 742.9" stroke="#000000" stroke-width="0.5" fill="none" /><path id="397" transform="matrix(1 0 0 -1 0 841)" d="M470 742.4L470 730.4" stroke="#000000" stroke-width="0.5" fill="none" /><path id="398" transform="matrix(1 0 0 -1 0 841)" d="M470 729.9L470 717.9" stroke="#000000" stroke-width="0.5" fill="none" /><path id="399" transform="matrix(1 0 0 -1 0 841)" d="M470 717.4L470 705.4" stroke="#000000" stroke-width="0.5" fill="none" /><path id="400" transform="matrix(1 0 0 -1 0 841)" d="M470 704.9L470 692.9" stroke="#000000" stroke-width="0.5" fill="none" /><path id="401" transform="matrix(1 0 0 -1 0 841)" d="M470 692.4L470 680.4" stroke="#000000" stroke-width="0.5" fill="none" /><path id="402" transform="matrix(1 0 0 -1 0 841)" d="M470 679.9L470 667.9" stroke="#000000" stroke-width="0.5" fill="none" /><path id="403" transform="matrix(1 0 0 -1 0 841)" d="M470 667.4L470 655.4" stroke="#000000" stroke-width="0.5" fill="none" /><path id="404" transform="matrix(1 0 0 -1 0 841)" d="M470 654.9L470 642.9" stroke="#000000" stroke-width="0.5" fill="none" /><path id="405" transform="matrix(1 0 0 -1 0 841)" d="M470 642.4L470 621.0499" stroke="#000000" stroke-width="0.5" fill="none" /><path id="406" transform="matrix(1 0 0 -1 0 841)" d="M470 620.5499L470 608.5499" stroke="#000000" stroke-width="0.5" fill="none" /><path id="407" transform="matrix(1 0 0 -1 0 841)" d="M470 608.0499L470 596.0499" stroke="#000000" stroke-width="0.5" fill="none" /><path id="408" transform="matrix(1 0 0 -1 0 841)" d="M470 595.5499L470 583.5499" stroke="#000000" stroke-width="0.5" fill="none" /><path id="409" transform="matrix(1 0 0 -1 0 841)" d="M470 583.0499L470 571.0499" stroke="#000000" stroke-width="0.5" fill="none" /><path id="410" transform="matrix(1 0 0 -1 0 841)" d="M529.8 754.9L529.8 571.0499" stroke="#000000" stroke-width="0.5" fill="none" /><path id="411" transform="matrix(1 0 0 -1 0 841)" d="M65.25 755.15L530.05 755.15" stroke="#000000" stroke-width="0.5" fill="none" /><path id="412" transform="matrix(1 0 0 -1 0 841)" d="M65.75 742.65L529.55 742.65" stroke="#000000" stroke-width="0.5" fill="none" /><path id="413" transform="matrix(1 0 0 -1 0 841)" d="M65.75 730.15L529.55 730.15" stroke="#000000" stroke-width="0.5" fill="none" /><path id="414" transform="matrix(1 0 0 -1 0 841)" d="M65.75 717.65L529.55 717.65" stroke="#000000" stroke-width="0.5" fill="none" /><path id="415" transform="matrix(1 0 0 -1 0 841)" d="M65.75 705.15L529.55 705.15" stroke="#000000" stroke-width="0.5" fill="none" /><path id="416" transform="matrix(1 0 0 -1 0 841)" d="M65.75 692.65L529.55 692.65" stroke="#000000" stroke-width="0.5" fill="none" /><path id="417" transform="matrix(1 0 0 -1 0 841)" d="M65.75 680.15L529.55 680.15" stroke="#000000" stroke-width="0.5" fill="none" /><path id="418" transform="matrix(1 0 0 -1 0 841)" d="M65.75 667.65L529.55 667.65" stroke="#000000" stroke-width="0.5" fill="none" /><path id="419" transform="matrix(1 0 0 -1 0 841)" d="M65.75 655.15L529.55 655.15" stroke="#000000" stroke-width="0.5" fill="none" /><path id="420" transform="matrix(1 0 0 -1 0 841)" d="M65.75 642.65L529.55 642.65" stroke="#000000" stroke-width="0.5" fill="none" /><path id="421" transform="matrix(1 0 0 -1 0 841)" d="M65.75 620.7999L529.55 620.7999" stroke="#000000" stroke-width="0.5" fill="none" /><path id="422" transform="matrix(1 0 0 -1 0 841)" d="M65.75 608.2999L529.55 608.2999" stroke="#000000" stroke-width="0.5" fill="none" /><path id="423" transform="matrix(1 0 0 -1 0 841)" d="M65.75 595.7999L529.55 595.7999" stroke="#000000" stroke-width="0.5" fill="none" /><path id="424" transform="matrix(1 0 0 -1 0 841)" d="M65.75 583.2999L529.55 583.2999" stroke="#000000" stroke-width="0.5" fill="none" /><path id="425" transform="matrix(1 0 0 -1 0 841)" d="M65.25 570.7999L530.05 570.7999" stroke="#000000" stroke-width="0.5" fill="none" /><g clip-path="url(#32)"></g><g clip-path="url(#33)"></g><g clip-path="url(#34)"></g><g clip-path="url(#35)"></g><g clip-path="url(#36)"></g><g clip-path="url(#37)"></g><path id="754" transform="matrix(1 0 0 -1 0 841)" d="M65.5 445.25L65.5 408.25" stroke="#000000" stroke-width="0.5" fill="none" /><path id="755" transform="matrix(1 0 0 -1 0 841)" d="M471.4 445.25L471.4 433.25" stroke="#000000" stroke-width="0.5" fill="none" /><path id="756" transform="matrix(1 0 0 -1 0 841)" d="M471.4 432.75L471.4 420.75" stroke="#000000" stroke-width="0.5" fill="none" /><path id="757" transform="matrix(1 0 0 -1 0 841)" d="M471.4 420.25L471.4 408.25" stroke="#000000" stroke-width="0.5" fill="none" /><path id="758" transform="matrix(1 0 0 -1 0 841)" d="M529.8 445.25L529.8 408.25" stroke="#000000" stroke-width="0.5" fill="none" /><path id="759" transform="matrix(1 0 0 -1 0 841)" d="M65.25 445.5L530.05 445.5" stroke="#000000" stroke-width="0.5" fill="none" /><path id="760" transform="matrix(1 0 0 -1 0 841)" d="M65.75 433L529.55 433" stroke="#000000" stroke-width="0.5" fill="none" /><path id="761" transform="matrix(1 0 0 -1 0 841)" d="M65.75 420.5L529.55 420.5" stroke="#000000" stroke-width="0.5" fill="none" /><path id="762" transform="matrix(1 0 0 -1 0 841)" d="M65.25 408L530.05 408" stroke="#000000" stroke-width="0.5" fill="none" /><g clip-path="url(#38)"></g><g clip-path="url(#39)"></g><g clip-path="url(#40)"></g><g clip-path="url(#41)"></g><g clip-path="url(#42)"></g><g clip-path="url(#43)"></g><g clip-path="url(#44)"></g><g clip-path="url(#45)"></g><g clip-path="url(#46)"></g><g clip-path="url(#47)"></g><g clip-path="url(#48)"></g><g clip-path="url(#49)"></g><g clip-path="url(#50)"></g><g clip-path="url(#51)"></g><g clip-path="url(#52)"></g><g clip-path="url(#53)"></g><g clip-path="url(#54)"></g><g clip-path="url(#55)"></g><g clip-path="url(#56)"></g><g clip-path="url(#57)"></g><g clip-path="url(#58)"></g><g clip-path="url(#59)"></g><g clip-path="url(#60)"></g><g clip-path="url(#61)"></g><g clip-path="url(#62)"></g><g clip-path="url(#63)"></g><g clip-path="url(#64)"></g><g clip-path="url(#65)"></g><g clip-path="url(#66)"></g><g clip-path="url(#67)"></g><g clip-path="url(#68)"></g><g clip-path="url(#69)"></g><g clip-path="url(#70)"></g><g clip-path="url(#71)"></g><g clip-path="url(#72)"></g><g clip-path="url(#73)"></g><path id="1120" transform="matrix(1 0 0 -1 0 841)" d="M65.5 360.45L65.5 133.9" stroke="#000000" stroke-width="0.5" fill="none" /><path id="1121" transform="matrix(1 0 0 -1 0 841)" d="M469.9 360.45L469.9 348.45" stroke="#000000" stroke-width="0.5" fill="none" /><path id="1122" transform="matrix(1 0 0 -1 0 841)" d="M469.9 347.95L469.9 335.95" stroke="#000000" stroke-width="0.5" fill="none" /><path id="1123" transform="matrix(1 0 0 -1 0 841)" d="M469.9 335.45L469.9 323.45" stroke="#000000" stroke-width="0.5" fill="none" /><path id="1124" transform="matrix(1 0 0 -1 0 841)" d="M469.9 322.95L469.9 310.95" stroke="#000000" stroke-width="0.5" fill="none" /><path id="1125" transform="matrix(1 0 0 -1 0 841)" d="M469.9 310.45L469.9 298.45" stroke="#000000" stroke-width="0.5" fill="none" /><path id="1126" transform="matrix(1 0 0 -1 0 841)" d="M469.9 297.95L469.9 285.95" stroke="#000000" stroke-width="0.5" fill="none" /><path id="1127" transform="matrix(1 0 0 -1 0 841)" d="M469.9 285.45L469.9 273.45" stroke="#000000" stroke-width="0.5" fill="none" /><path id="1128" transform="matrix(1 0 0 -1 0 841)" d="M469.9 272.95L469.9 260.95" stroke="#000000" stroke-width="0.5" fill="none" /><path id="1129" transform="matrix(1 0 0 -1 0 841)" d="M469.9 260.45L469.9 248.45" stroke="#000000" stroke-width="0.5" fill="none" /><path id="1130" transform="matrix(1 0 0 -1 0 841)" d="M469.9 247.95L469.9 235.95" stroke="#000000" stroke-width="0.5" fill="none" /><path id="1131" transform="matrix(1 0 0 -1 0 841)" d="M469.9 235.45L469.9 223.45" stroke="#000000" stroke-width="0.5" fill="none" /><path id="1132" transform="matrix(1 0 0 -1 0 841)" d="M469.9 222.95L469.9 210.95" stroke="#000000" stroke-width="0.5" fill="none" /><path id="1133" transform="matrix(1 0 0 -1 0 841)" d="M469.9 210.45L469.9 198.45" stroke="#000000" stroke-width="0.5" fill="none" /><path id="1134" transform="matrix(1 0 0 -1 0 841)" d="M469.9 197.95L469.9 185.95" stroke="#000000" stroke-width="0.5" fill="none" /><path id="1135" transform="matrix(1 0 0 -1 0 841)" d="M469.9 185.45L469.9 173.45" stroke="#000000" stroke-width="0.5" fill="none" /><path id="1136" transform="matrix(1 0 0 -1 0 841)" d="M469.9 172.95L469.9 160.95" stroke="#000000" stroke-width="0.5" fill="none" /><path id="1137" transform="matrix(1 0 0 -1 0 841)" d="M469.9 160.45L469.9 148.45" stroke="#000000" stroke-width="0.5" fill="none" /><path id="1138" transform="matrix(1 0 0 -1 0 841)" d="M469.9 147.95L469.9 133.9" stroke="#000000" stroke-width="0.5" fill="none" /><path id="1139" transform="matrix(1 0 0 -1 0 841)" d="M529.8 360.45L529.8 133.9" stroke="#000000" stroke-width="0.5" fill="none" /><path id="1140" transform="matrix(1 0 0 -1 0 841)" d="M65.25 360.7L530.05 360.7" stroke="#000000" stroke-width="0.5" fill="none" /><path id="1141" transform="matrix(1 0 0 -1 0 841)" d="M65.75 348.2L529.55 348.2" stroke="#000000" stroke-width="0.5" fill="none" /><path id="1142" transform="matrix(1 0 0 -1 0 841)" d="M65.75 335.7L529.55 335.7" stroke="#000000" stroke-width="0.5" fill="none" /><path id="1143" transform="matrix(1 0 0 -1 0 841)" d="M65.75 323.2L529.55 323.2" stroke="#000000" stroke-width="0.5" fill="none" /><path id="1144" transform="matrix(1 0 0 -1 0 841)" d="M65.75 310.7L529.55 310.7" stroke="#000000" stroke-width="0.5" fill="none" /><path id="1145" transform="matrix(1 0 0 -1 0 841)" d="M65.75 298.2L529.55 298.2" stroke="#000000" stroke-width="0.5" fill="none" /><path id="1146" transform="matrix(1 0 0 -1 0 841)" d="M65.75 285.7L529.55 285.7" stroke="#000000" stroke-width="0.5" fill="none" /><path id="1147" transform="matrix(1 0 0 -1 0 841)" d="M65.75 273.2L529.55 273.2" stroke="#000000" stroke-width="0.5" fill="none" /><path id="1148" transform="matrix(1 0 0 -1 0 841)" d="M65.75 260.7L529.55 260.7" stroke="#000000" stroke-width="0.5" fill="none" /><path id="1149" transform="matrix(1 0 0 -1 0 841)" d="M65.75 248.2L529.55 248.2" stroke="#000000" stroke-width="0.5" fill="none" /><path id="1150" transform="matrix(1 0 0 -1 0 841)" d="M65.75 235.7L529.55 235.7" stroke="#000000" stroke-width="0.5" fill="none" /><path id="1151" transform="matrix(1 0 0 -1 0 841)" d="M65.75 223.2L529.55 223.2" stroke="#000000" stroke-width="0.5" fill="none" /><path id="1152" transform="matrix(1 0 0 -1 0 841)" d="M65.75 210.7L529.55 210.7" stroke="#000000" stroke-width="0.5" fill="none" /><path id="1153" transform="matrix(1 0 0 -1 0 841)" d="M65.75 198.2L529.55 198.2" stroke="#000000" stroke-width="0.5" fill="none" /><path id="1154" transform="matrix(1 0 0 -1 0 841)" d="M65.75 185.7L529.55 185.7" stroke="#000000" stroke-width="0.5" fill="none" /><path id="1155" transform="matrix(1 0 0 -1 0 841)" d="M65.75 173.2L529.55 173.2" stroke="#000000" stroke-width="0.5" fill="none" /><path id="1156" transform="matrix(1 0 0 -1 0 841)" d="M65.75 160.7L529.55 160.7" stroke="#000000" stroke-width="0.5" fill="none" /><path id="1157" transform="matrix(1 0 0 -1 0 841)" d="M65.75 148.2L529.55 148.2" stroke="#000000" stroke-width="0.5" fill="none" /><path id="1158" transform="matrix(1 0 0 -1 0 841)" d="M65.25 133.65L530.05 133.65" stroke="#000000" stroke-width="0.5" fill="none" /></g></g></svg>