<svg xmlns="http://www.w3.org/2000/svg" xmlns:xlink="http://www.w3.org/1999/xlink" id="body_10" preserveAspectRatio="xMinYMin meet" viewBox="0 0 793 1121"><defs><clipPath id="1"><path id="" clip-rule="evenodd" transform="matrix(1 0 0 1 0 0)" d="M0 841L0 -0.9000244L0 -0.9000244L595.3 -0.9000244L595.3 -0.9000244L595.3 841L595.3 841L0 841z" /></clipPath><clipPath id="2"><path id="" clip-rule="evenodd" transform="matrix(1 0 0 1 0 0)" d="M0 41.59998L595.3 41.59998L595.3 41.59998L595.3 60.53198L595.3 60.53198L0 60.53198z" /></clipPath><clipPath id="3"><path id="" clip-rule="evenodd" transform="matrix(1 0 0 1 0 0)" d="M0 781.051L595.3 781.051L595.3 781.051L595.3 791.4L595.3 791.4L0 791.4z" /></clipPath><clipPath id="4"><path id="" clip-rule="evenodd" transform="matrix(1 0 0 1 0 0)" d="M64.75 131.9L471.05 131.9L471.05 131.9L471.05 145.9L471.05 145.9L64.75 145.9z" /></clipPath><clipPath id="5"><path id="" clip-rule="evenodd" transform="matrix(1 0 0 1 0 0)" d="M469.55 131.9L530.55 131.9L530.55 131.9L530.55 145.9L530.55 145.9L469.55 145.9z" /></clipPath><clipPath id="6"><path id="" clip-rule="evenodd" transform="matrix(1 0 0 1 0 0)" d="M64.75 160.5L471.2 160.5L471.2 160.5L471.2 177.5L471.2 177.5L64.75 177.5z" /></clipPath><clipPath id="7"><path id="" clip-rule="evenodd" transform="matrix(1 0 0 1 0 0)" d="M469.7 160.5L530.55 160.5L530.55 160.5L530.55 177.5L530.55 177.5L469.7 177.5z" /></clipPath><clipPath id="8"><path id="" clip-rule="evenodd" transform="matrix(1 0 0 1 0 0)" d="M64.75 176L471.2 176L471.2 176L471.2 202L471.2 202L64.75 202z" /></clipPath><clipPath id="9"><path id="" clip-rule="evenodd" transform="matrix(1 0 0 1 0 0)" d="M469.7 176L530.55 176L530.55 176L530.55 202L530.55 202L469.7 202z" /></clipPath><clipPath id="10"><path id="" clip-rule="evenodd" transform="matrix(1 0 0 1 0 0)" d="M64.75 200.5L471.2 200.5L471.2 200.5L471.2 226.5L471.2 226.5L64.75 226.5z" /></clipPath><clipPath id="11"><path id="" clip-rule="evenodd" transform="matrix(1 0 0 1 0 0)" d="M469.7 200.5L530.55 200.5L530.55 200.5L530.55 226.5L530.55 226.5L469.7 226.5z" /></clipPath><clipPath id="12"><path id="" clip-rule="evenodd" transform="matrix(1 0 0 1 0 0)" d="M64.75 225L471.2 225L471.2 225L471.2 251L471.2 251L64.75 251z" /></clipPath><clipPath id="13"><path id="" clip-rule="evenodd" transform="matrix(1 0 0 1 0 0)" d="M469.7 225L530.55 225L530.55 225L530.55 251L530.55 251L469.7 251z" /></clipPath><clipPath id="14"><path id="" clip-rule="evenodd" transform="matrix(1 0 0 1 0 0)" d="M82.775 251.408L104.025 251.408L104.025 251.408L104.025 1044.158L104.025 1044.158L82.775 1044.158z" /></clipPath><clipPath id="15"><path id="" clip-rule="evenodd" transform="matrix(1 0 0 1 0 0)" d="M85.025 251.408L101.775 251.408L101.775 251.408L101.775 1044.158L101.775 1044.158L85.025 1044.158z" /></clipPath><clipPath id="16"><path id="" clip-rule="evenodd" transform="matrix(1 0 0 1 0 0)" d="M82.905 267.0081L104.155 267.0081L104.155 267.0081L104.155 1059.758L104.155 1059.758L82.905 1059.758z" /></clipPath><clipPath id="17"><path id="" clip-rule="evenodd" transform="matrix(1 0 0 1 0 0)" d="M85.155 267.0081L101.905 267.0081L101.905 267.0081L101.905 1059.758L101.905 1059.758L85.155 1059.758z" /></clipPath><clipPath id="18"><path id="" clip-rule="evenodd" transform="matrix(1 0 0 1 0 0)" d="M85.215 313.808L106.465 313.808L106.465 313.808L106.465 1106.558L106.465 1106.558L85.215 1106.558z" /></clipPath><clipPath id="19"><path id="" clip-rule="evenodd" transform="matrix(1 0 0 1 0 0)" d="M87.465 313.808L104.215 313.808L104.215 313.808L104.215 1106.558L104.215 1106.558L87.465 1106.558z" /></clipPath><clipPath id="20"><path id="" clip-rule="evenodd" transform="matrix(1 0 0 1 0 0)" d="M64.75 406L470.55 406L470.55 406L470.55 420L470.55 420L64.75 420z" /></clipPath><clipPath id="21"><path id="" clip-rule="evenodd" transform="matrix(1 0 0 1 0 0)" d="M469.05 406L530.55 406L530.55 406L530.55 420L530.55 420L469.05 420z" /></clipPath><clipPath id="22"><path id="" clip-rule="evenodd" transform="matrix(1 0 0 1 0 0)" d="M64.75 528.2L469.25 528.2L469.25 528.2L469.25 542.75L469.25 542.75L64.75 542.75z" /></clipPath><clipPath id="23"><path id="" clip-rule="evenodd" transform="matrix(1 0 0 1 0 0)" d="M467.75 528.2L530.55 528.2L530.55 528.2L530.55 542.75L530.55 542.75L467.75 542.75z" /></clipPath><clipPath id="24"><path id="" clip-rule="evenodd" transform="matrix(1 0 0 1 0 0)" d="M64.75 541.25L469.25 541.25L469.25 541.25L469.25 555.25L469.25 555.25L64.75 555.25z" /></clipPath><clipPath id="25"><path id="" clip-rule="evenodd" transform="matrix(1 0 0 1 0 0)" d="M467.75 541.25L530.55 541.25L530.55 541.25L530.55 555.25L530.55 555.25L467.75 555.25z" /></clipPath><clipPath id="26"><path id="" clip-rule="evenodd" transform="matrix(1 0 0 1 0 0)" d="M64.75 553.75L469.25 553.75L469.25 553.75L469.25 568.1L469.25 568.1L64.75 568.1z" /></clipPath><clipPath id="27"><path id="" clip-rule="evenodd" transform="matrix(1 0 0 1 0 0)" d="M467.75 553.75L530.55 553.75L530.55 553.75L530.55 568.1L530.55 568.1L467.75 568.1z" /></clipPath><clipPath id="28"><path id="" clip-rule="evenodd" transform="matrix(1 0 0 1 0 0)" d="M64.75 566.6L469.25 566.6L469.25 566.6L469.25 580.6L469.25 580.6L64.75 580.6z" /></clipPath><clipPath id="29"><path id="" clip-rule="evenodd" transform="matrix(1 0 0 1 0 0)" d="M467.75 566.6L530.55 566.6L530.55 566.6L530.55 580.6L530.55 580.6L467.75 580.6z" /></clipPath><clipPath id="30"><path id="" clip-rule="evenodd" transform="matrix(1 0 0 1 0 0)" d="M64.75 579.1L469.25 579.1L469.25 579.1L469.25 593.1L469.25 593.1L64.75 593.1z" /></clipPath><clipPath id="31"><path id="" clip-rule="evenodd" transform="matrix(1 0 0 1 0 0)" d="M467.75 579.1L530.55 579.1L530.55 579.1L530.55 593.1L530.55 593.1L467.75 593.1z" /></clipPath><clipPath id="32"><path id="" clip-rule="evenodd" transform="matrix(1 0 0 1 0 0)" d="M64.75 591.6L469.25 591.6L469.25 591.6L469.25 605.6L469.25 605.6L64.75 605.6z" /></clipPath><clipPath id="33"><path id="" clip-rule="evenodd" transform="matrix(1 0 0 1 0 0)" d="M467.75 591.6L530.55 591.6L530.55 591.6L530.55 605.6L530.55 605.6L467.75 605.6z" /></clipPath><clipPath id="34"><path id="" clip-rule="evenodd" transform="matrix(1 0 0 1 0 0)" d="M64.75 604.1L469.25 604.1L469.25 604.1L469.25 618.5L469.25 618.5L64.75 618.5z" /></clipPath><clipPath id="35"><path id="" clip-rule="evenodd" transform="matrix(1 0 0 1 0 0)" d="M467.75 604.1L530.55 604.1L530.55 604.1L530.55 618.5L530.55 618.5L467.75 618.5z" /></clipPath><clipPath id="36"><path id="" clip-rule="evenodd" transform="matrix(1 0 0 1 0 0)" d="M64.75 648.7L470.65 648.7L470.65 648.7L470.65 662.7L470.65 662.7L64.75 662.7z" /></clipPath><clipPath id="37"><path id="" clip-rule="evenodd" transform="matrix(1 0 0 1 0 0)" d="M469.15 648.7L530.55 648.7L530.55 648.7L530.55 662.7L530.55 662.7L469.15 662.7z" /></clipPath><clipPath id="38"><path id="" clip-rule="evenodd" transform="matrix(1 0 0 1 0 0)" d="M64.75 661.2L470.65 661.2L470.65 661.2L470.65 675.2L470.65 675.2L64.75 675.2z" /></clipPath><clipPath id="39"><path id="" clip-rule="evenodd" transform="matrix(1 0 0 1 0 0)" d="M469.15 661.2L530.55 661.2L530.55 661.2L530.55 675.2L530.55 675.2L469.15 675.2z" /></clipPath><clipPath id="40"><path id="" clip-rule="evenodd" transform="matrix(1 0 0 1 0 0)" d="M64.75 673.7L470.65 673.7L470.65 673.7L470.65 687.7L470.65 687.7L64.75 687.7z" /></clipPath><clipPath id="41"><path id="" clip-rule="evenodd" transform="matrix(1 0 0 1 0 0)" d="M469.15 673.7L530.55 673.7L530.55 673.7L530.55 687.7L530.55 687.7L469.15 687.7z" /></clipPath><clipPath id="42"><path id="" clip-rule="evenodd" transform="matrix(1 0 0 1 0 0)" d="M64.75 686.2L470.65 686.2L470.65 686.2L470.65 700.2L470.65 700.2L64.75 700.2z" /></clipPath><clipPath id="43"><path id="" clip-rule="evenodd" transform="matrix(1 0 0 1 0 0)" d="M469.15 686.2L530.55 686.2L530.55 686.2L530.55 700.2L530.55 700.2L469.15 700.2z" /></clipPath><clipPath id="44"><path id="" clip-rule="evenodd" transform="matrix(1 0 0 1 0 0)" d="M64.75 698.7L470.65 698.7L470.65 698.7L470.65 712.7L470.65 712.7L64.75 712.7z" /></clipPath><clipPath id="45"><path id="" clip-rule="evenodd" transform="matrix(1 0 0 1 0 0)" d="M469.15 698.7L530.55 698.7L530.55 698.7L530.55 712.7L530.55 712.7L469.15 712.7z" /></clipPath><clipPath id="46"><path id="" clip-rule="evenodd" transform="matrix(1 0 0 1 0 0)" d="M64.75 711.2L470.65 711.2L470.65 711.2L470.65 725.2L470.65 725.2L64.75 725.2z" /></clipPath><clipPath id="47"><path id="" clip-rule="evenodd" transform="matrix(1 0 0 1 0 0)" d="M469.15 711.2L530.55 711.2L530.55 711.2L530.55 725.2L530.55 725.2L469.15 725.2z" /></clipPath><clipPath id="48"><path id="" clip-rule="evenodd" transform="matrix(1 0 0 1 0 0)" d="M64.75 723.7L470.65 723.7L470.65 723.7L470.65 737.7L470.65 737.7L64.75 737.7z" /></clipPath><clipPath id="49"><path id="" clip-rule="evenodd" transform="matrix(1 0 0 1 0 0)" d="M469.15 723.7L530.55 723.7L530.55 723.7L530.55 737.7L530.55 737.7L469.15 737.7z" /></clipPath><clipPath id="50"><path id="" clip-rule="evenodd" transform="matrix(1 0 0 1 0 0)" d="M64.75 736.2L470.65 736.2L470.65 736.2L470.65 750.2L470.65 750.2L64.75 750.2z" /></clipPath><clipPath id="51"><path id="" clip-rule="evenodd" transform="matrix(1 0 0 1 0 0)" d="M469.15 736.2L530.55 736.2L530.55 736.2L530.55 750.2L530.55 750.2L469.15 750.2z" /></clipPath><clipPath id="52"><path id="" clip-rule="evenodd" transform="matrix(1 0 0 1 0 0)" d="M64.75 748.7L470.65 748.7L470.65 748.7L470.65 762.7L470.65 762.7L64.75 762.7z" /></clipPath><clipPath id="53"><path id="" clip-rule="evenodd" transform="matrix(1 0 0 1 0 0)" d="M469.15 748.7L530.55 748.7L530.55 748.7L530.55 762.7L530.55 762.7L469.15 762.7z" /></clipPath></defs><g transform="matrix(1.333333 0 0 1.333333 0 0)"><g clip-path="url(#1)"><g clip-path="url(#2)"><path id="13" transform="matrix(1 0 0 -1 0 841)" d="M69.45 780.718L525.85 780.718" stroke="#000000" stroke-width="0.5" fill="none" /></g><g clip-path="url(#3)"></g><g clip-path="url(#4)"></g><g clip-path="url(#5)"></g><path id="134" transform="matrix(1 0 0 -1 0 841)" d="M65.5 708.1L65.5 696.1" stroke="#000000" stroke-width="0.5" fill="none" /><path id="135" transform="matrix(1 0 0 -1 0 841)" d="M470.3 708.1L470.3 696.1" stroke="#000000" stroke-width="0.5" fill="none" /><path id="136" transform="matrix(1 0 0 -1 0 841)" d="M529.8 708.1L529.8 696.1" stroke="#000000" stroke-width="0.5" fill="none" /><path id="137" transform="matrix(1 0 0 -1 0 841)" d="M65.25 708.35L530.05 708.35" stroke="#000000" stroke-width="0.5" fill="none" /><path id="138" transform="matrix(1 0 0 -1 0 841)" d="M65.25 695.85L530.05 695.85" stroke="#000000" stroke-width="0.5" fill="none" /><g clip-path="url(#6)"></g><g clip-path="url(#7)"></g><g clip-path="url(#8)"></g><g clip-path="url(#9)"></g><g clip-path="url(#10)"></g><g clip-path="url(#11)"></g><g clip-path="url(#12)"></g><g clip-path="url(#13)"></g><path id="359" transform="matrix(1 0 0 -1 0 841)" d="M65.5 679.5L65.5 591" stroke="#000000" stroke-width="0.5" fill="none" /><path id="360" transform="matrix(1 0 0 -1 0 841)" d="M470.45 679.5L470.45 664.5" stroke="#000000" stroke-width="0.5" fill="none" /><path id="361" transform="matrix(1 0 0 -1 0 841)" d="M470.45 664L470.45 640" stroke="#000000" stroke-width="0.5" fill="none" /><path id="362" transform="matrix(1 0 0 -1 0 841)" d="M470.45 639.5L470.45 615.5" stroke="#000000" stroke-width="0.5" fill="none" /><path id="363" transform="matrix(1 0 0 -1 0 841)" d="M470.45 615L470.45 591" stroke="#000000" stroke-width="0.5" fill="none" /><path id="364" transform="matrix(1 0 0 -1 0 841)" d="M529.8 679.5L529.8 591" stroke="#000000" stroke-width="0.5" fill="none" /><path id="365" transform="matrix(1 0 0 -1 0 841)" d="M65.25 679.75L530.05 679.75" stroke="#000000" stroke-width="0.5" fill="none" /><path id="366" transform="matrix(1 0 0 -1 0 841)" d="M65.75 664.25L529.55 664.25" stroke="#000000" stroke-width="0.5" fill="none" /><path id="367" transform="matrix(1 0 0 -1 0 841)" d="M65.75 639.75L529.55 639.75" stroke="#000000" stroke-width="0.5" fill="none" /><path id="368" transform="matrix(1 0 0 -1 0 841)" d="M65.75 615.25L529.55 615.25" stroke="#000000" stroke-width="0.5" fill="none" /><path id="369" transform="matrix(1 0 0 -1 0 841)" d="M65.25 590.75L530.05 590.75" stroke="#000000" stroke-width="0.5" fill="none" /><g clip-path="url(#14)"></g><g clip-path="url(#15)"></g><g clip-path="url(#16)"></g><g clip-path="url(#17)"></g><g clip-path="url(#18)"></g><g clip-path="url(#19)"></g><g clip-path="url(#20)"></g><g clip-path="url(#21)"></g><path id="753" transform="matrix(1 0 0 -1 0 841)" d="M65.5 434L65.5 422" stroke="#000000" stroke-width="0.5" fill="none" /><path id="754" transform="matrix(1 0 0 -1 0 841)" d="M469.8 434L469.8 422" stroke="#000000" stroke-width="0.5" fill="none" /><path id="755" transform="matrix(1 0 0 -1 0 841)" d="M529.8 434L529.8 422" stroke="#000000" stroke-width="0.5" fill="none" /><path id="756" transform="matrix(1 0 0 -1 0 841)" d="M65.25 434.25L530.05 434.25" stroke="#000000" stroke-width="0.5" fill="none" /><path id="757" transform="matrix(1 0 0 -1 0 841)" d="M65.25 421.75L530.05 421.75" stroke="#000000" stroke-width="0.5" fill="none" /><g clip-path="url(#22)"></g><g clip-path="url(#23)"></g><g clip-path="url(#24)"></g><g clip-path="url(#25)"></g><g clip-path="url(#26)"></g><g clip-path="url(#27)"></g><g clip-path="url(#28)"></g><g clip-path="url(#29)"></g><g clip-path="url(#30)"></g><g clip-path="url(#31)"></g><g clip-path="url(#32)"></g><g clip-path="url(#33)"></g><g clip-path="url(#34)"></g><g clip-path="url(#35)"></g><path id="1058" transform="matrix(1 0 0 -1 0 841)" d="M65.5 311.8L65.5 223.5" stroke="#000000" stroke-width="0.5" fill="none" /><path id="1059" transform="matrix(1 0 0 -1 0 841)" d="M468.5 311.8L468.5 299.25" stroke="#000000" stroke-width="0.5" fill="none" /><path id="1060" transform="matrix(1 0 0 -1 0 841)" d="M468.5 298.75L468.5 286.75" stroke="#000000" stroke-width="0.5" fill="none" /><path id="1061" transform="matrix(1 0 0 -1 0 841)" d="M468.5 286.25L468.5 273.9" stroke="#000000" stroke-width="0.5" fill="none" /><path id="1062" transform="matrix(1 0 0 -1 0 841)" d="M468.5 273.4L468.5 261.4" stroke="#000000" stroke-width="0.5" fill="none" /><path id="1063" transform="matrix(1 0 0 -1 0 841)" d="M468.5 260.9L468.5 248.9" stroke="#000000" stroke-width="0.5" fill="none" /><path id="1064" transform="matrix(1 0 0 -1 0 841)" d="M468.5 248.4L468.5 236.4" stroke="#000000" stroke-width="0.5" fill="none" /><path id="1065" transform="matrix(1 0 0 -1 0 841)" d="M468.5 235.9L468.5 223.5" stroke="#000000" stroke-width="0.5" fill="none" /><path id="1066" transform="matrix(1 0 0 -1 0 841)" d="M529.8 311.8L529.8 223.5" stroke="#000000" stroke-width="0.5" fill="none" /><path id="1067" transform="matrix(1 0 0 -1 0 841)" d="M65.25 312.05L530.05 312.05" stroke="#000000" stroke-width="0.5" fill="none" /><path id="1068" transform="matrix(1 0 0 -1 0 841)" d="M65.75 299L529.55 299" stroke="#000000" stroke-width="0.5" fill="none" /><path id="1069" transform="matrix(1 0 0 -1 0 841)" d="M65.75 286.5L529.55 286.5" stroke="#000000" stroke-width="0.5" fill="none" /><path id="1070" transform="matrix(1 0 0 -1 0 841)" d="M65.75 273.65L529.55 273.65" stroke="#000000" stroke-width="0.5" fill="none" /><path id="1071" transform="matrix(1 0 0 -1 0 841)" d="M65.75 261.15L529.55 261.15" stroke="#000000" stroke-width="0.5" fill="none" /><path id="1072" transform="matrix(1 0 0 -1 0 841)" d="M65.75 248.65L529.55 248.65" stroke="#000000" stroke-width="0.5" fill="none" /><path id="1073" transform="matrix(1 0 0 -1 0 841)" d="M65.75 236.15L529.55 236.15" stroke="#000000" stroke-width="0.5" fill="none" /><path id="1074" transform="matrix(1 0 0 -1 0 841)" d="M65.25 223.25L530.05 223.25" stroke="#000000" stroke-width="0.5" fill="none" /><g clip-path="url(#36)"></g><g clip-path="url(#37)"></g><g clip-path="url(#38)"></g><g clip-path="url(#39)"></g><g clip-path="url(#40)"></g><g clip-path="url(#41)"></g><g clip-path="url(#42)"></g><g clip-path="url(#43)"></g><g clip-path="url(#44)"></g><g clip-path="url(#45)"></g><g clip-path="url(#46)"></g><g clip-path="url(#47)"></g><g clip-path="url(#48)"></g><g clip-path="url(#49)"></g><g clip-path="url(#50)"></g><g clip-path="url(#51)"></g><g clip-path="url(#52)"></g><g clip-path="url(#53)"></g><path id="1232" transform="matrix(1 0 0 -1 0 841)" d="M65.5 191.3L65.5 79.29999" stroke="#000000" stroke-width="0.5" fill="none" /><path id="1233" transform="matrix(1 0 0 -1 0 841)" d="M469.9 191.3L469.9 179.3" stroke="#000000" stroke-width="0.5" fill="none" /><path id="1234" transform="matrix(1 0 0 -1 0 841)" d="M469.9 178.8L469.9 166.8" stroke="#000000" stroke-width="0.5" fill="none" /><path id="1235" transform="matrix(1 0 0 -1 0 841)" d="M469.9 166.3L469.9 154.3" stroke="#000000" stroke-width="0.5" fill="none" /><path id="1236" transform="matrix(1 0 0 -1 0 841)" d="M469.9 153.8L469.9 141.8" stroke="#000000" stroke-width="0.5" fill="none" /><path id="1237" transform="matrix(1 0 0 -1 0 841)" d="M469.9 141.3L469.9 129.3" stroke="#000000" stroke-width="0.5" fill="none" /><path id="1238" transform="matrix(1 0 0 -1 0 841)" d="M469.9 128.8L469.9 116.8" stroke="#000000" stroke-width="0.5" fill="none" /><path id="1239" transform="matrix(1 0 0 -1 0 841)" d="M469.9 116.3L469.9 104.3" stroke="#000000" stroke-width="0.5" fill="none" /><path id="1240" transform="matrix(1 0 0 -1 0 841)" d="M469.9 103.8L469.9 91.79999" stroke="#000000" stroke-width="0.5" fill="none" /><path id="1241" transform="matrix(1 0 0 -1 0 841)" d="M469.9 91.29999L469.9 79.29999" stroke="#000000" stroke-width="0.5" fill="none" /><path id="1242" transform="matrix(1 0 0 -1 0 841)" d="M529.8 191.3L529.8 79.29999" stroke="#000000" stroke-width="0.5" fill="none" /><path id="1243" transform="matrix(1 0 0 -1 0 841)" d="M65.25 191.55L530.05 191.55" stroke="#000000" stroke-width="0.5" fill="none" /><path id="1244" transform="matrix(1 0 0 -1 0 841)" d="M65.75 179.05L529.55 179.05" stroke="#000000" stroke-width="0.5" fill="none" /><path id="1245" transform="matrix(1 0 0 -1 0 841)" d="M65.75 166.55L529.55 166.55" stroke="#000000" stroke-width="0.5" fill="none" /><path id="1246" transform="matrix(1 0 0 -1 0 841)" d="M65.75 154.05L529.55 154.05" stroke="#000000" stroke-width="0.5" fill="none" /><path id="1247" transform="matrix(1 0 0 -1 0 841)" d="M65.75 141.55L529.55 141.55" stroke="#000000" stroke-width="0.5" fill="none" /><path id="1248" transform="matrix(1 0 0 -1 0 841)" d="M65.75 129.05L529.55 129.05" stroke="#000000" stroke-width="0.5" fill="none" /><path id="1249" transform="matrix(1 0 0 -1 0 841)" d="M65.75 116.55L529.55 116.55" stroke="#000000" stroke-width="0.5" fill="none" /><path id="1250" transform="matrix(1 0 0 -1 0 841)" d="M65.75 104.05L529.55 104.05" stroke="#000000" stroke-width="0.5" fill="none" /><path id="1251" transform="matrix(1 0 0 -1 0 841)" d="M65.75 91.54999L529.55 91.54999" stroke="#000000" stroke-width="0.5" fill="none" /><path id="1252" transform="matrix(1 0 0 -1 0 841)" d="M65.25 79.04999L530.05 79.04999" stroke="#000000" stroke-width="0.5" fill="none" /></g></g></svg>