<svg xmlns="http://www.w3.org/2000/svg" xmlns:xlink="http://www.w3.org/1999/xlink" id="body_17" preserveAspectRatio="xMinYMin meet" viewBox="0 0 793 1121"><defs><clipPath id="1"><path id="" clip-rule="evenodd" transform="matrix(1 0 0 1 0 0)" d="M0 841L0 -0.9000244L0 -0.9000244L595.3 -0.9000244L595.3 -0.9000244L595.3 841L595.3 841L0 841z" /></clipPath><clipPath id="2"><path id="" clip-rule="evenodd" transform="matrix(1 0 0 1 0 0)" d="M0 41.59998L595.3 41.59998L595.3 41.59998L595.3 60.53198L595.3 60.53198L0 60.53198z" /></clipPath><clipPath id="3"><path id="" clip-rule="evenodd" transform="matrix(1 0 0 1 0 0)" d="M0 781.051L595.3 781.051L595.3 781.051L595.3 791.4L595.3 791.4L0 791.4z" /></clipPath><clipPath id="4"><path id="" clip-rule="evenodd" transform="matrix(1 0 0 1 0 0)" d="M64.75 209.9L472.15 209.9L472.15 209.9L472.15 223.9L472.15 223.9L64.75 223.9z" /></clipPath><clipPath id="5"><path id="" clip-rule="evenodd" transform="matrix(1 0 0 1 0 0)" d="M470.65 209.9L530.55 209.9L530.55 209.9L530.55 223.9L530.55 223.9L470.65 223.9z" /></clipPath><clipPath id="6"><path id="" clip-rule="evenodd" transform="matrix(1 0 0 1 0 0)" d="M64.75 222.4L472.15 222.4L472.15 222.4L472.15 236.4L472.15 236.4L64.75 236.4z" /></clipPath><clipPath id="7"><path id="" clip-rule="evenodd" transform="matrix(1 0 0 1 0 0)" d="M470.65 222.4L530.55 222.4L530.55 222.4L530.55 236.4L530.55 236.4L470.65 236.4z" /></clipPath><clipPath id="8"><path id="" clip-rule="evenodd" transform="matrix(1 0 0 1 0 0)" d="M64.75 234.9L472.15 234.9L472.15 234.9L472.15 248.9L472.15 248.9L64.75 248.9z" /></clipPath><clipPath id="9"><path id="" clip-rule="evenodd" transform="matrix(1 0 0 1 0 0)" d="M470.65 234.9L530.55 234.9L530.55 234.9L530.55 248.9L530.55 248.9L470.65 248.9z" /></clipPath><clipPath id="10"><path id="" clip-rule="evenodd" transform="matrix(1 0 0 1 0 0)" d="M64.75 247.4L472.15 247.4L472.15 247.4L472.15 261.4L472.15 261.4L64.75 261.4z" /></clipPath><clipPath id="11"><path id="" clip-rule="evenodd" transform="matrix(1 0 0 1 0 0)" d="M470.65 247.4L530.55 247.4L530.55 247.4L530.55 261.4L530.55 261.4L470.65 261.4z" /></clipPath><clipPath id="12"><path id="" clip-rule="evenodd" transform="matrix(1 0 0 1 0 0)" d="M64.75 259.9L472.15 259.9L472.15 259.9L472.15 273.9L472.15 273.9L64.75 273.9z" /></clipPath><clipPath id="13"><path id="" clip-rule="evenodd" transform="matrix(1 0 0 1 0 0)" d="M470.65 259.9L530.55 259.9L530.55 259.9L530.55 273.9L530.55 273.9L470.65 273.9z" /></clipPath><clipPath id="14"><path id="" clip-rule="evenodd" transform="matrix(1 0 0 1 0 0)" d="M64.75 272.4L472.15 272.4L472.15 272.4L472.15 286.4L472.15 286.4L64.75 286.4z" /></clipPath><clipPath id="15"><path id="" clip-rule="evenodd" transform="matrix(1 0 0 1 0 0)" d="M470.65 272.4L530.55 272.4L530.55 272.4L530.55 286.4L530.55 286.4L470.65 286.4z" /></clipPath><clipPath id="16"><path id="" clip-rule="evenodd" transform="matrix(1 0 0 1 0 0)" d="M64.75 284.9L472.15 284.9L472.15 284.9L472.15 298.9L472.15 298.9L64.75 298.9z" /></clipPath><clipPath id="17"><path id="" clip-rule="evenodd" transform="matrix(1 0 0 1 0 0)" d="M470.65 284.9L530.55 284.9L530.55 284.9L530.55 298.9L530.55 298.9L470.65 298.9z" /></clipPath><clipPath id="18"><path id="" clip-rule="evenodd" transform="matrix(1 0 0 1 0 0)" d="M64.75 297.4L472.15 297.4L472.15 297.4L472.15 311.4L472.15 311.4L64.75 311.4z" /></clipPath><clipPath id="19"><path id="" clip-rule="evenodd" transform="matrix(1 0 0 1 0 0)" d="M470.65 297.4L530.55 297.4L530.55 297.4L530.55 311.4L530.55 311.4L470.65 311.4z" /></clipPath><clipPath id="20"><path id="" clip-rule="evenodd" transform="matrix(1 0 0 1 0 0)" d="M64.75 309.9L472.15 309.9L472.15 309.9L472.15 323.9L472.15 323.9L64.75 323.9z" /></clipPath><clipPath id="21"><path id="" clip-rule="evenodd" transform="matrix(1 0 0 1 0 0)" d="M470.65 309.9L530.55 309.9L530.55 309.9L530.55 323.9L530.55 323.9L470.65 323.9z" /></clipPath><clipPath id="22"><path id="" clip-rule="evenodd" transform="matrix(1 0 0 1 0 0)" d="M64.75 322.4L472.15 322.4L472.15 322.4L472.15 337.9L472.15 337.9L64.75 337.9z" /></clipPath><clipPath id="23"><path id="" clip-rule="evenodd" transform="matrix(1 0 0 1 0 0)" d="M470.65 322.4L530.55 322.4L530.55 322.4L530.55 337.9L530.55 337.9L470.65 337.9z" /></clipPath><clipPath id="24"><path id="" clip-rule="evenodd" transform="matrix(1 0 0 1 0 0)" d="M64.75 336.4L472.15 336.4L472.15 336.4L472.15 350.4L472.15 350.4L64.75 350.4z" /></clipPath><clipPath id="25"><path id="" clip-rule="evenodd" transform="matrix(1 0 0 1 0 0)" d="M470.65 336.4L530.55 336.4L530.55 336.4L530.55 350.4L530.55 350.4L470.65 350.4z" /></clipPath><clipPath id="26"><path id="" clip-rule="evenodd" transform="matrix(1 0 0 1 0 0)" d="M64.75 348.9L472.15 348.9L472.15 348.9L472.15 364.4L472.15 364.4L64.75 364.4z" /></clipPath><clipPath id="27"><path id="" clip-rule="evenodd" transform="matrix(1 0 0 1 0 0)" d="M470.65 348.9L530.55 348.9L530.55 348.9L530.55 364.4L530.55 364.4L470.65 364.4z" /></clipPath><clipPath id="28"><path id="" clip-rule="evenodd" transform="matrix(1 0 0 1 0 0)" d="M64.75 362.9L472.15 362.9L472.15 362.9L472.15 376.9L472.15 376.9L64.75 376.9z" /></clipPath><clipPath id="29"><path id="" clip-rule="evenodd" transform="matrix(1 0 0 1 0 0)" d="M470.65 362.9L530.55 362.9L530.55 362.9L530.55 376.9L530.55 376.9L470.65 376.9z" /></clipPath><clipPath id="30"><path id="" clip-rule="evenodd" transform="matrix(1 0 0 1 0 0)" d="M64.75 375.4L472.15 375.4L472.15 375.4L472.15 389.4L472.15 389.4L64.75 389.4z" /></clipPath><clipPath id="31"><path id="" clip-rule="evenodd" transform="matrix(1 0 0 1 0 0)" d="M470.65 375.4L530.55 375.4L530.55 375.4L530.55 389.4L530.55 389.4L470.65 389.4z" /></clipPath><clipPath id="32"><path id="" clip-rule="evenodd" transform="matrix(1 0 0 1 0 0)" d="M64.75 387.9L472.15 387.9L472.15 387.9L472.15 401.9L472.15 401.9L64.75 401.9z" /></clipPath><clipPath id="33"><path id="" clip-rule="evenodd" transform="matrix(1 0 0 1 0 0)" d="M470.65 387.9L530.55 387.9L530.55 387.9L530.55 401.9L530.55 401.9L470.65 401.9z" /></clipPath><clipPath id="34"><path id="" clip-rule="evenodd" transform="matrix(1 0 0 1 0 0)" d="M64.75 400.4L472.15 400.4L472.15 400.4L472.15 414.4L472.15 414.4L64.75 414.4z" /></clipPath><clipPath id="35"><path id="" clip-rule="evenodd" transform="matrix(1 0 0 1 0 0)" d="M470.65 400.4L530.55 400.4L530.55 400.4L530.55 414.4L530.55 414.4L470.65 414.4z" /></clipPath><clipPath id="36"><path id="" clip-rule="evenodd" transform="matrix(1 0 0 1 0 0)" d="M64.75 412.9L472.15 412.9L472.15 412.9L472.15 426.9L472.15 426.9L64.75 426.9z" /></clipPath><clipPath id="37"><path id="" clip-rule="evenodd" transform="matrix(1 0 0 1 0 0)" d="M470.65 412.9L530.55 412.9L530.55 412.9L530.55 426.9L530.55 426.9L470.65 426.9z" /></clipPath><clipPath id="38"><path id="" clip-rule="evenodd" transform="matrix(1 0 0 1 0 0)" d="M64.75 425.4L472.15 425.4L472.15 425.4L472.15 447.25L472.15 447.25L64.75 447.25z" /></clipPath><clipPath id="39"><path id="" clip-rule="evenodd" transform="matrix(1 0 0 1 0 0)" d="M470.65 425.4L530.55 425.4L530.55 425.4L530.55 447.25L530.55 447.25L470.65 447.25z" /></clipPath><clipPath id="40"><path id="" clip-rule="evenodd" transform="matrix(1 0 0 1 0 0)" d="M64.75 539.85L472.15 539.85L472.15 539.85L472.15 553.85L472.15 553.85L64.75 553.85z" /></clipPath><clipPath id="41"><path id="" clip-rule="evenodd" transform="matrix(1 0 0 1 0 0)" d="M470.4 539.85L530.55 539.85L530.55 539.85L530.55 553.85L530.55 553.85L470.4 553.85z" /></clipPath><clipPath id="42"><path id="" clip-rule="evenodd" transform="matrix(1 0 0 1 0 0)" d="M64.75 551.85L472.15 551.85L472.15 551.85L472.15 566.35L472.15 566.35L64.75 566.35z" /></clipPath><clipPath id="43"><path id="" clip-rule="evenodd" transform="matrix(1 0 0 1 0 0)" d="M470.4 552.35L530.55 552.35L530.55 552.35L530.55 566.35L530.55 566.35L470.4 566.35z" /></clipPath><clipPath id="44"><path id="" clip-rule="evenodd" transform="matrix(1 0 0 1 0 0)" d="M64.75 564.35L472.15 564.35L472.15 564.35L472.15 578.85L472.15 578.85L64.75 578.85z" /></clipPath><clipPath id="45"><path id="" clip-rule="evenodd" transform="matrix(1 0 0 1 0 0)" d="M470.4 564.35L530.55 564.35L530.55 564.35L530.55 578.85L530.55 578.85L470.4 578.85z" /></clipPath><clipPath id="46"><path id="" clip-rule="evenodd" transform="matrix(1 0 0 1 0 0)" d="M64.75 576.85L472.15 576.85L472.15 576.85L472.15 591.35L472.15 591.35L64.75 591.35z" /></clipPath><clipPath id="47"><path id="" clip-rule="evenodd" transform="matrix(1 0 0 1 0 0)" d="M470.4 576.85L530.55 576.85L530.55 576.85L530.55 591.35L530.55 591.35L470.4 591.35z" /></clipPath><clipPath id="48"><path id="" clip-rule="evenodd" transform="matrix(1 0 0 1 0 0)" d="M64.75 589.35L472.15 589.35L472.15 589.35L472.15 603.85L472.15 603.85L64.75 603.85z" /></clipPath><clipPath id="49"><path id="" clip-rule="evenodd" transform="matrix(1 0 0 1 0 0)" d="M470.4 589.35L530.55 589.35L530.55 589.35L530.55 603.85L530.55 603.85L470.4 603.85z" /></clipPath><clipPath id="50"><path id="" clip-rule="evenodd" transform="matrix(1 0 0 1 0 0)" d="M64.75 601.85L472.15 601.85L472.15 601.85L472.15 616.35L472.15 616.35L64.75 616.35z" /></clipPath><clipPath id="51"><path id="" clip-rule="evenodd" transform="matrix(1 0 0 1 0 0)" d="M470.4 601.85L530.55 601.85L530.55 601.85L530.55 616.35L530.55 616.35L470.4 616.35z" /></clipPath><clipPath id="52"><path id="" clip-rule="evenodd" transform="matrix(1 0 0 1 0 0)" d="M64.75 614.35L472.15 614.35L472.15 614.35L472.15 629.6L472.15 629.6L64.75 629.6z" /></clipPath><clipPath id="53"><path id="" clip-rule="evenodd" transform="matrix(1 0 0 1 0 0)" d="M470.4 614.35L530.55 614.35L530.55 614.35L530.55 629.6L530.55 629.6L470.4 629.6z" /></clipPath><clipPath id="54"><path id="" clip-rule="evenodd" transform="matrix(1 0 0 1 0 0)" d="M64.75 627.6L472.15 627.6L472.15 627.6L472.15 642.1L472.15 642.1L64.75 642.1z" /></clipPath><clipPath id="55"><path id="" clip-rule="evenodd" transform="matrix(1 0 0 1 0 0)" d="M470.4 627.6L530.55 627.6L530.55 627.6L530.55 642.1L530.55 642.1L470.4 642.1z" /></clipPath><clipPath id="56"><path id="" clip-rule="evenodd" transform="matrix(1 0 0 1 0 0)" d="M64.75 640.1L472.15 640.1L472.15 640.1L472.15 654.6L472.15 654.6L64.75 654.6z" /></clipPath><clipPath id="57"><path id="" clip-rule="evenodd" transform="matrix(1 0 0 1 0 0)" d="M470.4 640.1L530.55 640.1L530.55 640.1L530.55 654.6L530.55 654.6L470.4 654.6z" /></clipPath><clipPath id="58"><path id="" clip-rule="evenodd" transform="matrix(1 0 0 1 0 0)" d="M64.75 652.6L472.15 652.6L472.15 652.6L472.15 667.1L472.15 667.1L64.75 667.1z" /></clipPath><clipPath id="59"><path id="" clip-rule="evenodd" transform="matrix(1 0 0 1 0 0)" d="M470.4 652.6L530.55 652.6L530.55 652.6L530.55 667.1L530.55 667.1L470.4 667.1z" /></clipPath><clipPath id="60"><path id="" clip-rule="evenodd" transform="matrix(1 0 0 1 0 0)" d="M64.75 665.1L472.15 665.1L472.15 665.1L472.15 679.6L472.15 679.6L64.75 679.6z" /></clipPath><clipPath id="61"><path id="" clip-rule="evenodd" transform="matrix(1 0 0 1 0 0)" d="M470.4 665.1L530.55 665.1L530.55 665.1L530.55 679.6L530.55 679.6L470.4 679.6z" /></clipPath><clipPath id="62"><path id="" clip-rule="evenodd" transform="matrix(1 0 0 1 0 0)" d="M64.75 677.6L472.15 677.6L472.15 677.6L472.15 692.1L472.15 692.1L64.75 692.1z" /></clipPath><clipPath id="63"><path id="" clip-rule="evenodd" transform="matrix(1 0 0 1 0 0)" d="M470.4 677.6L530.55 677.6L530.55 677.6L530.55 692.1L530.55 692.1L470.4 692.1z" /></clipPath><clipPath id="64"><path id="" clip-rule="evenodd" transform="matrix(1 0 0 1 0 0)" d="M64.75 690.1L472.15 690.1L472.15 690.1L472.15 704.6L472.15 704.6L64.75 704.6z" /></clipPath><clipPath id="65"><path id="" clip-rule="evenodd" transform="matrix(1 0 0 1 0 0)" d="M470.4 690.1L530.55 690.1L530.55 690.1L530.55 704.6L530.55 704.6L470.4 704.6z" /></clipPath><clipPath id="66"><path id="" clip-rule="evenodd" transform="matrix(1 0 0 1 0 0)" d="M64.75 702.6L472.15 702.6L472.15 702.6L472.15 717.1L472.15 717.1L64.75 717.1z" /></clipPath><clipPath id="67"><path id="" clip-rule="evenodd" transform="matrix(1 0 0 1 0 0)" d="M470.4 702.6L530.55 702.6L530.55 702.6L530.55 717.1L530.55 717.1L470.4 717.1z" /></clipPath></defs><g transform="matrix(1.333333 0 0 1.333333 0 0)"><g clip-path="url(#1)"><g clip-path="url(#2)"><path id="13" transform="matrix(1 0 0 -1 0 841)" d="M69.45 780.718L525.85 780.718" stroke="#000000" stroke-width="0.5" fill="none" /></g><g clip-path="url(#3)"></g><g clip-path="url(#4)"></g><g clip-path="url(#5)"></g><g clip-path="url(#6)"></g><g clip-path="url(#7)"></g><g clip-path="url(#8)"></g><g clip-path="url(#9)"></g><g clip-path="url(#10)"></g><g clip-path="url(#11)"></g><g clip-path="url(#12)"></g><g clip-path="url(#13)"></g><g clip-path="url(#14)"></g><g clip-path="url(#15)"></g><g clip-path="url(#16)"></g><g clip-path="url(#17)"></g><g clip-path="url(#18)"></g><g clip-path="url(#19)"></g><g clip-path="url(#20)"></g><g clip-path="url(#21)"></g><g clip-path="url(#22)"></g><g clip-path="url(#23)"></g><g clip-path="url(#24)"></g><g clip-path="url(#25)"></g><g clip-path="url(#26)"></g><g clip-path="url(#27)"></g><g clip-path="url(#28)"></g><g clip-path="url(#29)"></g><g clip-path="url(#30)"></g><g clip-path="url(#31)"></g><g clip-path="url(#32)"></g><g clip-path="url(#33)"></g><g clip-path="url(#34)"></g><g clip-path="url(#35)"></g><g clip-path="url(#36)"></g><g clip-path="url(#37)"></g><g clip-path="url(#38)"></g><g clip-path="url(#39)"></g><path id="841" transform="matrix(1 0 0 -1 0 841)" d="M65.5 630.1L65.5 394.75" stroke="#000000" stroke-width="0.5" fill="none" /><path id="842" transform="matrix(1 0 0 -1 0 841)" d="M471.4 630.1L471.4 618.1" stroke="#000000" stroke-width="0.5" fill="none" /><path id="843" transform="matrix(1 0 0 -1 0 841)" d="M471.4 617.6L471.4 605.6" stroke="#000000" stroke-width="0.5" fill="none" /><path id="844" transform="matrix(1 0 0 -1 0 841)" d="M471.4 605.1L471.4 593.1" stroke="#000000" stroke-width="0.5" fill="none" /><path id="845" transform="matrix(1 0 0 -1 0 841)" d="M471.4 592.6L471.4 580.6" stroke="#000000" stroke-width="0.5" fill="none" /><path id="846" transform="matrix(1 0 0 -1 0 841)" d="M471.4 580.1L471.4 568.1" stroke="#000000" stroke-width="0.5" fill="none" /><path id="847" transform="matrix(1 0 0 -1 0 841)" d="M471.4 567.6L471.4 555.6" stroke="#000000" stroke-width="0.5" fill="none" /><path id="848" transform="matrix(1 0 0 -1 0 841)" d="M471.4 555.1L471.4 543.1" stroke="#000000" stroke-width="0.5" fill="none" /><path id="849" transform="matrix(1 0 0 -1 0 841)" d="M471.4 542.6L471.4 530.6" stroke="#000000" stroke-width="0.5" fill="none" /><path id="850" transform="matrix(1 0 0 -1 0 841)" d="M471.4 530.1L471.4 518.1" stroke="#000000" stroke-width="0.5" fill="none" /><path id="851" transform="matrix(1 0 0 -1 0 841)" d="M471.4 517.6L471.4 504.1" stroke="#000000" stroke-width="0.5" fill="none" /><path id="852" transform="matrix(1 0 0 -1 0 841)" d="M471.4 503.6L471.4 491.6" stroke="#000000" stroke-width="0.5" fill="none" /><path id="853" transform="matrix(1 0 0 -1 0 841)" d="M471.4 491.1L471.4 477.6" stroke="#000000" stroke-width="0.5" fill="none" /><path id="854" transform="matrix(1 0 0 -1 0 841)" d="M471.4 477.1L471.4 465.1" stroke="#000000" stroke-width="0.5" fill="none" /><path id="855" transform="matrix(1 0 0 -1 0 841)" d="M471.4 464.6L471.4 452.6" stroke="#000000" stroke-width="0.5" fill="none" /><path id="856" transform="matrix(1 0 0 -1 0 841)" d="M471.4 452.1L471.4 440.1" stroke="#000000" stroke-width="0.5" fill="none" /><path id="857" transform="matrix(1 0 0 -1 0 841)" d="M471.4 439.6L471.4 427.6" stroke="#000000" stroke-width="0.5" fill="none" /><path id="858" transform="matrix(1 0 0 -1 0 841)" d="M471.4 427.1L471.4 415.1" stroke="#000000" stroke-width="0.5" fill="none" /><path id="859" transform="matrix(1 0 0 -1 0 841)" d="M471.4 414.6L471.4 394.75" stroke="#000000" stroke-width="0.5" fill="none" /><path id="860" transform="matrix(1 0 0 -1 0 841)" d="M529.8 630.1L529.8 394.75" stroke="#000000" stroke-width="0.5" fill="none" /><path id="861" transform="matrix(1 0 0 -1 0 841)" d="M65.25 630.35L530.05 630.35" stroke="#000000" stroke-width="0.5" fill="none" /><path id="862" transform="matrix(1 0 0 -1 0 841)" d="M65.75 617.85L529.55 617.85" stroke="#000000" stroke-width="0.5" fill="none" /><path id="863" transform="matrix(1 0 0 -1 0 841)" d="M65.75 605.35L529.55 605.35" stroke="#000000" stroke-width="0.5" fill="none" /><path id="864" transform="matrix(1 0 0 -1 0 841)" d="M65.75 592.85L529.55 592.85" stroke="#000000" stroke-width="0.5" fill="none" /><path id="865" transform="matrix(1 0 0 -1 0 841)" d="M65.75 580.35L529.55 580.35" stroke="#000000" stroke-width="0.5" fill="none" /><path id="866" transform="matrix(1 0 0 -1 0 841)" d="M65.75 567.85L529.55 567.85" stroke="#000000" stroke-width="0.5" fill="none" /><path id="867" transform="matrix(1 0 0 -1 0 841)" d="M65.75 555.35L529.55 555.35" stroke="#000000" stroke-width="0.5" fill="none" /><path id="868" transform="matrix(1 0 0 -1 0 841)" d="M65.75 542.85L529.55 542.85" stroke="#000000" stroke-width="0.5" fill="none" /><path id="869" transform="matrix(1 0 0 -1 0 841)" d="M65.75 530.35L529.55 530.35" stroke="#000000" stroke-width="0.5" fill="none" /><path id="870" transform="matrix(1 0 0 -1 0 841)" d="M65.75 517.85L529.55 517.85" stroke="#000000" stroke-width="0.5" fill="none" /><path id="871" transform="matrix(1 0 0 -1 0 841)" d="M65.75 503.85L529.55 503.85" stroke="#000000" stroke-width="0.5" fill="none" /><path id="872" transform="matrix(1 0 0 -1 0 841)" d="M65.75 491.35L529.55 491.35" stroke="#000000" stroke-width="0.5" fill="none" /><path id="873" transform="matrix(1 0 0 -1 0 841)" d="M65.75 477.35L529.55 477.35" stroke="#000000" stroke-width="0.5" fill="none" /><path id="874" transform="matrix(1 0 0 -1 0 841)" d="M65.75 464.85L529.55 464.85" stroke="#000000" stroke-width="0.5" fill="none" /><path id="875" transform="matrix(1 0 0 -1 0 841)" d="M65.75 452.35L529.55 452.35" stroke="#000000" stroke-width="0.5" fill="none" /><path id="876" transform="matrix(1 0 0 -1 0 841)" d="M65.75 439.85L529.55 439.85" stroke="#000000" stroke-width="0.5" fill="none" /><path id="877" transform="matrix(1 0 0 -1 0 841)" d="M65.75 427.35L529.55 427.35" stroke="#000000" stroke-width="0.5" fill="none" /><path id="878" transform="matrix(1 0 0 -1 0 841)" d="M65.75 414.85L529.55 414.85" stroke="#000000" stroke-width="0.5" fill="none" /><path id="879" transform="matrix(1 0 0 -1 0 841)" d="M65.25 394.5L530.05 394.5" stroke="#000000" stroke-width="0.5" fill="none" /><g clip-path="url(#40)"></g><g clip-path="url(#41)"></g><g clip-path="url(#42)"></g><g clip-path="url(#43)"></g><g clip-path="url(#44)"></g><g clip-path="url(#45)"></g><g clip-path="url(#46)"></g><g clip-path="url(#47)"></g><g clip-path="url(#48)"></g><g clip-path="url(#49)"></g><g clip-path="url(#50)"></g><g clip-path="url(#51)"></g><g clip-path="url(#52)"></g><g clip-path="url(#53)"></g><g clip-path="url(#54)"></g><g clip-path="url(#55)"></g><g clip-path="url(#56)"></g><g clip-path="url(#57)"></g><g clip-path="url(#58)"></g><g clip-path="url(#59)"></g><g clip-path="url(#60)"></g><g clip-path="url(#61)"></g><g clip-path="url(#62)"></g><g clip-path="url(#63)"></g><g clip-path="url(#64)"></g><g clip-path="url(#65)"></g><g clip-path="url(#66)"></g><g clip-path="url(#67)"></g><path id="1546" transform="matrix(1 0 0 -1 0 841)" d="M65.5 300.15L65.5 124.9" stroke="#000000" stroke-width="0.5" fill="none" /><path id="1547" transform="matrix(1 0 0 -1 0 841)" d="M471.4 300.15L471.4 288.15" stroke="#000000" stroke-width="0.5" fill="none" /><path id="1548" transform="matrix(1 0 0 -1 0 841)" d="M471.4 287.65L471.4 275.65" stroke="#000000" stroke-width="0.5" fill="none" /><path id="1549" transform="matrix(1 0 0 -1 0 841)" d="M471.4 275.15L471.4 263.15" stroke="#000000" stroke-width="0.5" fill="none" /><path id="1550" transform="matrix(1 0 0 -1 0 841)" d="M471.4 262.65L471.4 250.65" stroke="#000000" stroke-width="0.5" fill="none" /><path id="1551" transform="matrix(1 0 0 -1 0 841)" d="M471.4 250.15L471.4 238.15" stroke="#000000" stroke-width="0.5" fill="none" /><path id="1552" transform="matrix(1 0 0 -1 0 841)" d="M471.4 237.65L471.4 225.65" stroke="#000000" stroke-width="0.5" fill="none" /><path id="1553" transform="matrix(1 0 0 -1 0 841)" d="M471.4 225.15L471.4 212.4" stroke="#000000" stroke-width="0.5" fill="none" /><path id="1554" transform="matrix(1 0 0 -1 0 841)" d="M471.4 211.9L471.4 199.9" stroke="#000000" stroke-width="0.5" fill="none" /><path id="1555" transform="matrix(1 0 0 -1 0 841)" d="M471.4 199.4L471.4 187.4" stroke="#000000" stroke-width="0.5" fill="none" /><path id="1556" transform="matrix(1 0 0 -1 0 841)" d="M471.4 186.9L471.4 174.9" stroke="#000000" stroke-width="0.5" fill="none" /><path id="1557" transform="matrix(1 0 0 -1 0 841)" d="M471.4 174.4L471.4 162.4" stroke="#000000" stroke-width="0.5" fill="none" /><path id="1558" transform="matrix(1 0 0 -1 0 841)" d="M471.4 161.9L471.4 149.9" stroke="#000000" stroke-width="0.5" fill="none" /><path id="1559" transform="matrix(1 0 0 -1 0 841)" d="M471.4 149.4L471.4 137.4" stroke="#000000" stroke-width="0.5" fill="none" /><path id="1560" transform="matrix(1 0 0 -1 0 841)" d="M471.4 136.9L471.4 124.9" stroke="#000000" stroke-width="0.5" fill="none" /><path id="1561" transform="matrix(1 0 0 -1 0 841)" d="M529.8 300.15L529.8 124.9" stroke="#000000" stroke-width="0.5" fill="none" /><path id="1562" transform="matrix(1 0 0 -1 0 841)" d="M65.25 300.4L530.05 300.4" stroke="#000000" stroke-width="0.5" fill="none" /><path id="1563" transform="matrix(1 0 0 -1 0 841)" d="M65.75 287.9L529.55 287.9" stroke="#000000" stroke-width="0.5" fill="none" /><path id="1564" transform="matrix(1 0 0 -1 0 841)" d="M65.75 275.4L529.55 275.4" stroke="#000000" stroke-width="0.5" fill="none" /><path id="1565" transform="matrix(1 0 0 -1 0 841)" d="M65.75 262.9L529.55 262.9" stroke="#000000" stroke-width="0.5" fill="none" /><path id="1566" transform="matrix(1 0 0 -1 0 841)" d="M65.75 250.4L529.55 250.4" stroke="#000000" stroke-width="0.5" fill="none" /><path id="1567" transform="matrix(1 0 0 -1 0 841)" d="M65.75 237.9L529.55 237.9" stroke="#000000" stroke-width="0.5" fill="none" /><path id="1568" transform="matrix(1 0 0 -1 0 841)" d="M65.75 225.4L529.55 225.4" stroke="#000000" stroke-width="0.5" fill="none" /><path id="1569" transform="matrix(1 0 0 -1 0 841)" d="M65.75 212.15L529.55 212.15" stroke="#000000" stroke-width="0.5" fill="none" /><path id="1570" transform="matrix(1 0 0 -1 0 841)" d="M65.75 199.65L529.55 199.65" stroke="#000000" stroke-width="0.5" fill="none" /><path id="1571" transform="matrix(1 0 0 -1 0 841)" d="M65.75 187.15L529.55 187.15" stroke="#000000" stroke-width="0.5" fill="none" /><path id="1572" transform="matrix(1 0 0 -1 0 841)" d="M65.75 174.65L529.55 174.65" stroke="#000000" stroke-width="0.5" fill="none" /><path id="1573" transform="matrix(1 0 0 -1 0 841)" d="M65.75 162.15L529.55 162.15" stroke="#000000" stroke-width="0.5" fill="none" /><path id="1574" transform="matrix(1 0 0 -1 0 841)" d="M65.75 149.65L529.55 149.65" stroke="#000000" stroke-width="0.5" fill="none" /><path id="1575" transform="matrix(1 0 0 -1 0 841)" d="M65.75 137.15L529.55 137.15" stroke="#000000" stroke-width="0.5" fill="none" /><path id="1576" transform="matrix(1 0 0 -1 0 841)" d="M65.25 124.65L530.05 124.65" stroke="#000000" stroke-width="0.5" fill="none" /></g></g></svg>