<svg xmlns="http://www.w3.org/2000/svg" xmlns:xlink="http://www.w3.org/1999/xlink" id="body_12" preserveAspectRatio="xMinYMin meet" viewBox="0 0 793 1121"><defs><clipPath id="1"><path id="" clip-rule="evenodd" transform="matrix(1 0 0 1 0 0)" d="M0 841L0 -0.9000244L0 -0.9000244L595.3 -0.9000244L595.3 -0.9000244L595.3 841L595.3 841L0 841z" /></clipPath><clipPath id="2"><path id="" clip-rule="evenodd" transform="matrix(1 0 0 1 0 0)" d="M0 41.59998L595.3 41.59998L595.3 41.59998L595.3 60.53198L595.3 60.53198L0 60.53198z" /></clipPath><clipPath id="3"><path id="" clip-rule="evenodd" transform="matrix(1 0 0 1 0 0)" d="M0 781.051L595.3 781.051L595.3 781.051L595.3 791.4L595.3 791.4L0 791.4z" /></clipPath><clipPath id="4"><path id="" clip-rule="evenodd" transform="matrix(1 0 0 1 0 0)" d="M64.75 69.5L471.05 69.5L471.05 69.5L471.05 85L471.05 85L64.75 85z" /></clipPath><clipPath id="5"><path id="" clip-rule="evenodd" transform="matrix(1 0 0 1 0 0)" d="M469.55 69.5L530.55 69.5L530.55 69.5L530.55 85L530.55 85L469.55 85z" /></clipPath><clipPath id="6"><path id="" clip-rule="evenodd" transform="matrix(1 0 0 1 0 0)" d="M64.75 83.5L471.05 83.5L471.05 83.5L471.05 97.5L471.05 97.5L64.75 97.5z" /></clipPath><clipPath id="7"><path id="" clip-rule="evenodd" transform="matrix(1 0 0 1 0 0)" d="M469.55 83.5L530.55 83.5L530.55 83.5L530.55 97.5L530.55 97.5L469.55 97.5z" /></clipPath><clipPath id="8"><path id="" clip-rule="evenodd" transform="matrix(1 0 0 1 0 0)" d="M64.75 96L471.05 96L471.05 96L471.05 110L471.05 110L64.75 110z" /></clipPath><clipPath id="9"><path id="" clip-rule="evenodd" transform="matrix(1 0 0 1 0 0)" d="M469.55 96L530.55 96L530.55 96L530.55 110L530.55 110L469.55 110z" /></clipPath><clipPath id="10"><path id="" clip-rule="evenodd" transform="matrix(1 0 0 1 0 0)" d="M64.75 108.5L471.05 108.5L471.05 108.5L471.05 122.5L471.05 122.5L64.75 122.5z" /></clipPath><clipPath id="11"><path id="" clip-rule="evenodd" transform="matrix(1 0 0 1 0 0)" d="M469.55 108.5L530.55 108.5L530.55 108.5L530.55 122.5L530.55 122.5L469.55 122.5z" /></clipPath><clipPath id="12"><path id="" clip-rule="evenodd" transform="matrix(1 0 0 1 0 0)" d="M64.75 121L471.05 121L471.05 121L471.05 135L471.05 135L64.75 135z" /></clipPath><clipPath id="13"><path id="" clip-rule="evenodd" transform="matrix(1 0 0 1 0 0)" d="M469.55 121L530.55 121L530.55 121L530.55 135L530.55 135L469.55 135z" /></clipPath><clipPath id="14"><path id="" clip-rule="evenodd" transform="matrix(1 0 0 1 0 0)" d="M64.75 133.5L471.05 133.5L471.05 133.5L471.05 147.5L471.05 147.5L64.75 147.5z" /></clipPath><clipPath id="15"><path id="" clip-rule="evenodd" transform="matrix(1 0 0 1 0 0)" d="M469.55 133.5L530.55 133.5L530.55 133.5L530.55 147.5L530.55 147.5L469.55 147.5z" /></clipPath><clipPath id="16"><path id="" clip-rule="evenodd" transform="matrix(1 0 0 1 0 0)" d="M64.75 146L471.05 146L471.05 146L471.05 160L471.05 160L64.75 160z" /></clipPath><clipPath id="17"><path id="" clip-rule="evenodd" transform="matrix(1 0 0 1 0 0)" d="M469.55 146L530.55 146L530.55 146L530.55 160L530.55 160L469.55 160z" /></clipPath><clipPath id="18"><path id="" clip-rule="evenodd" transform="matrix(1 0 0 1 0 0)" d="M64.75 158.5L471.05 158.5L471.05 158.5L471.05 172.5L471.05 172.5L64.75 172.5z" /></clipPath><clipPath id="19"><path id="" clip-rule="evenodd" transform="matrix(1 0 0 1 0 0)" d="M469.55 158.5L530.55 158.5L530.55 158.5L530.55 172.5L530.55 172.5L469.55 172.5z" /></clipPath><clipPath id="20"><path id="" clip-rule="evenodd" transform="matrix(1 0 0 1 0 0)" d="M64.75 171L471.05 171L471.05 171L471.05 185L471.05 185L64.75 185z" /></clipPath><clipPath id="21"><path id="" clip-rule="evenodd" transform="matrix(1 0 0 1 0 0)" d="M469.55 171L530.55 171L530.55 171L530.55 185L530.55 185L469.55 185z" /></clipPath><clipPath id="22"><path id="" clip-rule="evenodd" transform="matrix(1 0 0 1 0 0)" d="M64.75 183.5L471.05 183.5L471.05 183.5L471.05 197.5L471.05 197.5L64.75 197.5z" /></clipPath><clipPath id="23"><path id="" clip-rule="evenodd" transform="matrix(1 0 0 1 0 0)" d="M469.55 183.5L530.55 183.5L530.55 183.5L530.55 197.5L530.55 197.5L469.55 197.5z" /></clipPath><clipPath id="24"><path id="" clip-rule="evenodd" transform="matrix(1 0 0 1 0 0)" d="M64.75 196L471.05 196L471.05 196L471.05 210L471.05 210L64.75 210z" /></clipPath><clipPath id="25"><path id="" clip-rule="evenodd" transform="matrix(1 0 0 1 0 0)" d="M469.55 196L530.55 196L530.55 196L530.55 210L530.55 210L469.55 210z" /></clipPath><clipPath id="26"><path id="" clip-rule="evenodd" transform="matrix(1 0 0 1 0 0)" d="M64.75 208.5L471.05 208.5L471.05 208.5L471.05 222.5L471.05 222.5L64.75 222.5z" /></clipPath><clipPath id="27"><path id="" clip-rule="evenodd" transform="matrix(1 0 0 1 0 0)" d="M469.55 208.5L530.55 208.5L530.55 208.5L530.55 222.5L530.55 222.5L469.55 222.5z" /></clipPath><clipPath id="28"><path id="" clip-rule="evenodd" transform="matrix(1 0 0 1 0 0)" d="M64.75 252.7L471.75 252.7L471.75 252.7L471.75 266.7L471.75 266.7L64.75 266.7z" /></clipPath><clipPath id="29"><path id="" clip-rule="evenodd" transform="matrix(1 0 0 1 0 0)" d="M470.25 252.7L530.55 252.7L530.55 252.7L530.55 266.7L530.55 266.7L470.25 266.7z" /></clipPath><clipPath id="30"><path id="" clip-rule="evenodd" transform="matrix(1 0 0 1 0 0)" d="M64.75 265.2L471.75 265.2L471.75 265.2L471.75 279.2L471.75 279.2L64.75 279.2z" /></clipPath><clipPath id="31"><path id="" clip-rule="evenodd" transform="matrix(1 0 0 1 0 0)" d="M470.25 265.2L530.55 265.2L530.55 265.2L530.55 279.2L530.55 279.2L470.25 279.2z" /></clipPath><clipPath id="32"><path id="" clip-rule="evenodd" transform="matrix(1 0 0 1 0 0)" d="M64.75 277.7L471.75 277.7L471.75 277.7L471.75 291.7L471.75 291.7L64.75 291.7z" /></clipPath><clipPath id="33"><path id="" clip-rule="evenodd" transform="matrix(1 0 0 1 0 0)" d="M470.25 277.7L530.55 277.7L530.55 277.7L530.55 291.7L530.55 291.7L470.25 291.7z" /></clipPath><clipPath id="34"><path id="" clip-rule="evenodd" transform="matrix(1 0 0 1 0 0)" d="M64.75 290.2L471.75 290.2L471.75 290.2L471.75 304.25L471.75 304.25L64.75 304.25z" /></clipPath><clipPath id="35"><path id="" clip-rule="evenodd" transform="matrix(1 0 0 1 0 0)" d="M470.25 290.2L530.55 290.2L530.55 290.2L530.55 304.25L530.55 304.25L470.25 304.25z" /></clipPath><clipPath id="36"><path id="" clip-rule="evenodd" transform="matrix(1 0 0 1 0 0)" d="M64.75 302.7501L471.75 302.7501L471.75 302.7501L471.75 316.7501L471.75 316.7501L64.75 316.7501z" /></clipPath><clipPath id="37"><path id="" clip-rule="evenodd" transform="matrix(1 0 0 1 0 0)" d="M470.25 302.7501L530.55 302.7501L530.55 302.7501L530.55 316.7501L530.55 316.7501L470.25 316.7501z" /></clipPath><clipPath id="38"><path id="" clip-rule="evenodd" transform="matrix(1 0 0 1 0 0)" d="M64.75 315.2501L471.75 315.2501L471.75 315.2501L471.75 329.2501L471.75 329.2501L64.75 329.2501z" /></clipPath><clipPath id="39"><path id="" clip-rule="evenodd" transform="matrix(1 0 0 1 0 0)" d="M470.25 315.2501L530.55 315.2501L530.55 315.2501L530.55 329.2501L530.55 329.2501L470.25 329.2501z" /></clipPath><clipPath id="40"><path id="" clip-rule="evenodd" transform="matrix(1 0 0 1 0 0)" d="M64.75 343.85L471.95 343.85L471.95 343.85L471.95 357.85L471.95 357.85L64.75 357.85z" /></clipPath><clipPath id="41"><path id="" clip-rule="evenodd" transform="matrix(1 0 0 1 0 0)" d="M470.45 343.85L530.55 343.85L530.55 343.85L530.55 357.85L530.55 357.85L470.45 357.85z" /></clipPath><clipPath id="42"><path id="" clip-rule="evenodd" transform="matrix(1 0 0 1 0 0)" d="M64.75 356.35L471.95 356.35L471.95 356.35L471.95 370.35L471.95 370.35L64.75 370.35z" /></clipPath><clipPath id="43"><path id="" clip-rule="evenodd" transform="matrix(1 0 0 1 0 0)" d="M470.45 356.35L530.55 356.35L530.55 356.35L530.55 370.35L530.55 370.35L470.45 370.35z" /></clipPath><clipPath id="44"><path id="" clip-rule="evenodd" transform="matrix(1 0 0 1 0 0)" d="M64.75 368.85L471.95 368.85L471.95 368.85L471.95 383.15L471.95 383.15L64.75 383.15z" /></clipPath><clipPath id="45"><path id="" clip-rule="evenodd" transform="matrix(1 0 0 1 0 0)" d="M470.45 368.85L530.55 368.85L530.55 368.85L530.55 383.15L530.55 383.15L470.45 383.15z" /></clipPath><clipPath id="46"><path id="" clip-rule="evenodd" transform="matrix(1 0 0 1 0 0)" d="M64.75 381.65L471.95 381.65L471.95 381.65L471.95 395.95L471.95 395.95L64.75 395.95z" /></clipPath><clipPath id="47"><path id="" clip-rule="evenodd" transform="matrix(1 0 0 1 0 0)" d="M470.45 381.65L530.55 381.65L530.55 381.65L530.55 395.95L530.55 395.95L470.45 395.95z" /></clipPath><clipPath id="48"><path id="" clip-rule="evenodd" transform="matrix(1 0 0 1 0 0)" d="M64.75 426.15L472.05 426.15L472.05 426.15L472.05 440.15L472.05 440.15L64.75 440.15z" /></clipPath><clipPath id="49"><path id="" clip-rule="evenodd" transform="matrix(1 0 0 1 0 0)" d="M470.55 426.15L530.55 426.15L530.55 426.15L530.55 440.15L530.55 440.15L470.55 440.15z" /></clipPath><clipPath id="50"><path id="" clip-rule="evenodd" transform="matrix(1 0 0 1 0 0)" d="M64.75 517.15L472.15 517.15L472.15 517.15L472.15 531.15L472.15 531.15L64.75 531.15z" /></clipPath><clipPath id="51"><path id="" clip-rule="evenodd" transform="matrix(1 0 0 1 0 0)" d="M470.65 517.15L530.55 517.15L530.55 517.15L530.55 531.15L530.55 531.15L470.65 531.15z" /></clipPath><clipPath id="52"><path id="" clip-rule="evenodd" transform="matrix(1 0 0 1 0 0)" d="M64.75 529.65L472.15 529.65L472.15 529.65L472.15 543.65L472.15 543.65L64.75 543.65z" /></clipPath><clipPath id="53"><path id="" clip-rule="evenodd" transform="matrix(1 0 0 1 0 0)" d="M470.65 529.65L530.55 529.65L530.55 529.65L530.55 543.65L530.55 543.65L470.65 543.65z" /></clipPath><clipPath id="54"><path id="" clip-rule="evenodd" transform="matrix(1 0 0 1 0 0)" d="M64.75 542.15L472.15 542.15L472.15 542.15L472.15 556.15L472.15 556.15L64.75 556.15z" /></clipPath><clipPath id="55"><path id="" clip-rule="evenodd" transform="matrix(1 0 0 1 0 0)" d="M470.65 542.15L530.55 542.15L530.55 542.15L530.55 556.15L530.55 556.15L470.65 556.15z" /></clipPath><clipPath id="56"><path id="" clip-rule="evenodd" transform="matrix(1 0 0 1 0 0)" d="M64.75 570.75L472.15 570.75L472.15 570.75L472.15 584.75L472.15 584.75L64.75 584.75z" /></clipPath><clipPath id="57"><path id="" clip-rule="evenodd" transform="matrix(1 0 0 1 0 0)" d="M470.65 570.75L530.55 570.75L530.55 570.75L530.55 584.75L530.55 584.75L470.65 584.75z" /></clipPath><clipPath id="58"><path id="" clip-rule="evenodd" transform="matrix(1 0 0 1 0 0)" d="M64.75 583.25L472.15 583.25L472.15 583.25L472.15 597.25L472.15 597.25L64.75 597.25z" /></clipPath><clipPath id="59"><path id="" clip-rule="evenodd" transform="matrix(1 0 0 1 0 0)" d="M470.65 583.25L530.55 583.25L530.55 583.25L530.55 597.25L530.55 597.25L470.65 597.25z" /></clipPath><clipPath id="60"><path id="" clip-rule="evenodd" transform="matrix(1 0 0 1 0 0)" d="M64.75 595.75L472.15 595.75L472.15 595.75L472.15 609.75L472.15 609.75L64.75 609.75z" /></clipPath><clipPath id="61"><path id="" clip-rule="evenodd" transform="matrix(1 0 0 1 0 0)" d="M470.65 595.75L530.55 595.75L530.55 595.75L530.55 609.75L530.55 609.75L470.65 609.75z" /></clipPath><clipPath id="62"><path id="" clip-rule="evenodd" transform="matrix(1 0 0 1 0 0)" d="M64.75 624.35L472.15 624.35L472.15 624.35L472.15 638.35L472.15 638.35L64.75 638.35z" /></clipPath><clipPath id="63"><path id="" clip-rule="evenodd" transform="matrix(1 0 0 1 0 0)" d="M470.4 624.35L530.55 624.35L530.55 624.35L530.55 638.35L530.55 638.35L470.4 638.35z" /></clipPath><clipPath id="64"><path id="" clip-rule="evenodd" transform="matrix(1 0 0 1 0 0)" d="M64.75 636.35L472.15 636.35L472.15 636.35L472.15 650.85L472.15 650.85L64.75 650.85z" /></clipPath><clipPath id="65"><path id="" clip-rule="evenodd" transform="matrix(1 0 0 1 0 0)" d="M470.4 636.85L530.55 636.85L530.55 636.85L530.55 650.85L530.55 650.85L470.4 650.85z" /></clipPath><clipPath id="66"><path id="" clip-rule="evenodd" transform="matrix(1 0 0 1 0 0)" d="M64.75 649.35L472.15 649.35L472.15 649.35L472.15 663.35L472.15 663.35L64.75 663.35z" /></clipPath><clipPath id="67"><path id="" clip-rule="evenodd" transform="matrix(1 0 0 1 0 0)" d="M470.4 649.35L530.55 649.35L530.55 649.35L530.55 663.35L530.55 663.35L470.4 663.35z" /></clipPath><clipPath id="68"><path id="" clip-rule="evenodd" transform="matrix(1 0 0 1 0 0)" d="M64.75 661.85L472.15 661.85L472.15 661.85L472.15 675.85L472.15 675.85L64.75 675.85z" /></clipPath><clipPath id="69"><path id="" clip-rule="evenodd" transform="matrix(1 0 0 1 0 0)" d="M470.4 661.85L530.55 661.85L530.55 661.85L530.55 675.85L530.55 675.85L470.4 675.85z" /></clipPath><clipPath id="70"><path id="" clip-rule="evenodd" transform="matrix(1 0 0 1 0 0)" d="M64.75 706.05L470.75 706.05L470.75 706.05L470.75 720.05L470.75 720.05L64.75 720.05z" /></clipPath><clipPath id="71"><path id="" clip-rule="evenodd" transform="matrix(1 0 0 1 0 0)" d="M469.25 706.05L530.55 706.05L530.55 706.05L530.55 720.05L530.55 720.05L469.25 720.05z" /></clipPath><clipPath id="72"><path id="" clip-rule="evenodd" transform="matrix(1 0 0 1 0 0)" d="M64.75 718.55L470.75 718.55L470.75 718.55L470.75 732.55L470.75 732.55L64.75 732.55z" /></clipPath><clipPath id="73"><path id="" clip-rule="evenodd" transform="matrix(1 0 0 1 0 0)" d="M469.25 718.55L530.55 718.55L530.55 718.55L530.55 732.55L530.55 732.55L469.25 732.55z" /></clipPath><clipPath id="74"><path id="" clip-rule="evenodd" transform="matrix(1 0 0 1 0 0)" d="M64.75 731.05L470.75 731.05L470.75 731.05L470.75 745.05L470.75 745.05L64.75 745.05z" /></clipPath><clipPath id="75"><path id="" clip-rule="evenodd" transform="matrix(1 0 0 1 0 0)" d="M469.25 731.05L530.55 731.05L530.55 731.05L530.55 745.05L530.55 745.05L469.25 745.05z" /></clipPath><clipPath id="76"><path id="" clip-rule="evenodd" transform="matrix(1 0 0 1 0 0)" d="M64.75 743.55L470.75 743.55L470.75 743.55L470.75 757.55L470.75 757.55L64.75 757.55z" /></clipPath><clipPath id="77"><path id="" clip-rule="evenodd" transform="matrix(1 0 0 1 0 0)" d="M469.25 743.55L530.55 743.55L530.55 743.55L530.55 757.55L530.55 757.55L469.25 757.55z" /></clipPath><clipPath id="78"><path id="" clip-rule="evenodd" transform="matrix(1 0 0 1 0 0)" d="M64.75 756.05L470.75 756.05L470.75 756.05L470.75 770.05L470.75 770.05L64.75 770.05z" /></clipPath><clipPath id="79"><path id="" clip-rule="evenodd" transform="matrix(1 0 0 1 0 0)" d="M469.25 756.05L530.55 756.05L530.55 756.05L530.55 770.05L530.55 770.05L469.25 770.05z" /></clipPath></defs><g transform="matrix(1.333333 0 0 1.333333 0 0)"><g clip-path="url(#1)"><g clip-path="url(#2)"><path id="13" transform="matrix(1 0 0 -1 0 841)" d="M69.45 780.718L525.85 780.718" stroke="#000000" stroke-width="0.5" fill="none" /></g><g clip-path="url(#3)"></g><g clip-path="url(#4)"></g><g clip-path="url(#5)"></g><g clip-path="url(#6)"></g><g clip-path="url(#7)"></g><g clip-path="url(#8)"></g><g clip-path="url(#9)"></g><g clip-path="url(#10)"></g><g clip-path="url(#11)"></g><g clip-path="url(#12)"></g><g clip-path="url(#13)"></g><g clip-path="url(#14)"></g><g clip-path="url(#15)"></g><g clip-path="url(#16)"></g><g clip-path="url(#17)"></g><g clip-path="url(#18)"></g><g clip-path="url(#19)"></g><g clip-path="url(#20)"></g><g clip-path="url(#21)"></g><g clip-path="url(#22)"></g><g clip-path="url(#23)"></g><g clip-path="url(#24)"></g><g clip-path="url(#25)"></g><g clip-path="url(#26)"></g><g clip-path="url(#27)"></g><path id="312" transform="matrix(1 0 0 -1 0 841)" d="M65.5 770.5L65.5 619.5" stroke="#000000" stroke-width="0.5" fill="none" /><path id="313" transform="matrix(1 0 0 -1 0 841)" d="M470.3 770.5L470.3 757" stroke="#000000" stroke-width="0.5" fill="none" /><path id="314" transform="matrix(1 0 0 -1 0 841)" d="M470.3 756.5L470.3 744.5" stroke="#000000" stroke-width="0.5" fill="none" /><path id="315" transform="matrix(1 0 0 -1 0 841)" d="M470.3 744L470.3 732" stroke="#000000" stroke-width="0.5" fill="none" /><path id="316" transform="matrix(1 0 0 -1 0 841)" d="M470.3 731.5L470.3 719.5" stroke="#000000" stroke-width="0.5" fill="none" /><path id="317" transform="matrix(1 0 0 -1 0 841)" d="M470.3 719L470.3 707" stroke="#000000" stroke-width="0.5" fill="none" /><path id="318" transform="matrix(1 0 0 -1 0 841)" d="M470.3 706.5L470.3 694.5" stroke="#000000" stroke-width="0.5" fill="none" /><path id="319" transform="matrix(1 0 0 -1 0 841)" d="M470.3 694L470.3 682" stroke="#000000" stroke-width="0.5" fill="none" /><path id="320" transform="matrix(1 0 0 -1 0 841)" d="M470.3 681.5L470.3 669.5" stroke="#000000" stroke-width="0.5" fill="none" /><path id="321" transform="matrix(1 0 0 -1 0 841)" d="M470.3 669L470.3 657" stroke="#000000" stroke-width="0.5" fill="none" /><path id="322" transform="matrix(1 0 0 -1 0 841)" d="M470.3 656.5L470.3 644.5" stroke="#000000" stroke-width="0.5" fill="none" /><path id="323" transform="matrix(1 0 0 -1 0 841)" d="M470.3 644L470.3 632" stroke="#000000" stroke-width="0.5" fill="none" /><path id="324" transform="matrix(1 0 0 -1 0 841)" d="M470.3 631.5L470.3 619.5" stroke="#000000" stroke-width="0.5" fill="none" /><path id="325" transform="matrix(1 0 0 -1 0 841)" d="M529.8 770.5L529.8 619.5" stroke="#000000" stroke-width="0.5" fill="none" /><path id="326" transform="matrix(1 0 0 -1 0 841)" d="M65.25 770.75L530.05 770.75" stroke="#000000" stroke-width="0.5" fill="none" /><path id="327" transform="matrix(1 0 0 -1 0 841)" d="M65.75 756.75L529.55 756.75" stroke="#000000" stroke-width="0.5" fill="none" /><path id="328" transform="matrix(1 0 0 -1 0 841)" d="M65.75 744.25L529.55 744.25" stroke="#000000" stroke-width="0.5" fill="none" /><path id="329" transform="matrix(1 0 0 -1 0 841)" d="M65.75 731.75L529.55 731.75" stroke="#000000" stroke-width="0.5" fill="none" /><path id="330" transform="matrix(1 0 0 -1 0 841)" d="M65.75 719.25L529.55 719.25" stroke="#000000" stroke-width="0.5" fill="none" /><path id="331" transform="matrix(1 0 0 -1 0 841)" d="M65.75 706.75L529.55 706.75" stroke="#000000" stroke-width="0.5" fill="none" /><path id="332" transform="matrix(1 0 0 -1 0 841)" d="M65.75 694.25L529.55 694.25" stroke="#000000" stroke-width="0.5" fill="none" /><path id="333" transform="matrix(1 0 0 -1 0 841)" d="M65.75 681.75L529.55 681.75" stroke="#000000" stroke-width="0.5" fill="none" /><path id="334" transform="matrix(1 0 0 -1 0 841)" d="M65.75 669.25L529.55 669.25" stroke="#000000" stroke-width="0.5" fill="none" /><path id="335" transform="matrix(1 0 0 -1 0 841)" d="M65.75 656.75L529.55 656.75" stroke="#000000" stroke-width="0.5" fill="none" /><path id="336" transform="matrix(1 0 0 -1 0 841)" d="M65.75 644.25L529.55 644.25" stroke="#000000" stroke-width="0.5" fill="none" /><path id="337" transform="matrix(1 0 0 -1 0 841)" d="M65.75 631.75L529.55 631.75" stroke="#000000" stroke-width="0.5" fill="none" /><path id="338" transform="matrix(1 0 0 -1 0 841)" d="M65.25 619.25L530.05 619.25" stroke="#000000" stroke-width="0.5" fill="none" /><g clip-path="url(#28)"></g><g clip-path="url(#29)"></g><g clip-path="url(#30)"></g><g clip-path="url(#31)"></g><g clip-path="url(#32)"></g><g clip-path="url(#33)"></g><g clip-path="url(#34)"></g><g clip-path="url(#35)"></g><g clip-path="url(#36)"></g><g clip-path="url(#37)"></g><g clip-path="url(#38)"></g><g clip-path="url(#39)"></g><path id="422" transform="matrix(1 0 0 -1 0 841)" d="M65.5 587.3L65.5 512.75" stroke="#000000" stroke-width="0.5" fill="none" /><path id="423" transform="matrix(1 0 0 -1 0 841)" d="M471 587.3L471 575.3" stroke="#000000" stroke-width="0.5" fill="none" /><path id="424" transform="matrix(1 0 0 -1 0 841)" d="M471 574.8L471 562.8" stroke="#000000" stroke-width="0.5" fill="none" /><path id="425" transform="matrix(1 0 0 -1 0 841)" d="M471 562.3L471 550.3" stroke="#000000" stroke-width="0.5" fill="none" /><path id="426" transform="matrix(1 0 0 -1 0 841)" d="M471 549.8L471 537.75" stroke="#000000" stroke-width="0.5" fill="none" /><path id="427" transform="matrix(1 0 0 -1 0 841)" d="M471 537.25L471 525.25" stroke="#000000" stroke-width="0.5" fill="none" /><path id="428" transform="matrix(1 0 0 -1 0 841)" d="M471 524.75L471 512.75" stroke="#000000" stroke-width="0.5" fill="none" /><path id="429" transform="matrix(1 0 0 -1 0 841)" d="M529.8 587.3L529.8 512.75" stroke="#000000" stroke-width="0.5" fill="none" /><path id="430" transform="matrix(1 0 0 -1 0 841)" d="M65.25 587.55L530.05 587.55" stroke="#000000" stroke-width="0.5" fill="none" /><path id="431" transform="matrix(1 0 0 -1 0 841)" d="M65.75 575.05L529.55 575.05" stroke="#000000" stroke-width="0.5" fill="none" /><path id="432" transform="matrix(1 0 0 -1 0 841)" d="M65.75 562.55L529.55 562.55" stroke="#000000" stroke-width="0.5" fill="none" /><path id="433" transform="matrix(1 0 0 -1 0 841)" d="M65.75 550.05L529.55 550.05" stroke="#000000" stroke-width="0.5" fill="none" /><path id="434" transform="matrix(1 0 0 -1 0 841)" d="M65.75 537.5L529.55 537.5" stroke="#000000" stroke-width="0.5" fill="none" /><path id="435" transform="matrix(1 0 0 -1 0 841)" d="M65.75 525L529.55 525" stroke="#000000" stroke-width="0.5" fill="none" /><path id="436" transform="matrix(1 0 0 -1 0 841)" d="M65.25 512.5L530.05 512.5" stroke="#000000" stroke-width="0.5" fill="none" /><g clip-path="url(#40)"></g><g clip-path="url(#41)"></g><g clip-path="url(#42)"></g><g clip-path="url(#43)"></g><g clip-path="url(#44)"></g><g clip-path="url(#45)"></g><g clip-path="url(#46)"></g><g clip-path="url(#47)"></g><path id="511" transform="matrix(1 0 0 -1 0 841)" d="M65.5 496.15L65.5 446.05" stroke="#000000" stroke-width="0.5" fill="none" /><path id="512" transform="matrix(1 0 0 -1 0 841)" d="M471.2 496.15L471.2 484.15" stroke="#000000" stroke-width="0.5" fill="none" /><path id="513" transform="matrix(1 0 0 -1 0 841)" d="M471.2 483.65L471.2 471.65" stroke="#000000" stroke-width="0.5" fill="none" /><path id="514" transform="matrix(1 0 0 -1 0 841)" d="M471.2 471.15L471.2 458.85" stroke="#000000" stroke-width="0.5" fill="none" /><path id="515" transform="matrix(1 0 0 -1 0 841)" d="M471.2 458.35L471.2 446.05" stroke="#000000" stroke-width="0.5" fill="none" /><path id="516" transform="matrix(1 0 0 -1 0 841)" d="M529.8 496.15L529.8 446.05" stroke="#000000" stroke-width="0.5" fill="none" /><path id="517" transform="matrix(1 0 0 -1 0 841)" d="M65.25 496.4L530.05 496.4" stroke="#000000" stroke-width="0.5" fill="none" /><path id="518" transform="matrix(1 0 0 -1 0 841)" d="M65.75 483.9L529.55 483.9" stroke="#000000" stroke-width="0.5" fill="none" /><path id="519" transform="matrix(1 0 0 -1 0 841)" d="M65.75 471.4L529.55 471.4" stroke="#000000" stroke-width="0.5" fill="none" /><path id="520" transform="matrix(1 0 0 -1 0 841)" d="M65.75 458.6L529.55 458.6" stroke="#000000" stroke-width="0.5" fill="none" /><path id="521" transform="matrix(1 0 0 -1 0 841)" d="M65.25 445.8L530.05 445.8" stroke="#000000" stroke-width="0.5" fill="none" /><g clip-path="url(#48)"></g><g clip-path="url(#49)"></g><path id="569" transform="matrix(1 0 0 -1 0 841)" d="M65.5 413.85L65.5 401.85" stroke="#000000" stroke-width="0.5" fill="none" /><path id="570" transform="matrix(1 0 0 -1 0 841)" d="M471.3 413.85L471.3 401.85" stroke="#000000" stroke-width="0.5" fill="none" /><path id="571" transform="matrix(1 0 0 -1 0 841)" d="M529.8 413.85L529.8 401.85" stroke="#000000" stroke-width="0.5" fill="none" /><path id="572" transform="matrix(1 0 0 -1 0 841)" d="M65.25 414.1L530.05 414.1" stroke="#000000" stroke-width="0.5" fill="none" /><path id="573" transform="matrix(1 0 0 -1 0 841)" d="M65.25 401.6L530.05 401.6" stroke="#000000" stroke-width="0.5" fill="none" /><g clip-path="url(#50)"></g><g clip-path="url(#51)"></g><g clip-path="url(#52)"></g><g clip-path="url(#53)"></g><g clip-path="url(#54)"></g><g clip-path="url(#55)"></g><path id="773" transform="matrix(1 0 0 -1 0 841)" d="M65.5 322.85L65.5 285.85" stroke="#000000" stroke-width="0.5" fill="none" /><path id="774" transform="matrix(1 0 0 -1 0 841)" d="M471.4 322.85L471.4 310.85" stroke="#000000" stroke-width="0.5" fill="none" /><path id="775" transform="matrix(1 0 0 -1 0 841)" d="M471.4 310.35L471.4 298.35" stroke="#000000" stroke-width="0.5" fill="none" /><path id="776" transform="matrix(1 0 0 -1 0 841)" d="M471.4 297.85L471.4 285.85" stroke="#000000" stroke-width="0.5" fill="none" /><path id="777" transform="matrix(1 0 0 -1 0 841)" d="M529.8 322.85L529.8 285.85" stroke="#000000" stroke-width="0.5" fill="none" /><path id="778" transform="matrix(1 0 0 -1 0 841)" d="M65.25 323.1L530.05 323.1" stroke="#000000" stroke-width="0.5" fill="none" /><path id="779" transform="matrix(1 0 0 -1 0 841)" d="M65.75 310.6L529.55 310.6" stroke="#000000" stroke-width="0.5" fill="none" /><path id="780" transform="matrix(1 0 0 -1 0 841)" d="M65.75 298.1L529.55 298.1" stroke="#000000" stroke-width="0.5" fill="none" /><path id="781" transform="matrix(1 0 0 -1 0 841)" d="M65.25 285.6L530.05 285.6" stroke="#000000" stroke-width="0.5" fill="none" /><g clip-path="url(#56)"></g><g clip-path="url(#57)"></g><g clip-path="url(#58)"></g><g clip-path="url(#59)"></g><g clip-path="url(#60)"></g><g clip-path="url(#61)"></g><path id="828" transform="matrix(1 0 0 -1 0 841)" d="M65.5 269.25L65.5 232.25" stroke="#000000" stroke-width="0.5" fill="none" /><path id="829" transform="matrix(1 0 0 -1 0 841)" d="M471.4 269.25L471.4 257.25" stroke="#000000" stroke-width="0.5" fill="none" /><path id="830" transform="matrix(1 0 0 -1 0 841)" d="M471.4 256.75L471.4 244.75" stroke="#000000" stroke-width="0.5" fill="none" /><path id="831" transform="matrix(1 0 0 -1 0 841)" d="M471.4 244.25L471.4 232.25" stroke="#000000" stroke-width="0.5" fill="none" /><path id="832" transform="matrix(1 0 0 -1 0 841)" d="M529.8 269.25L529.8 232.25" stroke="#000000" stroke-width="0.5" fill="none" /><path id="833" transform="matrix(1 0 0 -1 0 841)" d="M65.25 269.5L530.05 269.5" stroke="#000000" stroke-width="0.5" fill="none" /><path id="834" transform="matrix(1 0 0 -1 0 841)" d="M65.75 257L529.55 257" stroke="#000000" stroke-width="0.5" fill="none" /><path id="835" transform="matrix(1 0 0 -1 0 841)" d="M65.75 244.5L529.55 244.5" stroke="#000000" stroke-width="0.5" fill="none" /><path id="836" transform="matrix(1 0 0 -1 0 841)" d="M65.25 232L530.05 232" stroke="#000000" stroke-width="0.5" fill="none" /><g clip-path="url(#62)"></g><g clip-path="url(#63)"></g><g clip-path="url(#64)"></g><g clip-path="url(#65)"></g><g clip-path="url(#66)"></g><g clip-path="url(#67)"></g><g clip-path="url(#68)"></g><g clip-path="url(#69)"></g><path id="901" transform="matrix(1 0 0 -1 0 841)" d="M65.5 215.65L65.5 166.15" stroke="#000000" stroke-width="0.5" fill="none" /><path id="902" transform="matrix(1 0 0 -1 0 841)" d="M471.4 215.65L471.4 203.65" stroke="#000000" stroke-width="0.5" fill="none" /><path id="903" transform="matrix(1 0 0 -1 0 841)" d="M471.4 203.15L471.4 191.15" stroke="#000000" stroke-width="0.5" fill="none" /><path id="904" transform="matrix(1 0 0 -1 0 841)" d="M471.4 190.65L471.4 178.65" stroke="#000000" stroke-width="0.5" fill="none" /><path id="905" transform="matrix(1 0 0 -1 0 841)" d="M471.4 178.15L471.4 166.15" stroke="#000000" stroke-width="0.5" fill="none" /><path id="906" transform="matrix(1 0 0 -1 0 841)" d="M529.8 215.65L529.8 166.15" stroke="#000000" stroke-width="0.5" fill="none" /><path id="907" transform="matrix(1 0 0 -1 0 841)" d="M65.25 215.9L530.05 215.9" stroke="#000000" stroke-width="0.5" fill="none" /><path id="908" transform="matrix(1 0 0 -1 0 841)" d="M65.75 203.4L529.55 203.4" stroke="#000000" stroke-width="0.5" fill="none" /><path id="909" transform="matrix(1 0 0 -1 0 841)" d="M65.75 190.9L529.55 190.9" stroke="#000000" stroke-width="0.5" fill="none" /><path id="910" transform="matrix(1 0 0 -1 0 841)" d="M65.75 178.4L529.55 178.4" stroke="#000000" stroke-width="0.5" fill="none" /><path id="911" transform="matrix(1 0 0 -1 0 841)" d="M65.25 165.9L530.05 165.9" stroke="#000000" stroke-width="0.5" fill="none" /><g clip-path="url(#70)"></g><g clip-path="url(#71)"></g><g clip-path="url(#72)"></g><g clip-path="url(#73)"></g><g clip-path="url(#74)"></g><g clip-path="url(#75)"></g><g clip-path="url(#76)"></g><g clip-path="url(#77)"></g><g clip-path="url(#78)"></g><g clip-path="url(#79)"></g><path id="1037" transform="matrix(1 0 0 -1 0 841)" d="M65.5 133.95L65.5 71.95001" stroke="#000000" stroke-width="0.5" fill="none" /><path id="1038" transform="matrix(1 0 0 -1 0 841)" d="M470 133.95L470 121.95" stroke="#000000" stroke-width="0.5" fill="none" /><path id="1039" transform="matrix(1 0 0 -1 0 841)" d="M470 121.45L470 109.45" stroke="#000000" stroke-width="0.5" fill="none" /><path id="1040" transform="matrix(1 0 0 -1 0 841)" d="M470 108.95L470 96.95001" stroke="#000000" stroke-width="0.5" fill="none" /><path id="1041" transform="matrix(1 0 0 -1 0 841)" d="M470 96.45001L470 84.45001" stroke="#000000" stroke-width="0.5" fill="none" /><path id="1042" transform="matrix(1 0 0 -1 0 841)" d="M470 83.95001L470 71.95001" stroke="#000000" stroke-width="0.5" fill="none" /><path id="1043" transform="matrix(1 0 0 -1 0 841)" d="M529.8 133.95L529.8 71.95001" stroke="#000000" stroke-width="0.5" fill="none" /><path id="1044" transform="matrix(1 0 0 -1 0 841)" d="M65.25 134.2L530.05 134.2" stroke="#000000" stroke-width="0.5" fill="none" /><path id="1045" transform="matrix(1 0 0 -1 0 841)" d="M65.75 121.7L529.55 121.7" stroke="#000000" stroke-width="0.5" fill="none" /><path id="1046" transform="matrix(1 0 0 -1 0 841)" d="M65.75 109.2L529.55 109.2" stroke="#000000" stroke-width="0.5" fill="none" /><path id="1047" transform="matrix(1 0 0 -1 0 841)" d="M65.75 96.70001L529.55 96.70001" stroke="#000000" stroke-width="0.5" fill="none" /><path id="1048" transform="matrix(1 0 0 -1 0 841)" d="M65.75 84.20001L529.55 84.20001" stroke="#000000" stroke-width="0.5" fill="none" /><path id="1049" transform="matrix(1 0 0 -1 0 841)" d="M65.25 71.70001L530.05 71.70001" stroke="#000000" stroke-width="0.5" fill="none" /></g></g></svg>