<svg xmlns="http://www.w3.org/2000/svg" xmlns:xlink="http://www.w3.org/1999/xlink" id="body_11" preserveAspectRatio="xMinYMin meet" viewBox="0 0 793 1121"><defs><clipPath id="1"><path id="" clip-rule="evenodd" transform="matrix(1 0 0 1 0 0)" d="M0 841L0 -0.9000244L0 -0.9000244L595.3 -0.9000244L595.3 -0.9000244L595.3 841L595.3 841L0 841z" /></clipPath><clipPath id="2"><path id="" clip-rule="evenodd" transform="matrix(1 0 0 1 0 0)" d="M0 41.59998L595.3 41.59998L595.3 41.59998L595.3 60.53198L595.3 60.53198L0 60.53198z" /></clipPath><clipPath id="3"><path id="" clip-rule="evenodd" transform="matrix(1 0 0 1 0 0)" d="M0 781.051L595.3 781.051L595.3 781.051L595.3 791.4L595.3 791.4L0 791.4z" /></clipPath><clipPath id="4"><path id="" clip-rule="evenodd" transform="matrix(1 0 0 1 0 0)" d="M64.75 69.5L470.65 69.5L470.65 69.5L470.65 83.5L470.65 83.5L64.75 83.5z" /></clipPath><clipPath id="5"><path id="" clip-rule="evenodd" transform="matrix(1 0 0 1 0 0)" d="M469.15 69.5L530.55 69.5L530.55 69.5L530.55 83.5L530.55 83.5L469.15 83.5z" /></clipPath><clipPath id="6"><path id="" clip-rule="evenodd" transform="matrix(1 0 0 1 0 0)" d="M64.75 82L470.65 82L470.65 82L470.65 96L470.65 96L64.75 96z" /></clipPath><clipPath id="7"><path id="" clip-rule="evenodd" transform="matrix(1 0 0 1 0 0)" d="M469.15 82L530.55 82L530.55 82L530.55 96L530.55 96L469.15 96z" /></clipPath><clipPath id="8"><path id="" clip-rule="evenodd" transform="matrix(1 0 0 1 0 0)" d="M64.75 94.5L470.65 94.5L470.65 94.5L470.65 108.5L470.65 108.5L64.75 108.5z" /></clipPath><clipPath id="9"><path id="" clip-rule="evenodd" transform="matrix(1 0 0 1 0 0)" d="M469.15 94.5L530.55 94.5L530.55 94.5L530.55 108.5L530.55 108.5L469.15 108.5z" /></clipPath><clipPath id="10"><path id="" clip-rule="evenodd" transform="matrix(1 0 0 1 0 0)" d="M64.75 107L470.65 107L470.65 107L470.65 121L470.65 121L64.75 121z" /></clipPath><clipPath id="11"><path id="" clip-rule="evenodd" transform="matrix(1 0 0 1 0 0)" d="M469.15 107L530.55 107L530.55 107L530.55 121L530.55 121L469.15 121z" /></clipPath><clipPath id="12"><path id="" clip-rule="evenodd" transform="matrix(1 0 0 1 0 0)" d="M64.75 119.5L470.65 119.5L470.65 119.5L470.65 133.5L470.65 133.5L64.75 133.5z" /></clipPath><clipPath id="13"><path id="" clip-rule="evenodd" transform="matrix(1 0 0 1 0 0)" d="M469.15 119.5L530.55 119.5L530.55 119.5L530.55 133.5L530.55 133.5L469.15 133.5z" /></clipPath><clipPath id="14"><path id="" clip-rule="evenodd" transform="matrix(1 0 0 1 0 0)" d="M64.75 132L470.65 132L470.65 132L470.65 146L470.65 146L64.75 146z" /></clipPath><clipPath id="15"><path id="" clip-rule="evenodd" transform="matrix(1 0 0 1 0 0)" d="M469.15 132L530.55 132L530.55 132L530.55 146L530.55 146L469.15 146z" /></clipPath><clipPath id="16"><path id="" clip-rule="evenodd" transform="matrix(1 0 0 1 0 0)" d="M64.75 144.5L470.65 144.5L470.65 144.5L470.65 158.5L470.65 158.5L64.75 158.5z" /></clipPath><clipPath id="17"><path id="" clip-rule="evenodd" transform="matrix(1 0 0 1 0 0)" d="M469.15 144.5L530.55 144.5L530.55 144.5L530.55 158.5L530.55 158.5L469.15 158.5z" /></clipPath><clipPath id="18"><path id="" clip-rule="evenodd" transform="matrix(1 0 0 1 0 0)" d="M64.75 157L470.65 157L470.65 157L470.65 171L470.65 171L64.75 171z" /></clipPath><clipPath id="19"><path id="" clip-rule="evenodd" transform="matrix(1 0 0 1 0 0)" d="M469.15 157L530.55 157L530.55 157L530.55 171L530.55 171L469.15 171z" /></clipPath><clipPath id="20"><path id="" clip-rule="evenodd" transform="matrix(1 0 0 1 0 0)" d="M206.9 185.6L530.55 185.6L530.55 185.6L530.55 199.6L530.55 199.6L206.9 199.6z" /></clipPath><clipPath id="21"><path id="" clip-rule="evenodd" transform="matrix(1 0 0 1 0 0)" d="M206.9 198.1L530.55 198.1L530.55 198.1L530.55 212.1L530.55 212.1L206.9 212.1z" /></clipPath><clipPath id="22"><path id="" clip-rule="evenodd" transform="matrix(1 0 0 1 0 0)" d="M64.75 185.6L208.4 185.6L208.4 185.6L208.4 224.6L208.4 224.6L64.75 224.6z" /></clipPath><clipPath id="23"><path id="" clip-rule="evenodd" transform="matrix(1 0 0 1 0 0)" d="M206.9 210.6L350.75 210.6L350.75 210.6L350.75 224.6L350.75 224.6L206.9 224.6z" /></clipPath><clipPath id="24"><path id="" clip-rule="evenodd" transform="matrix(1 0 0 1 0 0)" d="M349.25 210.6L530.55 210.6L530.55 210.6L530.55 224.6L530.55 224.6L349.25 224.6z" /></clipPath><clipPath id="25"><path id="" clip-rule="evenodd" transform="matrix(1 0 0 1 0 0)" d="M163.8 223.1L208.4 223.1L208.4 223.1L208.4 237.1L208.4 237.1L163.8 237.1z" /></clipPath><clipPath id="26"><path id="" clip-rule="evenodd" transform="matrix(1 0 0 1 0 0)" d="M206.9 223.1L350.75 223.1L350.75 223.1L350.75 237.1L350.75 237.1L206.9 237.1z" /></clipPath><clipPath id="27"><path id="" clip-rule="evenodd" transform="matrix(1 0 0 1 0 0)" d="M349.25 223.1L530.55 223.1L530.55 223.1L530.55 237.1L530.55 237.1L349.25 237.1z" /></clipPath><clipPath id="28"><path id="" clip-rule="evenodd" transform="matrix(1 0 0 1 0 0)" d="M64.75 223.1L165.3 223.1L165.3 223.1L165.3 249.6L165.3 249.6L64.75 249.6z" /></clipPath><clipPath id="29"><path id="" clip-rule="evenodd" transform="matrix(1 0 0 1 0 0)" d="M163.8 235.6L208.4 235.6L208.4 235.6L208.4 249.6L208.4 249.6L163.8 249.6z" /></clipPath><clipPath id="30"><path id="" clip-rule="evenodd" transform="matrix(1 0 0 1 0 0)" d="M206.9 235.6L350.75 235.6L350.75 235.6L350.75 249.6L350.75 249.6L206.9 249.6z" /></clipPath><clipPath id="31"><path id="" clip-rule="evenodd" transform="matrix(1 0 0 1 0 0)" d="M349.25 235.6L530.55 235.6L530.55 235.6L530.55 249.6L530.55 249.6L349.25 249.6z" /></clipPath><clipPath id="32"><path id="" clip-rule="evenodd" transform="matrix(1 0 0 1 0 0)" d="M163.8 248.1L208.4 248.1L208.4 248.1L208.4 262.1L208.4 262.1L163.8 262.1z" /></clipPath><clipPath id="33"><path id="" clip-rule="evenodd" transform="matrix(1 0 0 1 0 0)" d="M206.9 248.1L350.75 248.1L350.75 248.1L350.75 262.1L350.75 262.1L206.9 262.1z" /></clipPath><clipPath id="34"><path id="" clip-rule="evenodd" transform="matrix(1 0 0 1 0 0)" d="M349.25 248.1L530.55 248.1L530.55 248.1L530.55 262.1L530.55 262.1L349.25 262.1z" /></clipPath><clipPath id="35"><path id="" clip-rule="evenodd" transform="matrix(1 0 0 1 0 0)" d="M163.8 260.6L208.4 260.6L208.4 260.6L208.4 274.6L208.4 274.6L163.8 274.6z" /></clipPath><clipPath id="36"><path id="" clip-rule="evenodd" transform="matrix(1 0 0 1 0 0)" d="M206.9 260.6L350.75 260.6L350.75 260.6L350.75 274.6L350.75 274.6L206.9 274.6z" /></clipPath><clipPath id="37"><path id="" clip-rule="evenodd" transform="matrix(1 0 0 1 0 0)" d="M349.25 260.6L530.55 260.6L530.55 260.6L530.55 274.6L530.55 274.6L349.25 274.6z" /></clipPath><clipPath id="38"><path id="" clip-rule="evenodd" transform="matrix(1 0 0 1 0 0)" d="M64.75 248.1L165.3 248.1L165.3 248.1L165.3 287.1L165.3 287.1L64.75 287.1z" /></clipPath><clipPath id="39"><path id="" clip-rule="evenodd" transform="matrix(1 0 0 1 0 0)" d="M163.8 273.1L208.4 273.1L208.4 273.1L208.4 287.1L208.4 287.1L163.8 287.1z" /></clipPath><clipPath id="40"><path id="" clip-rule="evenodd" transform="matrix(1 0 0 1 0 0)" d="M206.9 273.1L530.55 273.1L530.55 273.1L530.55 287.1L530.55 287.1L206.9 287.1z" /></clipPath><clipPath id="41"><path id="" clip-rule="evenodd" transform="matrix(1 0 0 1 0 0)" d="M82.775 334.308L104.025 334.308L104.025 334.308L104.025 1127.058L104.025 1127.058L82.775 1127.058z" /></clipPath><clipPath id="42"><path id="" clip-rule="evenodd" transform="matrix(1 0 0 1 0 0)" d="M85.025 334.308L101.775 334.308L101.775 334.308L101.775 1127.058L101.775 1127.058L85.025 1127.058z" /></clipPath><clipPath id="43"><path id="" clip-rule="evenodd" transform="matrix(1 0 0 1 0 0)" d="M64.75 379.7L470.65 379.7L470.65 379.7L470.65 393.7L470.65 393.7L64.75 393.7z" /></clipPath><clipPath id="44"><path id="" clip-rule="evenodd" transform="matrix(1 0 0 1 0 0)" d="M469.15 379.7L530.55 379.7L530.55 379.7L530.55 393.7L530.55 393.7L469.15 393.7z" /></clipPath><clipPath id="45"><path id="" clip-rule="evenodd" transform="matrix(1 0 0 1 0 0)" d="M64.75 439.5L469.15 439.5L469.15 439.5L469.15 453.5L469.15 453.5L64.75 453.5z" /></clipPath><clipPath id="46"><path id="" clip-rule="evenodd" transform="matrix(1 0 0 1 0 0)" d="M467.65 439.5L530.55 439.5L530.55 439.5L530.55 453.5L530.55 453.5L467.65 453.5z" /></clipPath><clipPath id="47"><path id="" clip-rule="evenodd" transform="matrix(1 0 0 1 0 0)" d="M64.75 452L469.15 452L469.15 452L469.15 466L469.15 466L64.75 466z" /></clipPath><clipPath id="48"><path id="" clip-rule="evenodd" transform="matrix(1 0 0 1 0 0)" d="M467.65 452L530.55 452L530.55 452L530.55 466L530.55 466L467.65 466z" /></clipPath><clipPath id="49"><path id="" clip-rule="evenodd" transform="matrix(1 0 0 1 0 0)" d="M64.75 464.5L469.15 464.5L469.15 464.5L469.15 478.5L469.15 478.5L64.75 478.5z" /></clipPath><clipPath id="50"><path id="" clip-rule="evenodd" transform="matrix(1 0 0 1 0 0)" d="M467.65 464.5L530.55 464.5L530.55 464.5L530.55 478.5L530.55 478.5L467.65 478.5z" /></clipPath><clipPath id="51"><path id="" clip-rule="evenodd" transform="matrix(1 0 0 1 0 0)" d="M64.75 477L469.15 477L469.15 477L469.15 491L469.15 491L64.75 491z" /></clipPath><clipPath id="52"><path id="" clip-rule="evenodd" transform="matrix(1 0 0 1 0 0)" d="M467.65 477L530.55 477L530.55 477L530.55 491L530.55 491L467.65 491z" /></clipPath><clipPath id="53"><path id="" clip-rule="evenodd" transform="matrix(1 0 0 1 0 0)" d="M64.75 489.5L469.15 489.5L469.15 489.5L469.15 503.5L469.15 503.5L64.75 503.5z" /></clipPath><clipPath id="54"><path id="" clip-rule="evenodd" transform="matrix(1 0 0 1 0 0)" d="M467.65 489.5L530.55 489.5L530.55 489.5L530.55 503.5L530.55 503.5L467.65 503.5z" /></clipPath><clipPath id="55"><path id="" clip-rule="evenodd" transform="matrix(1 0 0 1 0 0)" d="M64.75 502L469.15 502L469.15 502L469.15 516L469.15 516L64.75 516z" /></clipPath><clipPath id="56"><path id="" clip-rule="evenodd" transform="matrix(1 0 0 1 0 0)" d="M467.65 502L530.55 502L530.55 502L530.55 516L530.55 516L467.65 516z" /></clipPath><clipPath id="57"><path id="" clip-rule="evenodd" transform="matrix(1 0 0 1 0 0)" d="M64.75 561.8L469.8 561.8L469.8 561.8L469.8 575.8L469.8 575.8L64.75 575.8z" /></clipPath><clipPath id="58"><path id="" clip-rule="evenodd" transform="matrix(1 0 0 1 0 0)" d="M468.3 561.8L530.55 561.8L530.55 561.8L530.55 575.8L530.55 575.8L468.3 575.8z" /></clipPath><clipPath id="59"><path id="" clip-rule="evenodd" transform="matrix(1 0 0 1 0 0)" d="M64.75 574.3L469.8 574.3L469.8 574.3L469.8 588.3L469.8 588.3L64.75 588.3z" /></clipPath><clipPath id="60"><path id="" clip-rule="evenodd" transform="matrix(1 0 0 1 0 0)" d="M468.3 574.3L530.55 574.3L530.55 574.3L530.55 588.3L530.55 588.3L468.3 588.3z" /></clipPath><clipPath id="61"><path id="" clip-rule="evenodd" transform="matrix(1 0 0 1 0 0)" d="M64.75 586.8L469.8 586.8L469.8 586.8L469.8 612.8L469.8 612.8L64.75 612.8z" /></clipPath><clipPath id="62"><path id="" clip-rule="evenodd" transform="matrix(1 0 0 1 0 0)" d="M468.3 586.8L530.55 586.8L530.55 586.8L530.55 612.8L530.55 612.8L468.3 612.8z" /></clipPath><clipPath id="63"><path id="" clip-rule="evenodd" transform="matrix(1 0 0 1 0 0)" d="M64.75 611.3L469.8 611.3L469.8 611.3L469.8 625.3L469.8 625.3L64.75 625.3z" /></clipPath><clipPath id="64"><path id="" clip-rule="evenodd" transform="matrix(1 0 0 1 0 0)" d="M468.3 611.3L530.55 611.3L530.55 611.3L530.55 625.3L530.55 625.3L468.3 625.3z" /></clipPath><clipPath id="65"><path id="" clip-rule="evenodd" transform="matrix(1 0 0 1 0 0)" d="M64.75 623.8L469.8 623.8L469.8 623.8L469.8 637.8L469.8 637.8L64.75 637.8z" /></clipPath><clipPath id="66"><path id="" clip-rule="evenodd" transform="matrix(1 0 0 1 0 0)" d="M468.3 623.8L530.55 623.8L530.55 623.8L530.55 637.8L530.55 637.8L468.3 637.8z" /></clipPath><clipPath id="67"><path id="" clip-rule="evenodd" transform="matrix(1 0 0 1 0 0)" d="M64.75 636.3L469.8 636.3L469.8 636.3L469.8 650.3L469.8 650.3L64.75 650.3z" /></clipPath><clipPath id="68"><path id="" clip-rule="evenodd" transform="matrix(1 0 0 1 0 0)" d="M468.3 636.3L530.55 636.3L530.55 636.3L530.55 650.3L530.55 650.3L468.3 650.3z" /></clipPath><clipPath id="69"><path id="" clip-rule="evenodd" transform="matrix(1 0 0 1 0 0)" d="M64.75 648.8L469.8 648.8L469.8 648.8L469.8 663.6L469.8 663.6L64.75 663.6z" /></clipPath><clipPath id="70"><path id="" clip-rule="evenodd" transform="matrix(1 0 0 1 0 0)" d="M468.3 648.8L530.55 648.8L530.55 648.8L530.55 663.6L530.55 663.6L468.3 663.6z" /></clipPath><clipPath id="71"><path id="" clip-rule="evenodd" transform="matrix(1 0 0 1 0 0)" d="M64.75 662.1L469.8 662.1L469.8 662.1L469.8 676.1L469.8 676.1L64.75 676.1z" /></clipPath><clipPath id="72"><path id="" clip-rule="evenodd" transform="matrix(1 0 0 1 0 0)" d="M468.3 662.1L530.55 662.1L530.55 662.1L530.55 676.1L530.55 676.1L468.3 676.1z" /></clipPath><clipPath id="73"><path id="" clip-rule="evenodd" transform="matrix(1 0 0 1 0 0)" d="M64.75 674.6L469.8 674.6L469.8 674.6L469.8 688.6L469.8 688.6L64.75 688.6z" /></clipPath><clipPath id="74"><path id="" clip-rule="evenodd" transform="matrix(1 0 0 1 0 0)" d="M468.3 674.6L530.55 674.6L530.55 674.6L530.55 688.6L530.55 688.6L468.3 688.6z" /></clipPath><clipPath id="75"><path id="" clip-rule="evenodd" transform="matrix(1 0 0 1 0 0)" d="M64.75 687.1L469.8 687.1L469.8 687.1L469.8 701.1L469.8 701.1L64.75 701.1z" /></clipPath><clipPath id="76"><path id="" clip-rule="evenodd" transform="matrix(1 0 0 1 0 0)" d="M468.3 687.1L530.55 687.1L530.55 687.1L530.55 701.1L530.55 701.1L468.3 701.1z" /></clipPath><clipPath id="77"><path id="" clip-rule="evenodd" transform="matrix(1 0 0 1 0 0)" d="M64.75 699.6L469.8 699.6L469.8 699.6L469.8 713.6L469.8 713.6L64.75 713.6z" /></clipPath><clipPath id="78"><path id="" clip-rule="evenodd" transform="matrix(1 0 0 1 0 0)" d="M468.3 699.6L530.55 699.6L530.55 699.6L530.55 713.6L530.55 713.6L468.3 713.6z" /></clipPath><clipPath id="79"><path id="" clip-rule="evenodd" transform="matrix(1 0 0 1 0 0)" d="M64.75 712.1L469.8 712.1L469.8 712.1L469.8 726.1L469.8 726.1L64.75 726.1z" /></clipPath><clipPath id="80"><path id="" clip-rule="evenodd" transform="matrix(1 0 0 1 0 0)" d="M468.3 712.1L530.55 712.1L530.55 712.1L530.55 726.1L530.55 726.1L468.3 726.1z" /></clipPath><clipPath id="81"><path id="" clip-rule="evenodd" transform="matrix(1 0 0 1 0 0)" d="M64.75 724.6L469.8 724.6L469.8 724.6L469.8 738.6L469.8 738.6L64.75 738.6z" /></clipPath><clipPath id="82"><path id="" clip-rule="evenodd" transform="matrix(1 0 0 1 0 0)" d="M468.3 724.6L530.55 724.6L530.55 724.6L530.55 738.6L530.55 738.6L468.3 738.6z" /></clipPath><clipPath id="83"><path id="" clip-rule="evenodd" transform="matrix(1 0 0 1 0 0)" d="M64.75 753.2L471.05 753.2L471.05 753.2L471.05 767.2L471.05 767.2L64.75 767.2z" /></clipPath><clipPath id="84"><path id="" clip-rule="evenodd" transform="matrix(1 0 0 1 0 0)" d="M469.55 753.2L530.55 753.2L530.55 753.2L530.55 767.2L530.55 767.2L469.55 767.2z" /></clipPath></defs><g transform="matrix(1.333333 0 0 1.333333 0 0)"><g clip-path="url(#1)"><g clip-path="url(#2)"><path id="13" transform="matrix(1 0 0 -1 0 841)" d="M69.45 780.718L525.85 780.718" stroke="#000000" stroke-width="0.5" fill="none" /></g><g clip-path="url(#3)"></g><g clip-path="url(#4)"></g><g clip-path="url(#5)"></g><g clip-path="url(#6)"></g><g clip-path="url(#7)"></g><g clip-path="url(#8)"></g><g clip-path="url(#9)"></g><g clip-path="url(#10)"></g><g clip-path="url(#11)"></g><g clip-path="url(#12)"></g><g clip-path="url(#13)"></g><g clip-path="url(#14)"></g><g clip-path="url(#15)"></g><g clip-path="url(#16)"></g><g clip-path="url(#17)"></g><g clip-path="url(#18)"></g><g clip-path="url(#19)"></g><path id="127" transform="matrix(1 0 0 -1 0 841)" d="M65.5 770.5L65.5 671" stroke="#000000" stroke-width="0.5" fill="none" /><path id="128" transform="matrix(1 0 0 -1 0 841)" d="M469.9 770.5L469.9 758.5" stroke="#000000" stroke-width="0.5" fill="none" /><path id="129" transform="matrix(1 0 0 -1 0 841)" d="M469.9 758L469.9 746" stroke="#000000" stroke-width="0.5" fill="none" /><path id="130" transform="matrix(1 0 0 -1 0 841)" d="M469.9 745.5L469.9 733.5" stroke="#000000" stroke-width="0.5" fill="none" /><path id="131" transform="matrix(1 0 0 -1 0 841)" d="M469.9 733L469.9 721" stroke="#000000" stroke-width="0.5" fill="none" /><path id="132" transform="matrix(1 0 0 -1 0 841)" d="M469.9 720.5L469.9 708.5" stroke="#000000" stroke-width="0.5" fill="none" /><path id="133" transform="matrix(1 0 0 -1 0 841)" d="M469.9 708L469.9 696" stroke="#000000" stroke-width="0.5" fill="none" /><path id="134" transform="matrix(1 0 0 -1 0 841)" d="M469.9 695.5L469.9 683.5" stroke="#000000" stroke-width="0.5" fill="none" /><path id="135" transform="matrix(1 0 0 -1 0 841)" d="M469.9 683L469.9 671" stroke="#000000" stroke-width="0.5" fill="none" /><path id="136" transform="matrix(1 0 0 -1 0 841)" d="M529.8 770.5L529.8 671" stroke="#000000" stroke-width="0.5" fill="none" /><path id="137" transform="matrix(1 0 0 -1 0 841)" d="M65.25 770.75L530.05 770.75" stroke="#000000" stroke-width="0.5" fill="none" /><path id="138" transform="matrix(1 0 0 -1 0 841)" d="M65.75 758.25L529.55 758.25" stroke="#000000" stroke-width="0.5" fill="none" /><path id="139" transform="matrix(1 0 0 -1 0 841)" d="M65.75 745.75L529.55 745.75" stroke="#000000" stroke-width="0.5" fill="none" /><path id="140" transform="matrix(1 0 0 -1 0 841)" d="M65.75 733.25L529.55 733.25" stroke="#000000" stroke-width="0.5" fill="none" /><path id="141" transform="matrix(1 0 0 -1 0 841)" d="M65.75 720.75L529.55 720.75" stroke="#000000" stroke-width="0.5" fill="none" /><path id="142" transform="matrix(1 0 0 -1 0 841)" d="M65.75 708.25L529.55 708.25" stroke="#000000" stroke-width="0.5" fill="none" /><path id="143" transform="matrix(1 0 0 -1 0 841)" d="M65.75 695.75L529.55 695.75" stroke="#000000" stroke-width="0.5" fill="none" /><path id="144" transform="matrix(1 0 0 -1 0 841)" d="M65.75 683.25L529.55 683.25" stroke="#000000" stroke-width="0.5" fill="none" /><path id="145" transform="matrix(1 0 0 -1 0 841)" d="M65.25 670.75L530.05 670.75" stroke="#000000" stroke-width="0.5" fill="none" /><g clip-path="url(#20)"></g><g clip-path="url(#21)"></g><g clip-path="url(#22)"></g><g clip-path="url(#23)"></g><g clip-path="url(#24)"></g><g clip-path="url(#25)"></g><g clip-path="url(#26)"></g><g clip-path="url(#27)"></g><g clip-path="url(#28)"></g><g clip-path="url(#29)"></g><g clip-path="url(#30)"></g><g clip-path="url(#31)"></g><g clip-path="url(#32)"></g><g clip-path="url(#33)"></g><g clip-path="url(#34)"></g><g clip-path="url(#35)"></g><g clip-path="url(#36)"></g><g clip-path="url(#37)"></g><g clip-path="url(#38)"></g><g clip-path="url(#39)"></g><g clip-path="url(#40)"></g><path id="243" transform="matrix(1 0 0 -1 0 841)" d="M65.5 654.4L65.5 554.9" stroke="#000000" stroke-width="0.5" fill="none" /><path id="244" transform="matrix(1 0 0 -1 0 841)" d="M207.65 654.4L207.65 617.4" stroke="#000000" stroke-width="0.5" fill="none" /><path id="245" transform="matrix(1 0 0 -1 0 841)" d="M207.65 616.9L207.65 604.9" stroke="#000000" stroke-width="0.5" fill="none" /><path id="246" transform="matrix(1 0 0 -1 0 841)" d="M207.65 604.4L207.65 592.4" stroke="#000000" stroke-width="0.5" fill="none" /><path id="247" transform="matrix(1 0 0 -1 0 841)" d="M207.65 591.9L207.65 579.9" stroke="#000000" stroke-width="0.5" fill="none" /><path id="248" transform="matrix(1 0 0 -1 0 841)" d="M207.65 579.4L207.65 567.4" stroke="#000000" stroke-width="0.5" fill="none" /><path id="249" transform="matrix(1 0 0 -1 0 841)" d="M207.65 566.9L207.65 554.9" stroke="#000000" stroke-width="0.5" fill="none" /><path id="250" transform="matrix(1 0 0 -1 0 841)" d="M529.8 654.4L529.8 554.9" stroke="#000000" stroke-width="0.5" fill="none" /><path id="251" transform="matrix(1 0 0 -1 0 841)" d="M350 629.4L350 617.4" stroke="#000000" stroke-width="0.5" fill="none" /><path id="252" transform="matrix(1 0 0 -1 0 841)" d="M350 616.9L350 604.9" stroke="#000000" stroke-width="0.5" fill="none" /><path id="253" transform="matrix(1 0 0 -1 0 841)" d="M350 604.4L350 592.4" stroke="#000000" stroke-width="0.5" fill="none" /><path id="254" transform="matrix(1 0 0 -1 0 841)" d="M350 591.9L350 579.9" stroke="#000000" stroke-width="0.5" fill="none" /><path id="255" transform="matrix(1 0 0 -1 0 841)" d="M350 579.4L350 567.4" stroke="#000000" stroke-width="0.5" fill="none" /><path id="256" transform="matrix(1 0 0 -1 0 841)" d="M164.55 616.9L164.55 592.4" stroke="#000000" stroke-width="0.5" fill="none" /><path id="257" transform="matrix(1 0 0 -1 0 841)" d="M164.55 591.9L164.55 554.9" stroke="#000000" stroke-width="0.5" fill="none" /><path id="258" transform="matrix(1 0 0 -1 0 841)" d="M65.25 654.65L530.05 654.65" stroke="#000000" stroke-width="0.5" fill="none" /><path id="259" transform="matrix(1 0 0 -1 0 841)" d="M207.9 642.15L529.55 642.15" stroke="#000000" stroke-width="0.5" fill="none" /><path id="260" transform="matrix(1 0 0 -1 0 841)" d="M207.9 629.65L529.55 629.65" stroke="#000000" stroke-width="0.5" fill="none" /><path id="261" transform="matrix(1 0 0 -1 0 841)" d="M65.75 617.15L529.55 617.15" stroke="#000000" stroke-width="0.5" fill="none" /><path id="262" transform="matrix(1 0 0 -1 0 841)" d="M164.8 604.65L529.55 604.65" stroke="#000000" stroke-width="0.5" fill="none" /><path id="263" transform="matrix(1 0 0 -1 0 841)" d="M65.75 592.15L529.55 592.15" stroke="#000000" stroke-width="0.5" fill="none" /><path id="264" transform="matrix(1 0 0 -1 0 841)" d="M164.8 579.65L529.55 579.65" stroke="#000000" stroke-width="0.5" fill="none" /><path id="265" transform="matrix(1 0 0 -1 0 841)" d="M164.8 567.15L529.55 567.15" stroke="#000000" stroke-width="0.5" fill="none" /><path id="266" transform="matrix(1 0 0 -1 0 841)" d="M65.25 554.65L530.05 554.65" stroke="#000000" stroke-width="0.5" fill="none" /><g clip-path="url(#41)"></g><g clip-path="url(#42)"></g><g clip-path="url(#43)"></g><g clip-path="url(#44)"></g><path id="425" transform="matrix(1 0 0 -1 0 841)" d="M65.5 460.3L65.5 448.3" stroke="#000000" stroke-width="0.5" fill="none" /><path id="426" transform="matrix(1 0 0 -1 0 841)" d="M469.9 460.3L469.9 448.3" stroke="#000000" stroke-width="0.5" fill="none" /><path id="427" transform="matrix(1 0 0 -1 0 841)" d="M529.8 460.3L529.8 448.3" stroke="#000000" stroke-width="0.5" fill="none" /><path id="428" transform="matrix(1 0 0 -1 0 841)" d="M65.25 460.55L530.05 460.55" stroke="#000000" stroke-width="0.5" fill="none" /><path id="429" transform="matrix(1 0 0 -1 0 841)" d="M65.25 448.05L530.05 448.05" stroke="#000000" stroke-width="0.5" fill="none" /><g clip-path="url(#45)"></g><g clip-path="url(#46)"></g><g clip-path="url(#47)"></g><g clip-path="url(#48)"></g><g clip-path="url(#49)"></g><g clip-path="url(#50)"></g><g clip-path="url(#51)"></g><g clip-path="url(#52)"></g><g clip-path="url(#53)"></g><g clip-path="url(#54)"></g><g clip-path="url(#55)"></g><g clip-path="url(#56)"></g><path id="548" transform="matrix(1 0 0 -1 0 841)" d="M65.5 400.5L65.5 326" stroke="#000000" stroke-width="0.5" fill="none" /><path id="549" transform="matrix(1 0 0 -1 0 841)" d="M468.4 400.5L468.4 388.5" stroke="#000000" stroke-width="0.5" fill="none" /><path id="550" transform="matrix(1 0 0 -1 0 841)" d="M468.4 388L468.4 376" stroke="#000000" stroke-width="0.5" fill="none" /><path id="551" transform="matrix(1 0 0 -1 0 841)" d="M468.4 375.5L468.4 363.5" stroke="#000000" stroke-width="0.5" fill="none" /><path id="552" transform="matrix(1 0 0 -1 0 841)" d="M468.4 363L468.4 351" stroke="#000000" stroke-width="0.5" fill="none" /><path id="553" transform="matrix(1 0 0 -1 0 841)" d="M468.4 350.5L468.4 338.5" stroke="#000000" stroke-width="0.5" fill="none" /><path id="554" transform="matrix(1 0 0 -1 0 841)" d="M468.4 338L468.4 326" stroke="#000000" stroke-width="0.5" fill="none" /><path id="555" transform="matrix(1 0 0 -1 0 841)" d="M529.8 400.5L529.8 326" stroke="#000000" stroke-width="0.5" fill="none" /><path id="556" transform="matrix(1 0 0 -1 0 841)" d="M65.25 400.75L530.05 400.75" stroke="#000000" stroke-width="0.5" fill="none" /><path id="557" transform="matrix(1 0 0 -1 0 841)" d="M65.75 388.25L529.55 388.25" stroke="#000000" stroke-width="0.5" fill="none" /><path id="558" transform="matrix(1 0 0 -1 0 841)" d="M65.75 375.75L529.55 375.75" stroke="#000000" stroke-width="0.5" fill="none" /><path id="559" transform="matrix(1 0 0 -1 0 841)" d="M65.75 363.25L529.55 363.25" stroke="#000000" stroke-width="0.5" fill="none" /><path id="560" transform="matrix(1 0 0 -1 0 841)" d="M65.75 350.75L529.55 350.75" stroke="#000000" stroke-width="0.5" fill="none" /><path id="561" transform="matrix(1 0 0 -1 0 841)" d="M65.75 338.25L529.55 338.25" stroke="#000000" stroke-width="0.5" fill="none" /><path id="562" transform="matrix(1 0 0 -1 0 841)" d="M65.25 325.75L530.05 325.75" stroke="#000000" stroke-width="0.5" fill="none" /><g clip-path="url(#57)"></g><g clip-path="url(#58)"></g><g clip-path="url(#59)"></g><g clip-path="url(#60)"></g><g clip-path="url(#61)"></g><g clip-path="url(#62)"></g><g clip-path="url(#63)"></g><g clip-path="url(#64)"></g><g clip-path="url(#65)"></g><g clip-path="url(#66)"></g><g clip-path="url(#67)"></g><g clip-path="url(#68)"></g><g clip-path="url(#69)"></g><g clip-path="url(#70)"></g><g clip-path="url(#71)"></g><g clip-path="url(#72)"></g><g clip-path="url(#73)"></g><g clip-path="url(#74)"></g><g clip-path="url(#75)"></g><g clip-path="url(#76)"></g><g clip-path="url(#77)"></g><g clip-path="url(#78)"></g><g clip-path="url(#79)"></g><g clip-path="url(#80)"></g><g clip-path="url(#81)"></g><g clip-path="url(#82)"></g><path id="968" transform="matrix(1 0 0 -1 0 841)" d="M65.5 278.2L65.5 103.4" stroke="#000000" stroke-width="0.5" fill="none" /><path id="969" transform="matrix(1 0 0 -1 0 841)" d="M469.05 278.2L469.05 266.2" stroke="#000000" stroke-width="0.5" fill="none" /><path id="970" transform="matrix(1 0 0 -1 0 841)" d="M469.05 265.7L469.05 253.7" stroke="#000000" stroke-width="0.5" fill="none" /><path id="971" transform="matrix(1 0 0 -1 0 841)" d="M469.05 253.2L469.05 229.2" stroke="#000000" stroke-width="0.5" fill="none" /><path id="972" transform="matrix(1 0 0 -1 0 841)" d="M469.05 228.7L469.05 216.7" stroke="#000000" stroke-width="0.5" fill="none" /><path id="973" transform="matrix(1 0 0 -1 0 841)" d="M469.05 216.2L469.05 204.2" stroke="#000000" stroke-width="0.5" fill="none" /><path id="974" transform="matrix(1 0 0 -1 0 841)" d="M469.05 203.7L469.05 191.7" stroke="#000000" stroke-width="0.5" fill="none" /><path id="975" transform="matrix(1 0 0 -1 0 841)" d="M469.05 191.2L469.05 178.4" stroke="#000000" stroke-width="0.5" fill="none" /><path id="976" transform="matrix(1 0 0 -1 0 841)" d="M469.05 177.9L469.05 165.9" stroke="#000000" stroke-width="0.5" fill="none" /><path id="977" transform="matrix(1 0 0 -1 0 841)" d="M469.05 165.4L469.05 153.4" stroke="#000000" stroke-width="0.5" fill="none" /><path id="978" transform="matrix(1 0 0 -1 0 841)" d="M469.05 152.9L469.05 140.9" stroke="#000000" stroke-width="0.5" fill="none" /><path id="979" transform="matrix(1 0 0 -1 0 841)" d="M469.05 140.4L469.05 128.4" stroke="#000000" stroke-width="0.5" fill="none" /><path id="980" transform="matrix(1 0 0 -1 0 841)" d="M469.05 127.9L469.05 115.9" stroke="#000000" stroke-width="0.5" fill="none" /><path id="981" transform="matrix(1 0 0 -1 0 841)" d="M469.05 115.4L469.05 103.4" stroke="#000000" stroke-width="0.5" fill="none" /><path id="982" transform="matrix(1 0 0 -1 0 841)" d="M529.8 278.2L529.8 103.4" stroke="#000000" stroke-width="0.5" fill="none" /><path id="983" transform="matrix(1 0 0 -1 0 841)" d="M65.25 278.45L530.05 278.45" stroke="#000000" stroke-width="0.5" fill="none" /><path id="984" transform="matrix(1 0 0 -1 0 841)" d="M65.75 265.95L529.55 265.95" stroke="#000000" stroke-width="0.5" fill="none" /><path id="985" transform="matrix(1 0 0 -1 0 841)" d="M65.75 253.45L529.55 253.45" stroke="#000000" stroke-width="0.5" fill="none" /><path id="986" transform="matrix(1 0 0 -1 0 841)" d="M65.75 228.95L529.55 228.95" stroke="#000000" stroke-width="0.5" fill="none" /><path id="987" transform="matrix(1 0 0 -1 0 841)" d="M65.75 216.45L529.55 216.45" stroke="#000000" stroke-width="0.5" fill="none" /><path id="988" transform="matrix(1 0 0 -1 0 841)" d="M65.75 203.95L529.55 203.95" stroke="#000000" stroke-width="0.5" fill="none" /><path id="989" transform="matrix(1 0 0 -1 0 841)" d="M65.75 191.45L529.55 191.45" stroke="#000000" stroke-width="0.5" fill="none" /><path id="990" transform="matrix(1 0 0 -1 0 841)" d="M65.75 178.15L529.55 178.15" stroke="#000000" stroke-width="0.5" fill="none" /><path id="991" transform="matrix(1 0 0 -1 0 841)" d="M65.75 165.65L529.55 165.65" stroke="#000000" stroke-width="0.5" fill="none" /><path id="992" transform="matrix(1 0 0 -1 0 841)" d="M65.75 153.15L529.55 153.15" stroke="#000000" stroke-width="0.5" fill="none" /><path id="993" transform="matrix(1 0 0 -1 0 841)" d="M65.75 140.65L529.55 140.65" stroke="#000000" stroke-width="0.5" fill="none" /><path id="994" transform="matrix(1 0 0 -1 0 841)" d="M65.75 128.15L529.55 128.15" stroke="#000000" stroke-width="0.5" fill="none" /><path id="995" transform="matrix(1 0 0 -1 0 841)" d="M65.75 115.65L529.55 115.65" stroke="#000000" stroke-width="0.5" fill="none" /><path id="996" transform="matrix(1 0 0 -1 0 841)" d="M65.25 103.15L530.05 103.15" stroke="#000000" stroke-width="0.5" fill="none" /><g clip-path="url(#83)"></g><g clip-path="url(#84)"></g><path id="1021" transform="matrix(1 0 0 -1 0 841)" d="M65.5 86.79999L65.5 74.79999" stroke="#000000" stroke-width="0.5" fill="none" /><path id="1022" transform="matrix(1 0 0 -1 0 841)" d="M470.3 86.79999L470.3 74.79999" stroke="#000000" stroke-width="0.5" fill="none" /><path id="1023" transform="matrix(1 0 0 -1 0 841)" d="M529.8 86.79999L529.8 74.79999" stroke="#000000" stroke-width="0.5" fill="none" /><path id="1024" transform="matrix(1 0 0 -1 0 841)" d="M65.25 87.04999L530.05 87.04999" stroke="#000000" stroke-width="0.5" fill="none" /><path id="1025" transform="matrix(1 0 0 -1 0 841)" d="M65.25 74.54999L530.05 74.54999" stroke="#000000" stroke-width="0.5" fill="none" /></g></g></svg>