<svg xmlns="http://www.w3.org/2000/svg" xmlns:xlink="http://www.w3.org/1999/xlink" id="body_14" preserveAspectRatio="xMinYMin meet" viewBox="0 0 793 1121"><defs><clipPath id="1"><path id="" clip-rule="evenodd" transform="matrix(1 0 0 1 0 0)" d="M0 841L0 -0.9000244L0 -0.9000244L595.3 -0.9000244L595.3 -0.9000244L595.3 841L595.3 841L0 841z" /></clipPath><clipPath id="2"><path id="" clip-rule="evenodd" transform="matrix(1 0 0 1 0 0)" d="M0 41.59998L595.3 41.59998L595.3 41.59998L595.3 60.53198L595.3 60.53198L0 60.53198z" /></clipPath><clipPath id="3"><path id="" clip-rule="evenodd" transform="matrix(1 0 0 1 0 0)" d="M0 781.051L595.3 781.051L595.3 781.051L595.3 791.4L595.3 791.4L0 791.4z" /></clipPath><clipPath id="4"><path id="" clip-rule="evenodd" transform="matrix(1 0 0 1 0 0)" d="M64.75 69.5L472.25 69.5L472.25 69.5L472.25 83.5L472.25 83.5L64.75 83.5z" /></clipPath><clipPath id="5"><path id="" clip-rule="evenodd" transform="matrix(1 0 0 1 0 0)" d="M470.75 69.5L530.55 69.5L530.55 69.5L530.55 83.5L530.55 83.5L470.75 83.5z" /></clipPath><clipPath id="6"><path id="" clip-rule="evenodd" transform="matrix(1 0 0 1 0 0)" d="M64.75 82L472.25 82L472.25 82L472.25 96L472.25 96L64.75 96z" /></clipPath><clipPath id="7"><path id="" clip-rule="evenodd" transform="matrix(1 0 0 1 0 0)" d="M470.75 82L530.55 82L530.55 82L530.55 96L530.55 96L470.75 96z" /></clipPath><clipPath id="8"><path id="" clip-rule="evenodd" transform="matrix(1 0 0 1 0 0)" d="M64.75 94.5L472.25 94.5L472.25 94.5L472.25 108.5L472.25 108.5L64.75 108.5z" /></clipPath><clipPath id="9"><path id="" clip-rule="evenodd" transform="matrix(1 0 0 1 0 0)" d="M470.75 94.5L530.55 94.5L530.55 94.5L530.55 108.5L530.55 108.5L470.75 108.5z" /></clipPath><clipPath id="10"><path id="" clip-rule="evenodd" transform="matrix(1 0 0 1 0 0)" d="M64.75 107L472.25 107L472.25 107L472.25 121L472.25 121L64.75 121z" /></clipPath><clipPath id="11"><path id="" clip-rule="evenodd" transform="matrix(1 0 0 1 0 0)" d="M470.75 107L530.55 107L530.55 107L530.55 121L530.55 121L470.75 121z" /></clipPath><clipPath id="12"><path id="" clip-rule="evenodd" transform="matrix(1 0 0 1 0 0)" d="M64.75 132L470.85 132L470.85 132L470.85 146L470.85 146L64.75 146z" /></clipPath><clipPath id="13"><path id="" clip-rule="evenodd" transform="matrix(1 0 0 1 0 0)" d="M469.1 132L530.55 132L530.55 132L530.55 146L530.55 146L469.1 146z" /></clipPath><clipPath id="14"><path id="" clip-rule="evenodd" transform="matrix(1 0 0 1 0 0)" d="M64.75 144.5L470.85 144.5L470.85 144.5L470.85 160.25L470.85 160.25L64.75 160.25z" /></clipPath><clipPath id="15"><path id="" clip-rule="evenodd" transform="matrix(1 0 0 1 0 0)" d="M469.1 144.5L530.55 144.5L530.55 144.5L530.55 160.25L530.55 160.25L469.1 160.25z" /></clipPath><clipPath id="16"><path id="" clip-rule="evenodd" transform="matrix(1 0 0 1 0 0)" d="M64.75 158.75L470.85 158.75L470.85 158.75L470.85 174.5L470.85 174.5L64.75 174.5z" /></clipPath><clipPath id="17"><path id="" clip-rule="evenodd" transform="matrix(1 0 0 1 0 0)" d="M469.1 158.75L530.55 158.75L530.55 158.75L530.55 174.5L530.55 174.5L469.1 174.5z" /></clipPath><clipPath id="18"><path id="" clip-rule="evenodd" transform="matrix(1 0 0 1 0 0)" d="M64.75 173L470.85 173L470.85 173L470.85 187L470.85 187L64.75 187z" /></clipPath><clipPath id="19"><path id="" clip-rule="evenodd" transform="matrix(1 0 0 1 0 0)" d="M469.1 173L530.55 173L530.55 173L530.55 187L530.55 187L469.1 187z" /></clipPath><clipPath id="20"><path id="" clip-rule="evenodd" transform="matrix(1 0 0 1 0 0)" d="M64.75 185.5L470.85 185.5L470.85 185.5L470.85 199.5L470.85 199.5L64.75 199.5z" /></clipPath><clipPath id="21"><path id="" clip-rule="evenodd" transform="matrix(1 0 0 1 0 0)" d="M469.1 185.5L530.55 185.5L530.55 185.5L530.55 199.5L530.55 199.5L469.1 199.5z" /></clipPath><clipPath id="22"><path id="" clip-rule="evenodd" transform="matrix(1 0 0 1 0 0)" d="M64.75 198L470.85 198L470.85 198L470.85 212L470.85 212L64.75 212z" /></clipPath><clipPath id="23"><path id="" clip-rule="evenodd" transform="matrix(1 0 0 1 0 0)" d="M469.1 198L530.55 198L530.55 198L530.55 212L530.55 212L469.1 212z" /></clipPath><clipPath id="24"><path id="" clip-rule="evenodd" transform="matrix(1 0 0 1 0 0)" d="M64.75 210.5L470.85 210.5L470.85 210.5L470.85 224.5L470.85 224.5L64.75 224.5z" /></clipPath><clipPath id="25"><path id="" clip-rule="evenodd" transform="matrix(1 0 0 1 0 0)" d="M469.1 210.5L530.55 210.5L530.55 210.5L530.55 224.5L530.55 224.5L469.1 224.5z" /></clipPath><clipPath id="26"><path id="" clip-rule="evenodd" transform="matrix(1 0 0 1 0 0)" d="M64.75 223L470.85 223L470.85 223L470.85 237L470.85 237L64.75 237z" /></clipPath><clipPath id="27"><path id="" clip-rule="evenodd" transform="matrix(1 0 0 1 0 0)" d="M469.1 223L530.55 223L530.55 223L530.55 237L530.55 237L469.1 237z" /></clipPath><clipPath id="28"><path id="" clip-rule="evenodd" transform="matrix(1 0 0 1 0 0)" d="M64.75 235.5L470.85 235.5L470.85 235.5L470.85 249.5L470.85 249.5L64.75 249.5z" /></clipPath><clipPath id="29"><path id="" clip-rule="evenodd" transform="matrix(1 0 0 1 0 0)" d="M469.1 235.5L530.55 235.5L530.55 235.5L530.55 249.5L530.55 249.5L469.1 249.5z" /></clipPath><clipPath id="30"><path id="" clip-rule="evenodd" transform="matrix(1 0 0 1 0 0)" d="M64.75 248L470.85 248L470.85 248L470.85 262L470.85 262L64.75 262z" /></clipPath><clipPath id="31"><path id="" clip-rule="evenodd" transform="matrix(1 0 0 1 0 0)" d="M469.1 248L530.55 248L530.55 248L530.55 262L530.55 262L469.1 262z" /></clipPath><clipPath id="32"><path id="" clip-rule="evenodd" transform="matrix(1 0 0 1 0 0)" d="M64.75 260.5L470.85 260.5L470.85 260.5L470.85 274.5L470.85 274.5L64.75 274.5z" /></clipPath><clipPath id="33"><path id="" clip-rule="evenodd" transform="matrix(1 0 0 1 0 0)" d="M469.1 260.5L530.55 260.5L530.55 260.5L530.55 274.5L530.55 274.5L469.1 274.5z" /></clipPath><clipPath id="34"><path id="" clip-rule="evenodd" transform="matrix(1 0 0 1 0 0)" d="M64.75 273L470.85 273L470.85 273L470.85 287L470.85 287L64.75 287z" /></clipPath><clipPath id="35"><path id="" clip-rule="evenodd" transform="matrix(1 0 0 1 0 0)" d="M469.1 273L530.55 273L530.55 273L530.55 287L530.55 287L469.1 287z" /></clipPath><clipPath id="36"><path id="" clip-rule="evenodd" transform="matrix(1 0 0 1 0 0)" d="M64.75 285.5L470.85 285.5L470.85 285.5L470.85 299.5L470.85 299.5L64.75 299.5z" /></clipPath><clipPath id="37"><path id="" clip-rule="evenodd" transform="matrix(1 0 0 1 0 0)" d="M469.1 285.5L530.55 285.5L530.55 285.5L530.55 299.5L530.55 299.5L469.1 299.5z" /></clipPath><clipPath id="38"><path id="" clip-rule="evenodd" transform="matrix(1 0 0 1 0 0)" d="M64.75 297.5L470.85 297.5L470.85 297.5L470.85 312L470.85 312L64.75 312z" /></clipPath><clipPath id="39"><path id="" clip-rule="evenodd" transform="matrix(1 0 0 1 0 0)" d="M469.1 298L530.55 298L530.55 298L530.55 312L530.55 312L469.1 312z" /></clipPath><clipPath id="40"><path id="" clip-rule="evenodd" transform="matrix(1 0 0 1 0 0)" d="M64.75 310L470.85 310L470.85 310L470.85 324.5L470.85 324.5L64.75 324.5z" /></clipPath><clipPath id="41"><path id="" clip-rule="evenodd" transform="matrix(1 0 0 1 0 0)" d="M469.1 310L530.55 310L530.55 310L530.55 324.5L530.55 324.5L469.1 324.5z" /></clipPath><clipPath id="42"><path id="" clip-rule="evenodd" transform="matrix(1 0 0 1 0 0)" d="M64.75 322.5L470.85 322.5L470.85 322.5L470.85 337L470.85 337L64.75 337z" /></clipPath><clipPath id="43"><path id="" clip-rule="evenodd" transform="matrix(1 0 0 1 0 0)" d="M469.1 322.5L530.55 322.5L530.55 322.5L530.55 337L530.55 337L469.1 337z" /></clipPath><clipPath id="44"><path id="" clip-rule="evenodd" transform="matrix(1 0 0 1 0 0)" d="M64.75 335L470.85 335L470.85 335L470.85 349.5L470.85 349.5L64.75 349.5z" /></clipPath><clipPath id="45"><path id="" clip-rule="evenodd" transform="matrix(1 0 0 1 0 0)" d="M469.1 335L530.55 335L530.55 335L530.55 349.5L530.55 349.5L469.1 349.5z" /></clipPath><clipPath id="46"><path id="" clip-rule="evenodd" transform="matrix(1 0 0 1 0 0)" d="M64.75 347.5L470.85 347.5L470.85 347.5L470.85 362L470.85 362L64.75 362z" /></clipPath><clipPath id="47"><path id="" clip-rule="evenodd" transform="matrix(1 0 0 1 0 0)" d="M469.1 347.5L530.55 347.5L530.55 347.5L530.55 362L530.55 362L469.1 362z" /></clipPath><clipPath id="48"><path id="" clip-rule="evenodd" transform="matrix(1 0 0 1 0 0)" d="M64.75 360L470.85 360L470.85 360L470.85 374.5L470.85 374.5L64.75 374.5z" /></clipPath><clipPath id="49"><path id="" clip-rule="evenodd" transform="matrix(1 0 0 1 0 0)" d="M469.1 360L530.55 360L530.55 360L530.55 374.5L530.55 374.5L469.1 374.5z" /></clipPath><clipPath id="50"><path id="" clip-rule="evenodd" transform="matrix(1 0 0 1 0 0)" d="M64.75 404.7L470.75 404.7L470.75 404.7L470.75 418.7L470.75 418.7L64.75 418.7z" /></clipPath><clipPath id="51"><path id="" clip-rule="evenodd" transform="matrix(1 0 0 1 0 0)" d="M469.25 404.7L530.55 404.7L530.55 404.7L530.55 418.7L530.55 418.7L469.25 418.7z" /></clipPath><clipPath id="52"><path id="" clip-rule="evenodd" transform="matrix(1 0 0 1 0 0)" d="M64.75 417.2L470.75 417.2L470.75 417.2L470.75 431.2L470.75 431.2L64.75 431.2z" /></clipPath><clipPath id="53"><path id="" clip-rule="evenodd" transform="matrix(1 0 0 1 0 0)" d="M469.25 417.2L530.55 417.2L530.55 417.2L530.55 431.2L530.55 431.2L469.25 431.2z" /></clipPath><clipPath id="54"><path id="" clip-rule="evenodd" transform="matrix(1 0 0 1 0 0)" d="M64.75 429.7L470.75 429.7L470.75 429.7L470.75 443.7L470.75 443.7L64.75 443.7z" /></clipPath><clipPath id="55"><path id="" clip-rule="evenodd" transform="matrix(1 0 0 1 0 0)" d="M469.25 429.7L530.55 429.7L530.55 429.7L530.55 443.7L530.55 443.7L469.25 443.7z" /></clipPath><clipPath id="56"><path id="" clip-rule="evenodd" transform="matrix(1 0 0 1 0 0)" d="M64.75 442.2L470.75 442.2L470.75 442.2L470.75 456.2L470.75 456.2L64.75 456.2z" /></clipPath><clipPath id="57"><path id="" clip-rule="evenodd" transform="matrix(1 0 0 1 0 0)" d="M469.25 442.2L530.55 442.2L530.55 442.2L530.55 456.2L530.55 456.2L469.25 456.2z" /></clipPath><clipPath id="58"><path id="" clip-rule="evenodd" transform="matrix(1 0 0 1 0 0)" d="M64.75 454.7L470.75 454.7L470.75 454.7L470.75 468.7L470.75 468.7L64.75 468.7z" /></clipPath><clipPath id="59"><path id="" clip-rule="evenodd" transform="matrix(1 0 0 1 0 0)" d="M469.25 454.7L530.55 454.7L530.55 454.7L530.55 468.7L530.55 468.7L469.25 468.7z" /></clipPath><clipPath id="60"><path id="" clip-rule="evenodd" transform="matrix(1 0 0 1 0 0)" d="M64.75 467.2L470.75 467.2L470.75 467.2L470.75 481.2L470.75 481.2L64.75 481.2z" /></clipPath><clipPath id="61"><path id="" clip-rule="evenodd" transform="matrix(1 0 0 1 0 0)" d="M469.25 467.2L530.55 467.2L530.55 467.2L530.55 481.2L530.55 481.2L469.25 481.2z" /></clipPath><clipPath id="62"><path id="" clip-rule="evenodd" transform="matrix(1 0 0 1 0 0)" d="M64.75 479.7L470.75 479.7L470.75 479.7L470.75 493.7L470.75 493.7L64.75 493.7z" /></clipPath><clipPath id="63"><path id="" clip-rule="evenodd" transform="matrix(1 0 0 1 0 0)" d="M469.25 479.7L530.55 479.7L530.55 479.7L530.55 493.7L530.55 493.7L469.25 493.7z" /></clipPath><clipPath id="64"><path id="" clip-rule="evenodd" transform="matrix(1 0 0 1 0 0)" d="M64.75 492.2L470.75 492.2L470.75 492.2L470.75 506.2L470.75 506.2L64.75 506.2z" /></clipPath><clipPath id="65"><path id="" clip-rule="evenodd" transform="matrix(1 0 0 1 0 0)" d="M469.25 492.2L530.55 492.2L530.55 492.2L530.55 506.2L530.55 506.2L469.25 506.2z" /></clipPath><clipPath id="66"><path id="" clip-rule="evenodd" transform="matrix(1 0 0 1 0 0)" d="M64.75 504.7L470.75 504.7L470.75 504.7L470.75 518.7L470.75 518.7L64.75 518.7z" /></clipPath><clipPath id="67"><path id="" clip-rule="evenodd" transform="matrix(1 0 0 1 0 0)" d="M469.25 504.7L530.55 504.7L530.55 504.7L530.55 518.7L530.55 518.7L469.25 518.7z" /></clipPath><clipPath id="68"><path id="" clip-rule="evenodd" transform="matrix(1 0 0 1 0 0)" d="M64.75 517.2L470.75 517.2L470.75 517.2L470.75 531.2L470.75 531.2L64.75 531.2z" /></clipPath><clipPath id="69"><path id="" clip-rule="evenodd" transform="matrix(1 0 0 1 0 0)" d="M469.25 517.2L530.55 517.2L530.55 517.2L530.55 531.2L530.55 531.2L469.25 531.2z" /></clipPath><clipPath id="70"><path id="" clip-rule="evenodd" transform="matrix(1 0 0 1 0 0)" d="M64.75 529.7L470.75 529.7L470.75 529.7L470.75 543.7L470.75 543.7L64.75 543.7z" /></clipPath><clipPath id="71"><path id="" clip-rule="evenodd" transform="matrix(1 0 0 1 0 0)" d="M469.25 529.7L530.55 529.7L530.55 529.7L530.55 543.7L530.55 543.7L469.25 543.7z" /></clipPath><clipPath id="72"><path id="" clip-rule="evenodd" transform="matrix(1 0 0 1 0 0)" d="M64.75 542.2L470.75 542.2L470.75 542.2L470.75 556.2L470.75 556.2L64.75 556.2z" /></clipPath><clipPath id="73"><path id="" clip-rule="evenodd" transform="matrix(1 0 0 1 0 0)" d="M469.25 542.2L530.55 542.2L530.55 542.2L530.55 556.2L530.55 556.2L469.25 556.2z" /></clipPath><clipPath id="74"><path id="" clip-rule="evenodd" transform="matrix(1 0 0 1 0 0)" d="M64.75 554.7L470.75 554.7L470.75 554.7L470.75 568.7L470.75 568.7L64.75 568.7z" /></clipPath><clipPath id="75"><path id="" clip-rule="evenodd" transform="matrix(1 0 0 1 0 0)" d="M469.25 554.7L530.55 554.7L530.55 554.7L530.55 568.7L530.55 568.7L469.25 568.7z" /></clipPath><clipPath id="76"><path id="" clip-rule="evenodd" transform="matrix(1 0 0 1 0 0)" d="M64.75 567.2L470.75 567.2L470.75 567.2L470.75 581.2L470.75 581.2L64.75 581.2z" /></clipPath><clipPath id="77"><path id="" clip-rule="evenodd" transform="matrix(1 0 0 1 0 0)" d="M469.25 567.2L530.55 567.2L530.55 567.2L530.55 581.2L530.55 581.2L469.25 581.2z" /></clipPath><clipPath id="78"><path id="" clip-rule="evenodd" transform="matrix(1 0 0 1 0 0)" d="M64.75 579.7L470.75 579.7L470.75 579.7L470.75 593.7L470.75 593.7L64.75 593.7z" /></clipPath><clipPath id="79"><path id="" clip-rule="evenodd" transform="matrix(1 0 0 1 0 0)" d="M469.25 579.7L530.55 579.7L530.55 579.7L530.55 593.7L530.55 593.7L469.25 593.7z" /></clipPath><clipPath id="80"><path id="" clip-rule="evenodd" transform="matrix(1 0 0 1 0 0)" d="M64.75 592.2L470.75 592.2L470.75 592.2L470.75 606.2L470.75 606.2L64.75 606.2z" /></clipPath><clipPath id="81"><path id="" clip-rule="evenodd" transform="matrix(1 0 0 1 0 0)" d="M469.25 592.2L530.55 592.2L530.55 592.2L530.55 606.2L530.55 606.2L469.25 606.2z" /></clipPath><clipPath id="82"><path id="" clip-rule="evenodd" transform="matrix(1 0 0 1 0 0)" d="M64.75 604.7L470.75 604.7L470.75 604.7L470.75 618.7L470.75 618.7L64.75 618.7z" /></clipPath><clipPath id="83"><path id="" clip-rule="evenodd" transform="matrix(1 0 0 1 0 0)" d="M469.25 604.7L530.55 604.7L530.55 604.7L530.55 618.7L530.55 618.7L469.25 618.7z" /></clipPath><clipPath id="84"><path id="" clip-rule="evenodd" transform="matrix(1 0 0 1 0 0)" d="M64.75 617.2L470.75 617.2L470.75 617.2L470.75 631.2L470.75 631.2L64.75 631.2z" /></clipPath><clipPath id="85"><path id="" clip-rule="evenodd" transform="matrix(1 0 0 1 0 0)" d="M469.25 617.2L530.55 617.2L530.55 617.2L530.55 631.2L530.55 631.2L469.25 631.2z" /></clipPath><clipPath id="86"><path id="" clip-rule="evenodd" transform="matrix(1 0 0 1 0 0)" d="M64.75 629.7L470.75 629.7L470.75 629.7L470.75 643.7L470.75 643.7L64.75 643.7z" /></clipPath><clipPath id="87"><path id="" clip-rule="evenodd" transform="matrix(1 0 0 1 0 0)" d="M469.25 629.7L530.55 629.7L530.55 629.7L530.55 643.7L530.55 643.7L469.25 643.7z" /></clipPath><clipPath id="88"><path id="" clip-rule="evenodd" transform="matrix(1 0 0 1 0 0)" d="M64.75 642.2L470.75 642.2L470.75 642.2L470.75 656.2L470.75 656.2L64.75 656.2z" /></clipPath><clipPath id="89"><path id="" clip-rule="evenodd" transform="matrix(1 0 0 1 0 0)" d="M469.25 642.2L530.55 642.2L530.55 642.2L530.55 656.2L530.55 656.2L469.25 656.2z" /></clipPath><clipPath id="90"><path id="" clip-rule="evenodd" transform="matrix(1 0 0 1 0 0)" d="M64.75 670.8L462.65 670.8L462.65 670.8L462.65 684.8L462.65 684.8L64.75 684.8z" /></clipPath><clipPath id="91"><path id="" clip-rule="evenodd" transform="matrix(1 0 0 1 0 0)" d="M461.15 670.8L530.55 670.8L530.55 670.8L530.55 684.8L530.55 684.8L461.15 684.8z" /></clipPath><clipPath id="92"><path id="" clip-rule="evenodd" transform="matrix(1 0 0 1 0 0)" d="M64.75 683.3L462.65 683.3L462.65 683.3L462.65 697.3L462.65 697.3L64.75 697.3z" /></clipPath><clipPath id="93"><path id="" clip-rule="evenodd" transform="matrix(1 0 0 1 0 0)" d="M461.15 683.3L530.55 683.3L530.55 683.3L530.55 697.3L530.55 697.3L461.15 697.3z" /></clipPath><clipPath id="94"><path id="" clip-rule="evenodd" transform="matrix(1 0 0 1 0 0)" d="M64.75 695.8L462.65 695.8L462.65 695.8L462.65 709.8L462.65 709.8L64.75 709.8z" /></clipPath><clipPath id="95"><path id="" clip-rule="evenodd" transform="matrix(1 0 0 1 0 0)" d="M461.15 695.8L530.55 695.8L530.55 695.8L530.55 709.8L530.55 709.8L461.15 709.8z" /></clipPath><clipPath id="96"><path id="" clip-rule="evenodd" transform="matrix(1 0 0 1 0 0)" d="M64.75 708.3L462.65 708.3L462.65 708.3L462.65 722.3L462.65 722.3L64.75 722.3z" /></clipPath><clipPath id="97"><path id="" clip-rule="evenodd" transform="matrix(1 0 0 1 0 0)" d="M461.15 708.3L530.55 708.3L530.55 708.3L530.55 722.3L530.55 722.3L461.15 722.3z" /></clipPath></defs><g transform="matrix(1.333333 0 0 1.333333 0 0)"><g clip-path="url(#1)"><g clip-path="url(#2)"><path id="13" transform="matrix(1 0 0 -1 0 841)" d="M69.45 780.718L525.85 780.718" stroke="#000000" stroke-width="0.5" fill="none" /></g><g clip-path="url(#3)"></g><g clip-path="url(#4)"></g><g clip-path="url(#5)"></g><g clip-path="url(#6)"></g><g clip-path="url(#7)"></g><g clip-path="url(#8)"></g><g clip-path="url(#9)"></g><g clip-path="url(#10)"></g><g clip-path="url(#11)"></g><path id="80" transform="matrix(1 0 0 -1 0 841)" d="M65.5 770.5L65.5 721" stroke="#000000" stroke-width="0.5" fill="none" /><path id="81" transform="matrix(1 0 0 -1 0 841)" d="M471.5 770.5L471.5 758.5" stroke="#000000" stroke-width="0.5" fill="none" /><path id="82" transform="matrix(1 0 0 -1 0 841)" d="M471.5 758L471.5 746" stroke="#000000" stroke-width="0.5" fill="none" /><path id="83" transform="matrix(1 0 0 -1 0 841)" d="M471.5 745.5L471.5 733.5" stroke="#000000" stroke-width="0.5" fill="none" /><path id="84" transform="matrix(1 0 0 -1 0 841)" d="M471.5 733L471.5 721" stroke="#000000" stroke-width="0.5" fill="none" /><path id="85" transform="matrix(1 0 0 -1 0 841)" d="M529.8 770.5L529.8 721" stroke="#000000" stroke-width="0.5" fill="none" /><path id="86" transform="matrix(1 0 0 -1 0 841)" d="M65.25 770.75L530.05 770.75" stroke="#000000" stroke-width="0.5" fill="none" /><path id="87" transform="matrix(1 0 0 -1 0 841)" d="M65.75 758.25L529.55 758.25" stroke="#000000" stroke-width="0.5" fill="none" /><path id="88" transform="matrix(1 0 0 -1 0 841)" d="M65.75 745.75L529.55 745.75" stroke="#000000" stroke-width="0.5" fill="none" /><path id="89" transform="matrix(1 0 0 -1 0 841)" d="M65.75 733.25L529.55 733.25" stroke="#000000" stroke-width="0.5" fill="none" /><path id="90" transform="matrix(1 0 0 -1 0 841)" d="M65.25 720.75L530.05 720.75" stroke="#000000" stroke-width="0.5" fill="none" /><g clip-path="url(#12)"></g><g clip-path="url(#13)"></g><g clip-path="url(#14)"></g><g clip-path="url(#15)"></g><g clip-path="url(#16)"></g><g clip-path="url(#17)"></g><g clip-path="url(#18)"></g><g clip-path="url(#19)"></g><g clip-path="url(#20)"></g><g clip-path="url(#21)"></g><g clip-path="url(#22)"></g><g clip-path="url(#23)"></g><g clip-path="url(#24)"></g><g clip-path="url(#25)"></g><g clip-path="url(#26)"></g><g clip-path="url(#27)"></g><g clip-path="url(#28)"></g><g clip-path="url(#29)"></g><g clip-path="url(#30)"></g><g clip-path="url(#31)"></g><g clip-path="url(#32)"></g><g clip-path="url(#33)"></g><g clip-path="url(#34)"></g><g clip-path="url(#35)"></g><g clip-path="url(#36)"></g><g clip-path="url(#37)"></g><g clip-path="url(#38)"></g><g clip-path="url(#39)"></g><g clip-path="url(#40)"></g><g clip-path="url(#41)"></g><g clip-path="url(#42)"></g><g clip-path="url(#43)"></g><g clip-path="url(#44)"></g><g clip-path="url(#45)"></g><g clip-path="url(#46)"></g><g clip-path="url(#47)"></g><g clip-path="url(#48)"></g><g clip-path="url(#49)"></g><path id="435" transform="matrix(1 0 0 -1 0 841)" d="M65.5 708L65.5 467.5" stroke="#000000" stroke-width="0.5" fill="none" /><path id="436" transform="matrix(1 0 0 -1 0 841)" d="M470.1 708L470.1 696" stroke="#000000" stroke-width="0.5" fill="none" /><path id="437" transform="matrix(1 0 0 -1 0 841)" d="M470.1 695.5L470.1 681.75" stroke="#000000" stroke-width="0.5" fill="none" /><path id="438" transform="matrix(1 0 0 -1 0 841)" d="M470.1 681.25L470.1 667.5" stroke="#000000" stroke-width="0.5" fill="none" /><path id="439" transform="matrix(1 0 0 -1 0 841)" d="M470.1 667L470.1 655" stroke="#000000" stroke-width="0.5" fill="none" /><path id="440" transform="matrix(1 0 0 -1 0 841)" d="M470.1 654.5L470.1 642.5" stroke="#000000" stroke-width="0.5" fill="none" /><path id="441" transform="matrix(1 0 0 -1 0 841)" d="M470.1 642L470.1 630" stroke="#000000" stroke-width="0.5" fill="none" /><path id="442" transform="matrix(1 0 0 -1 0 841)" d="M470.1 629.5L470.1 617.5" stroke="#000000" stroke-width="0.5" fill="none" /><path id="443" transform="matrix(1 0 0 -1 0 841)" d="M470.1 617L470.1 605" stroke="#000000" stroke-width="0.5" fill="none" /><path id="444" transform="matrix(1 0 0 -1 0 841)" d="M470.1 604.5L470.1 592.5" stroke="#000000" stroke-width="0.5" fill="none" /><path id="445" transform="matrix(1 0 0 -1 0 841)" d="M470.1 592L470.1 580" stroke="#000000" stroke-width="0.5" fill="none" /><path id="446" transform="matrix(1 0 0 -1 0 841)" d="M470.1 579.5L470.1 567.5" stroke="#000000" stroke-width="0.5" fill="none" /><path id="447" transform="matrix(1 0 0 -1 0 841)" d="M470.1 567L470.1 555" stroke="#000000" stroke-width="0.5" fill="none" /><path id="448" transform="matrix(1 0 0 -1 0 841)" d="M470.1 554.5L470.1 542.5" stroke="#000000" stroke-width="0.5" fill="none" /><path id="449" transform="matrix(1 0 0 -1 0 841)" d="M470.1 542L470.1 530" stroke="#000000" stroke-width="0.5" fill="none" /><path id="450" transform="matrix(1 0 0 -1 0 841)" d="M470.1 529.5L470.1 517.5" stroke="#000000" stroke-width="0.5" fill="none" /><path id="451" transform="matrix(1 0 0 -1 0 841)" d="M470.1 517L470.1 505" stroke="#000000" stroke-width="0.5" fill="none" /><path id="452" transform="matrix(1 0 0 -1 0 841)" d="M470.1 504.5L470.1 492.5" stroke="#000000" stroke-width="0.5" fill="none" /><path id="453" transform="matrix(1 0 0 -1 0 841)" d="M470.1 492L470.1 480" stroke="#000000" stroke-width="0.5" fill="none" /><path id="454" transform="matrix(1 0 0 -1 0 841)" d="M470.1 479.5L470.1 467.5" stroke="#000000" stroke-width="0.5" fill="none" /><path id="455" transform="matrix(1 0 0 -1 0 841)" d="M529.8 708L529.8 467.5" stroke="#000000" stroke-width="0.5" fill="none" /><path id="456" transform="matrix(1 0 0 -1 0 841)" d="M65.25 708.25L530.05 708.25" stroke="#000000" stroke-width="0.5" fill="none" /><path id="457" transform="matrix(1 0 0 -1 0 841)" d="M65.75 695.75L529.55 695.75" stroke="#000000" stroke-width="0.5" fill="none" /><path id="458" transform="matrix(1 0 0 -1 0 841)" d="M65.75 681.5L529.55 681.5" stroke="#000000" stroke-width="0.5" fill="none" /><path id="459" transform="matrix(1 0 0 -1 0 841)" d="M65.75 667.25L529.55 667.25" stroke="#000000" stroke-width="0.5" fill="none" /><path id="460" transform="matrix(1 0 0 -1 0 841)" d="M65.75 654.75L529.55 654.75" stroke="#000000" stroke-width="0.5" fill="none" /><path id="461" transform="matrix(1 0 0 -1 0 841)" d="M65.75 642.25L529.55 642.25" stroke="#000000" stroke-width="0.5" fill="none" /><path id="462" transform="matrix(1 0 0 -1 0 841)" d="M65.75 629.75L529.55 629.75" stroke="#000000" stroke-width="0.5" fill="none" /><path id="463" transform="matrix(1 0 0 -1 0 841)" d="M65.75 617.25L529.55 617.25" stroke="#000000" stroke-width="0.5" fill="none" /><path id="464" transform="matrix(1 0 0 -1 0 841)" d="M65.75 604.75L529.55 604.75" stroke="#000000" stroke-width="0.5" fill="none" /><path id="465" transform="matrix(1 0 0 -1 0 841)" d="M65.75 592.25L529.55 592.25" stroke="#000000" stroke-width="0.5" fill="none" /><path id="466" transform="matrix(1 0 0 -1 0 841)" d="M65.75 579.75L529.55 579.75" stroke="#000000" stroke-width="0.5" fill="none" /><path id="467" transform="matrix(1 0 0 -1 0 841)" d="M65.75 567.25L529.55 567.25" stroke="#000000" stroke-width="0.5" fill="none" /><path id="468" transform="matrix(1 0 0 -1 0 841)" d="M65.75 554.75L529.55 554.75" stroke="#000000" stroke-width="0.5" fill="none" /><path id="469" transform="matrix(1 0 0 -1 0 841)" d="M65.75 542.25L529.55 542.25" stroke="#000000" stroke-width="0.5" fill="none" /><path id="470" transform="matrix(1 0 0 -1 0 841)" d="M65.75 529.75L529.55 529.75" stroke="#000000" stroke-width="0.5" fill="none" /><path id="471" transform="matrix(1 0 0 -1 0 841)" d="M65.75 517.25L529.55 517.25" stroke="#000000" stroke-width="0.5" fill="none" /><path id="472" transform="matrix(1 0 0 -1 0 841)" d="M65.75 504.75L529.55 504.75" stroke="#000000" stroke-width="0.5" fill="none" /><path id="473" transform="matrix(1 0 0 -1 0 841)" d="M65.75 492.25L529.55 492.25" stroke="#000000" stroke-width="0.5" fill="none" /><path id="474" transform="matrix(1 0 0 -1 0 841)" d="M65.75 479.75L529.55 479.75" stroke="#000000" stroke-width="0.5" fill="none" /><path id="475" transform="matrix(1 0 0 -1 0 841)" d="M65.25 467.25L530.05 467.25" stroke="#000000" stroke-width="0.5" fill="none" /><g clip-path="url(#50)"></g><g clip-path="url(#51)"></g><g clip-path="url(#52)"></g><g clip-path="url(#53)"></g><g clip-path="url(#54)"></g><g clip-path="url(#55)"></g><g clip-path="url(#56)"></g><g clip-path="url(#57)"></g><g clip-path="url(#58)"></g><g clip-path="url(#59)"></g><g clip-path="url(#60)"></g><g clip-path="url(#61)"></g><g clip-path="url(#62)"></g><g clip-path="url(#63)"></g><g clip-path="url(#64)"></g><g clip-path="url(#65)"></g><g clip-path="url(#66)"></g><g clip-path="url(#67)"></g><g clip-path="url(#68)"></g><g clip-path="url(#69)"></g><g clip-path="url(#70)"></g><g clip-path="url(#71)"></g><g clip-path="url(#72)"></g><g clip-path="url(#73)"></g><g clip-path="url(#74)"></g><g clip-path="url(#75)"></g><g clip-path="url(#76)"></g><g clip-path="url(#77)"></g><g clip-path="url(#78)"></g><g clip-path="url(#79)"></g><g clip-path="url(#80)"></g><g clip-path="url(#81)"></g><g clip-path="url(#82)"></g><g clip-path="url(#83)"></g><g clip-path="url(#84)"></g><g clip-path="url(#85)"></g><g clip-path="url(#86)"></g><g clip-path="url(#87)"></g><g clip-path="url(#88)"></g><g clip-path="url(#89)"></g><path id="958" transform="matrix(1 0 0 -1 0 841)" d="M65.5 435.3L65.5 185.8" stroke="#000000" stroke-width="0.5" fill="none" /><path id="959" transform="matrix(1 0 0 -1 0 841)" d="M470 435.3L470 423.3" stroke="#000000" stroke-width="0.5" fill="none" /><path id="960" transform="matrix(1 0 0 -1 0 841)" d="M470 422.8L470 410.8" stroke="#000000" stroke-width="0.5" fill="none" /><path id="961" transform="matrix(1 0 0 -1 0 841)" d="M470 410.3L470 398.3" stroke="#000000" stroke-width="0.5" fill="none" /><path id="962" transform="matrix(1 0 0 -1 0 841)" d="M470 397.8L470 385.8" stroke="#000000" stroke-width="0.5" fill="none" /><path id="963" transform="matrix(1 0 0 -1 0 841)" d="M470 385.3L470 373.3" stroke="#000000" stroke-width="0.5" fill="none" /><path id="964" transform="matrix(1 0 0 -1 0 841)" d="M470 372.8L470 360.8" stroke="#000000" stroke-width="0.5" fill="none" /><path id="965" transform="matrix(1 0 0 -1 0 841)" d="M470 360.3L470 348.3" stroke="#000000" stroke-width="0.5" fill="none" /><path id="966" transform="matrix(1 0 0 -1 0 841)" d="M470 347.8L470 335.8" stroke="#000000" stroke-width="0.5" fill="none" /><path id="967" transform="matrix(1 0 0 -1 0 841)" d="M470 335.3L470 323.3" stroke="#000000" stroke-width="0.5" fill="none" /><path id="968" transform="matrix(1 0 0 -1 0 841)" d="M470 322.8L470 310.8" stroke="#000000" stroke-width="0.5" fill="none" /><path id="969" transform="matrix(1 0 0 -1 0 841)" d="M470 310.3L470 298.3" stroke="#000000" stroke-width="0.5" fill="none" /><path id="970" transform="matrix(1 0 0 -1 0 841)" d="M470 297.8L470 285.8" stroke="#000000" stroke-width="0.5" fill="none" /><path id="971" transform="matrix(1 0 0 -1 0 841)" d="M470 285.3L470 273.3" stroke="#000000" stroke-width="0.5" fill="none" /><path id="972" transform="matrix(1 0 0 -1 0 841)" d="M470 272.8L470 260.8" stroke="#000000" stroke-width="0.5" fill="none" /><path id="973" transform="matrix(1 0 0 -1 0 841)" d="M470 260.3L470 248.3" stroke="#000000" stroke-width="0.5" fill="none" /><path id="974" transform="matrix(1 0 0 -1 0 841)" d="M470 247.8L470 235.8" stroke="#000000" stroke-width="0.5" fill="none" /><path id="975" transform="matrix(1 0 0 -1 0 841)" d="M470 235.3L470 223.3" stroke="#000000" stroke-width="0.5" fill="none" /><path id="976" transform="matrix(1 0 0 -1 0 841)" d="M470 222.8L470 210.8" stroke="#000000" stroke-width="0.5" fill="none" /><path id="977" transform="matrix(1 0 0 -1 0 841)" d="M470 210.3L470 198.3" stroke="#000000" stroke-width="0.5" fill="none" /><path id="978" transform="matrix(1 0 0 -1 0 841)" d="M470 197.8L470 185.8" stroke="#000000" stroke-width="0.5" fill="none" /><path id="979" transform="matrix(1 0 0 -1 0 841)" d="M529.8 435.3L529.8 185.8" stroke="#000000" stroke-width="0.5" fill="none" /><path id="980" transform="matrix(1 0 0 -1 0 841)" d="M65.25 435.55L530.05 435.55" stroke="#000000" stroke-width="0.5" fill="none" /><path id="981" transform="matrix(1 0 0 -1 0 841)" d="M65.75 423.05L529.55 423.05" stroke="#000000" stroke-width="0.5" fill="none" /><path id="982" transform="matrix(1 0 0 -1 0 841)" d="M65.75 410.55L529.55 410.55" stroke="#000000" stroke-width="0.5" fill="none" /><path id="983" transform="matrix(1 0 0 -1 0 841)" d="M65.75 398.05L529.55 398.05" stroke="#000000" stroke-width="0.5" fill="none" /><path id="984" transform="matrix(1 0 0 -1 0 841)" d="M65.75 385.55L529.55 385.55" stroke="#000000" stroke-width="0.5" fill="none" /><path id="985" transform="matrix(1 0 0 -1 0 841)" d="M65.75 373.05L529.55 373.05" stroke="#000000" stroke-width="0.5" fill="none" /><path id="986" transform="matrix(1 0 0 -1 0 841)" d="M65.75 360.55L529.55 360.55" stroke="#000000" stroke-width="0.5" fill="none" /><path id="987" transform="matrix(1 0 0 -1 0 841)" d="M65.75 348.05L529.55 348.05" stroke="#000000" stroke-width="0.5" fill="none" /><path id="988" transform="matrix(1 0 0 -1 0 841)" d="M65.75 335.55L529.55 335.55" stroke="#000000" stroke-width="0.5" fill="none" /><path id="989" transform="matrix(1 0 0 -1 0 841)" d="M65.75 323.05L529.55 323.05" stroke="#000000" stroke-width="0.5" fill="none" /><path id="990" transform="matrix(1 0 0 -1 0 841)" d="M65.75 310.55L529.55 310.55" stroke="#000000" stroke-width="0.5" fill="none" /><path id="991" transform="matrix(1 0 0 -1 0 841)" d="M65.75 298.05L529.55 298.05" stroke="#000000" stroke-width="0.5" fill="none" /><path id="992" transform="matrix(1 0 0 -1 0 841)" d="M65.75 285.55L529.55 285.55" stroke="#000000" stroke-width="0.5" fill="none" /><path id="993" transform="matrix(1 0 0 -1 0 841)" d="M65.75 273.05L529.55 273.05" stroke="#000000" stroke-width="0.5" fill="none" /><path id="994" transform="matrix(1 0 0 -1 0 841)" d="M65.75 260.55L529.55 260.55" stroke="#000000" stroke-width="0.5" fill="none" /><path id="995" transform="matrix(1 0 0 -1 0 841)" d="M65.75 248.05L529.55 248.05" stroke="#000000" stroke-width="0.5" fill="none" /><path id="996" transform="matrix(1 0 0 -1 0 841)" d="M65.75 235.55L529.55 235.55" stroke="#000000" stroke-width="0.5" fill="none" /><path id="997" transform="matrix(1 0 0 -1 0 841)" d="M65.75 223.05L529.55 223.05" stroke="#000000" stroke-width="0.5" fill="none" /><path id="998" transform="matrix(1 0 0 -1 0 841)" d="M65.75 210.55L529.55 210.55" stroke="#000000" stroke-width="0.5" fill="none" /><path id="999" transform="matrix(1 0 0 -1 0 841)" d="M65.75 198.05L529.55 198.05" stroke="#000000" stroke-width="0.5" fill="none" /><path id="1000" transform="matrix(1 0 0 -1 0 841)" d="M65.25 185.55L530.05 185.55" stroke="#000000" stroke-width="0.5" fill="none" /><g clip-path="url(#90)"></g><g clip-path="url(#91)"></g><g clip-path="url(#92)"></g><g clip-path="url(#93)"></g><g clip-path="url(#94)"></g><g clip-path="url(#95)"></g><g clip-path="url(#96)"></g><g clip-path="url(#97)"></g><path id="1086" transform="matrix(1 0 0 -1 0 841)" d="M65.5 169.2L65.5 119.7" stroke="#000000" stroke-width="0.5" fill="none" /><path id="1087" transform="matrix(1 0 0 -1 0 841)" d="M461.9 169.2L461.9 157.2" stroke="#000000" stroke-width="0.5" fill="none" /><path id="1088" transform="matrix(1 0 0 -1 0 841)" d="M461.9 156.7L461.9 144.7" stroke="#000000" stroke-width="0.5" fill="none" /><path id="1089" transform="matrix(1 0 0 -1 0 841)" d="M461.9 144.2L461.9 132.2" stroke="#000000" stroke-width="0.5" fill="none" /><path id="1090" transform="matrix(1 0 0 -1 0 841)" d="M461.9 131.7L461.9 119.7" stroke="#000000" stroke-width="0.5" fill="none" /><path id="1091" transform="matrix(1 0 0 -1 0 841)" d="M529.8 169.2L529.8 119.7" stroke="#000000" stroke-width="0.5" fill="none" /><path id="1092" transform="matrix(1 0 0 -1 0 841)" d="M65.25 169.45L530.05 169.45" stroke="#000000" stroke-width="0.5" fill="none" /><path id="1093" transform="matrix(1 0 0 -1 0 841)" d="M65.75 156.95L529.55 156.95" stroke="#000000" stroke-width="0.5" fill="none" /><path id="1094" transform="matrix(1 0 0 -1 0 841)" d="M65.75 144.45L529.55 144.45" stroke="#000000" stroke-width="0.5" fill="none" /><path id="1095" transform="matrix(1 0 0 -1 0 841)" d="M65.75 131.95L529.55 131.95" stroke="#000000" stroke-width="0.5" fill="none" /><path id="1096" transform="matrix(1 0 0 -1 0 841)" d="M65.25 119.45L530.05 119.45" stroke="#000000" stroke-width="0.5" fill="none" /></g></g></svg>